G04 PROTEUS GERBER X2 FILE*
%TF.GenerationSoftware,Labcenter,Proteus,8.12-SP0-Build30713*%
%TF.CreationDate,2025-07-29T23:59:36+00:00*%
%TF.FileFunction,Copper,L2,Bot*%
%TF.FilePolarity,Positive*%
%TF.Part,Single*%
%TF.SameCoordinates,{e56e60b4-6ad3-43ce-92a5-0eef0eccd0f5}*%
%FSLAX45Y45*%
%MOMM*%
G01*
%TA.AperFunction,Conductor*%
%ADD10C,1.524000*%
%TA.AperFunction,ComponentPad*%
%ADD11C,2.032000*%
%ADD12C,1.778000*%
%ADD13C,2.286000*%
%TA.AperFunction,ComponentPad*%
%ADD14R,1.270000X1.270000*%
%ADD15C,1.270000*%
%TA.AperFunction,ComponentPad*%
%ADD16R,2.032000X2.032000*%
%TD.AperFunction*%
D10*
X+7488000Y+1750000D02*
X+7488000Y+1900803D01*
X+7633049Y+2045852D01*
X+8045852Y+2045852D01*
X+8250000Y+2250000D01*
X+8250000Y+2512000D01*
X+8750000Y+2246000D02*
X+8650867Y+2246000D01*
X+8250000Y+1845133D01*
X+8250000Y+1750000D01*
X+8766000Y+1250000D02*
X+8766000Y+1722000D01*
X+8750000Y+1738000D01*
X+7742000Y+1750000D02*
X+7742000Y+1258000D01*
X+7750000Y+1250000D01*
X+7750000Y+2746000D02*
X+7750000Y+2520000D01*
X+7742000Y+2512000D01*
X+7488000Y+2512000D02*
X+7008000Y+2512000D01*
X+7000000Y+2504000D01*
X+7750000Y+2746000D02*
X+6865178Y+2746000D01*
X+6850869Y+2731691D01*
X+6750000Y+2630822D01*
X+6750000Y+2627000D01*
X+6500000Y+2000000D02*
X+6500000Y+2424118D01*
X+6511721Y+2435839D01*
X+6575882Y+2500000D01*
X+6623000Y+2500000D01*
X+7000000Y+2250000D02*
X+6873000Y+2250000D01*
X+6750000Y+2373000D01*
X+8738000Y+2512000D02*
X+8750000Y+2500000D01*
X+8504000Y+2750000D02*
X+8504000Y+2673275D01*
X+8524959Y+2652316D01*
X+8524959Y+2512000D01*
X+8250000Y+2512000D02*
X+8524959Y+2512000D01*
X+8738000Y+2512000D01*
X+8250000Y+1750000D02*
X+8250000Y+1193225D01*
X+7913075Y+856300D01*
X+7586925Y+856300D01*
X+7246000Y+1197225D01*
X+7246000Y+1250000D01*
X+7500000Y+1250000D02*
X+7500000Y+1194672D01*
X+7500000Y+1486553D01*
X+7310200Y+1676353D01*
X+7310200Y+2080200D01*
X+7742000Y+2512000D01*
X+7996000Y+1750000D02*
X+7996000Y+1254000D01*
X+8000000Y+1250000D01*
X+8000000Y+1194672D01*
X+7839428Y+1034100D01*
X+7660572Y+1034100D01*
X+7500000Y+1194672D01*
X+6750000Y+1000000D02*
X+7071424Y+678576D01*
X+8001615Y+678576D01*
X+8005413Y+682374D01*
X+8546800Y+1223761D01*
X+8546800Y+1881684D01*
X+8657116Y+1992000D01*
X+8750000Y+1992000D01*
X+7246000Y+1250000D02*
X+7020000Y+1476000D01*
X+7020000Y+1750000D01*
X+7020000Y+2230000D01*
X+7000000Y+2250000D01*
X+6766000Y+1750000D02*
X+6762000Y+1746000D01*
X+6500000Y+1746000D01*
X+6750000Y+1254000D02*
X+6750000Y+1734000D01*
X+6762000Y+1746000D01*
X+8250000Y+2750000D02*
X+8000000Y+2750000D01*
X+7996000Y+2746000D01*
X+8000000Y+2750000D01*
X+7996000Y+2512000D02*
X+7996000Y+2746000D01*
D11*
X+7500000Y+1250000D03*
X+7246000Y+1250000D03*
D12*
X+6750000Y+1254000D03*
X+6750000Y+1000000D03*
X+7000000Y+2504000D03*
X+7000000Y+2250000D03*
D13*
X+8766000Y+1250000D03*
X+7750000Y+1250000D03*
D14*
X+8250000Y+1750000D03*
D15*
X+7996000Y+1750000D03*
X+7742000Y+1750000D03*
X+7488000Y+1750000D03*
X+7488000Y+2512000D03*
X+7742000Y+2512000D03*
X+7996000Y+2512000D03*
X+8250000Y+2512000D03*
D12*
X+8000000Y+2750000D03*
X+7746000Y+2750000D03*
X+8504000Y+2750000D03*
X+8250000Y+2750000D03*
X+6500000Y+2000000D03*
X+6500000Y+1746000D03*
X+6766000Y+1750000D03*
X+7020000Y+1750000D03*
D15*
X+6750000Y+2373000D03*
X+6623000Y+2500000D03*
X+6750000Y+2627000D03*
D16*
X+8750000Y+2500000D03*
X+8750000Y+2246000D03*
X+8750000Y+1992000D03*
X+8750000Y+1738000D03*
M02*
