G04 PROTEUS GERBER X2 FILE*
%TF.GenerationSoftware,Labcenter,Proteus,8.11-SP0-Build30052*%
%TF.CreationDate,2022-11-07T16:30:26+00:00*%
%TF.FileFunction,AssemblyDrawing,Top*%
%TF.FilePolarity,Positive*%
%TF.Part,Single*%
%TF.SameCoordinates,{2811b8d5-d4f7-46d7-8bd2-63344e37ddfc}*%
%FSLAX45Y45*%
%MOMM*%
G01*
%TA.AperFunction,Material*%
%ADD27C,0.100000*%
%ADD42C,0.664000*%
%ADD43C,0.875980*%
%ADD28C,0.203200*%
%ADD44C,0.508000*%
%ADD45C,0.155950*%
%ADD46C,0.711200*%
%ADD47C,0.110230*%
%ADD48C,0.302420*%
%ADD49C,0.812800*%
%ADD50C,0.089740*%
%ADD51C,0.133350*%
%ADD52C,0.050800*%
%ADD53C,0.184240*%
%ADD54C,0.111760*%
%ADD55C,0.914400*%
%ADD56C,0.186690*%
%ADD57C,0.180800*%
%ADD58C,0.048680*%
%ADD59C,0.055030*%
%ADD60C,0.780000*%
%ADD61C,0.593260*%
%ADD62C,0.259920*%
%ADD63C,0.190500*%
%ADD64C,0.036680*%
%ADD65C,0.047170*%
%ADD66C,0.082550*%
%ADD67C,0.177800*%
%ADD68C,0.064910*%
%ADD69C,1.219200*%
%ADD74C,0.568960*%
%TA.AperFunction,Profile*%
%ADD26C,0.203200*%
%TD.AperFunction*%
D27*
X-975000Y-1543000D02*
X+1015000Y-1543000D01*
X+1015000Y+2987000D01*
X-975000Y+2987000D01*
X-975000Y-1543000D01*
D42*
X-742000Y+2500000D02*
X-742000Y+2500000D01*
D43*
X+282794Y-1117364D02*
X-242794Y-1117364D01*
X+282794Y-526078D01*
X-242794Y-526078D01*
X+282794Y-328982D02*
X-67598Y-328982D01*
X-242794Y-131887D01*
X-242794Y+65209D01*
X-67598Y+262304D01*
X+282794Y+262304D01*
X+107598Y-328982D02*
X+107598Y+262304D01*
X+282794Y+459400D02*
X-242794Y+459400D01*
X+282794Y+1050686D01*
X-242794Y+1050686D01*
X-67598Y+1247782D02*
X-242794Y+1444877D01*
X-242794Y+1641973D01*
X-67598Y+1839068D01*
X+107598Y+1839068D01*
X+282794Y+1641973D01*
X+282794Y+1444877D01*
X+107598Y+1247782D01*
X-67598Y+1247782D01*
D28*
X-133160Y+3674500D02*
X+395160Y+3674500D01*
X+395160Y+4563500D01*
X-133160Y+4563500D01*
X-133160Y+3674500D01*
D44*
X+258000Y+4500000D02*
X+258000Y+4500000D01*
D45*
X+115405Y+3723650D02*
X+84214Y+3758740D01*
X+84214Y+3793830D01*
X+115405Y+3828920D01*
X+146596Y+3828920D01*
X+177787Y+3793830D01*
X+177787Y+3758740D01*
X+146596Y+3723650D01*
X+115405Y+3723650D01*
X+177787Y+3864010D02*
X+84214Y+3864010D01*
X+84214Y+3951735D01*
X+99809Y+3969280D01*
X+115405Y+3969280D01*
X+131000Y+3951735D01*
X+131000Y+3864010D01*
X+84214Y+4004370D02*
X+84214Y+4109640D01*
X+84214Y+4057005D02*
X+177787Y+4057005D01*
X+115405Y+4144730D02*
X+84214Y+4179820D01*
X+84214Y+4214910D01*
X+115405Y+4250000D01*
X+146596Y+4250000D01*
X+177787Y+4214910D01*
X+177787Y+4179820D01*
X+146596Y+4144730D01*
X+115405Y+4144730D01*
X+115405Y+4320180D02*
X+84214Y+4355270D01*
X+177787Y+4355270D01*
D28*
X+616840Y+3674500D02*
X+1145160Y+3674500D01*
X+1145160Y+4563500D01*
X+616840Y+4563500D01*
X+616840Y+3674500D01*
D44*
X+1008000Y+4500000D02*
X+1008000Y+4500000D01*
D45*
X+865405Y+3723650D02*
X+834214Y+3758740D01*
X+834214Y+3793830D01*
X+865405Y+3828920D01*
X+896596Y+3828920D01*
X+927787Y+3793830D01*
X+927787Y+3758740D01*
X+896596Y+3723650D01*
X+865405Y+3723650D01*
X+927787Y+3864010D02*
X+834214Y+3864010D01*
X+834214Y+3951735D01*
X+849809Y+3969280D01*
X+865405Y+3969280D01*
X+881000Y+3951735D01*
X+881000Y+3864010D01*
X+834214Y+4004370D02*
X+834214Y+4109640D01*
X+834214Y+4057005D02*
X+927787Y+4057005D01*
X+865405Y+4144730D02*
X+834214Y+4179820D01*
X+834214Y+4214910D01*
X+865405Y+4250000D01*
X+896596Y+4250000D01*
X+927787Y+4214910D01*
X+927787Y+4179820D01*
X+896596Y+4144730D01*
X+865405Y+4144730D01*
X+849809Y+4302635D02*
X+834214Y+4320180D01*
X+834214Y+4372815D01*
X+849809Y+4390360D01*
X+865405Y+4390360D01*
X+881000Y+4372815D01*
X+881000Y+4320180D01*
X+896596Y+4302635D01*
X+927787Y+4302635D01*
X+927787Y+4390360D01*
D28*
X+169100Y+4645100D02*
X+346900Y+4645100D01*
X+346900Y+5838900D01*
X+169100Y+5838900D01*
X+169100Y+4645100D01*
D46*
X+258000Y+5750000D02*
X+258000Y+5750000D01*
D47*
X+291071Y+5080558D02*
X+224930Y+5080558D01*
X+224930Y+5142565D01*
X+235953Y+5154967D01*
X+246977Y+5154967D01*
X+258000Y+5142565D01*
X+258000Y+5080558D01*
X+258000Y+5142565D02*
X+269024Y+5154967D01*
X+291071Y+5154967D01*
X+224930Y+5192171D02*
X+224930Y+5254179D01*
X+235953Y+5254179D01*
X+291071Y+5192171D01*
D28*
X-209900Y+3290100D02*
X+983900Y+3290100D01*
X+983900Y+3467900D01*
X-209900Y+3467900D01*
X-209900Y+3290100D01*
D46*
X-121000Y+3379000D02*
X-121000Y+3379000D01*
D47*
X+350018Y+3345929D02*
X+350018Y+3412070D01*
X+412025Y+3412070D01*
X+424427Y+3401047D01*
X+424427Y+3390023D01*
X+412025Y+3379000D01*
X+350018Y+3379000D01*
X+412025Y+3379000D02*
X+424427Y+3367976D01*
X+424427Y+3345929D01*
X+474033Y+3379000D02*
X+461631Y+3390023D01*
X+461631Y+3401047D01*
X+474033Y+3412070D01*
X+511237Y+3412070D01*
X+523639Y+3401047D01*
X+523639Y+3390023D01*
X+511237Y+3379000D01*
X+474033Y+3379000D01*
X+461631Y+3367976D01*
X+461631Y+3356952D01*
X+474033Y+3345929D01*
X+511237Y+3345929D01*
X+523639Y+3356952D01*
X+523639Y+3367976D01*
X+511237Y+3379000D01*
D28*
X-588900Y+3169100D02*
X+604900Y+3169100D01*
X+604900Y+3346900D01*
X-588900Y+3346900D01*
X-588900Y+3169100D01*
D46*
X-500000Y+3258000D02*
X-500000Y+3258000D01*
D47*
X-28982Y+3224929D02*
X-28982Y+3291070D01*
X+33025Y+3291070D01*
X+45427Y+3280047D01*
X+45427Y+3269023D01*
X+33025Y+3258000D01*
X-28982Y+3258000D01*
X+33025Y+3258000D02*
X+45427Y+3246976D01*
X+45427Y+3224929D01*
X+144639Y+3280047D02*
X+132237Y+3291070D01*
X+95033Y+3291070D01*
X+82631Y+3280047D01*
X+82631Y+3235952D01*
X+95033Y+3224929D01*
X+132237Y+3224929D01*
X+144639Y+3235952D01*
X+144639Y+3246976D01*
X+132237Y+3258000D01*
X+82631Y+3258000D01*
D28*
X+919100Y+4645100D02*
X+1096900Y+4645100D01*
X+1096900Y+5838900D01*
X+919100Y+5838900D01*
X+919100Y+4645100D01*
D46*
X+1008000Y+5750000D02*
X+1008000Y+5750000D01*
D47*
X+1041071Y+5080558D02*
X+974930Y+5080558D01*
X+974930Y+5142565D01*
X+985953Y+5154967D01*
X+996977Y+5154967D01*
X+1008000Y+5142565D01*
X+1008000Y+5080558D01*
X+1008000Y+5142565D02*
X+1019024Y+5154967D01*
X+1041071Y+5154967D01*
X+974930Y+5254179D02*
X+974930Y+5192171D01*
X+996977Y+5192171D01*
X+996977Y+5241777D01*
X+1008000Y+5254179D01*
X+1030048Y+5254179D01*
X+1041071Y+5241777D01*
X+1041071Y+5204573D01*
X+1030048Y+5192171D01*
D28*
X+2194500Y+3600840D02*
X+3083500Y+3600840D01*
X+3083500Y+4637160D01*
X+2194500Y+4637160D01*
X+2194500Y+3600840D01*
D44*
X+2258000Y+4500000D02*
X+2258000Y+4500000D01*
D48*
X+2592721Y+3914860D02*
X+2592721Y+3744744D01*
X+2653207Y+3744744D01*
X+2653207Y+3880837D01*
X+2683450Y+3914860D01*
X+2743936Y+3914860D01*
X+2774179Y+3880837D01*
X+2774179Y+3778767D01*
X+2743936Y+3744744D01*
X+2592721Y+4187046D02*
X+2592721Y+4016930D01*
X+2653207Y+4016930D01*
X+2653207Y+4153023D01*
X+2683450Y+4187046D01*
X+2743936Y+4187046D01*
X+2774179Y+4153023D01*
X+2774179Y+4050953D01*
X+2743936Y+4016930D01*
X+2592721Y+4459232D02*
X+2592721Y+4289116D01*
X+2653207Y+4289116D01*
X+2653207Y+4425209D01*
X+2683450Y+4459232D01*
X+2743936Y+4459232D01*
X+2774179Y+4425209D01*
X+2774179Y+4323139D01*
X+2743936Y+4289116D01*
D28*
X-1129160Y+4342840D02*
X-854840Y+4342840D01*
X-854840Y+5887160D01*
X-1129160Y+5887160D01*
X-1129160Y+4342840D01*
D49*
X-992000Y+5750000D02*
X-992000Y+5750000D01*
D50*
X-974050Y+4420318D02*
X-965076Y+4430414D01*
X-965076Y+4470799D01*
X-974050Y+4480896D01*
X-983025Y+4480896D01*
X-992000Y+4470799D01*
X-992000Y+4430414D01*
X-1000974Y+4420318D01*
X-1009949Y+4420318D01*
X-1018923Y+4430414D01*
X-1018923Y+4470799D01*
X-1009949Y+4480896D01*
X-1018923Y+4511185D02*
X-1018923Y+4551570D01*
X-1018923Y+4531378D02*
X-965076Y+4531378D01*
X-965076Y+4511185D02*
X-965076Y+4551570D01*
X-965076Y+4581860D02*
X-1018923Y+4581860D01*
X-992000Y+4612149D01*
X-1018923Y+4642438D01*
X-965076Y+4642438D01*
X-992000Y+4682823D02*
X-1000974Y+4672727D01*
X-1009949Y+4672727D01*
X-1018923Y+4682823D01*
X-1018923Y+4713112D01*
X-1009949Y+4723209D01*
X-1000974Y+4723209D01*
X-992000Y+4713112D01*
X-992000Y+4682823D01*
X-983025Y+4672727D01*
X-974050Y+4672727D01*
X-965076Y+4682823D01*
X-965076Y+4713112D01*
X-974050Y+4723209D01*
X-983025Y+4723209D01*
X-992000Y+4713112D01*
X-974050Y+4743402D02*
X-1009949Y+4743402D01*
X-1018923Y+4753498D01*
X-1018923Y+4793883D01*
X-1009949Y+4803980D01*
X-974050Y+4803980D01*
X-965076Y+4793883D01*
X-965076Y+4753498D01*
X-974050Y+4743402D01*
X-965076Y+4743402D02*
X-1018923Y+4803980D01*
X-974050Y+4824173D02*
X-1009949Y+4824173D01*
X-1018923Y+4834269D01*
X-1018923Y+4874654D01*
X-1009949Y+4884751D01*
X-974050Y+4884751D01*
X-965076Y+4874654D01*
X-965076Y+4834269D01*
X-974050Y+4824173D01*
X-965076Y+4824173D02*
X-1018923Y+4884751D01*
X-1018923Y+4904944D02*
X-965076Y+4904944D01*
X-965076Y+4965522D01*
X-992000Y+4995811D02*
X-992000Y+5046293D01*
X-965076Y+5066486D02*
X-1018923Y+5066486D01*
X-965076Y+5127064D01*
X-1018923Y+5127064D01*
X-965076Y+5147257D02*
X-1000974Y+5147257D01*
X-1018923Y+5167449D01*
X-1018923Y+5187642D01*
X-1000974Y+5207835D01*
X-965076Y+5207835D01*
X-983025Y+5147257D02*
X-983025Y+5207835D01*
X-965076Y+5228028D02*
X-1018923Y+5228028D01*
X-1018923Y+5278509D01*
X-1009949Y+5288606D01*
X-1000974Y+5288606D01*
X-992000Y+5278509D01*
X-992000Y+5228028D01*
X-992000Y+5278509D02*
X-983025Y+5288606D01*
X-965076Y+5288606D01*
X-965076Y+5308799D02*
X-1000974Y+5308799D01*
X-1018923Y+5328991D01*
X-1018923Y+5349184D01*
X-1000974Y+5369377D01*
X-965076Y+5369377D01*
X-983025Y+5308799D02*
X-983025Y+5369377D01*
X-965076Y+5389570D02*
X-1018923Y+5389570D01*
X-965076Y+5450148D01*
X-1018923Y+5450148D01*
X-983025Y+5470341D02*
X-974050Y+5470341D01*
X-965076Y+5480437D01*
X-965076Y+5520822D01*
X-974050Y+5530919D01*
X-1018923Y+5530919D01*
X-965076Y+5551112D02*
X-1000974Y+5551112D01*
X-1018923Y+5571304D01*
X-1018923Y+5591497D01*
X-1000974Y+5611690D01*
X-965076Y+5611690D01*
X-983025Y+5551112D02*
X-983025Y+5611690D01*
D28*
X-1879160Y+4096840D02*
X-1604840Y+4096840D01*
X-1604840Y+5895160D01*
X-1879160Y+5895160D01*
X-1879160Y+4096840D01*
D49*
X-1742000Y+5758000D02*
X-1742000Y+5758000D01*
D51*
X-1715330Y+4187010D02*
X-1701995Y+4202011D01*
X-1701995Y+4262019D01*
X-1715330Y+4277021D01*
X-1728665Y+4277021D01*
X-1742000Y+4262019D01*
X-1742000Y+4202011D01*
X-1755335Y+4187010D01*
X-1768670Y+4187010D01*
X-1782005Y+4202011D01*
X-1782005Y+4262019D01*
X-1768670Y+4277021D01*
X-1782005Y+4322026D02*
X-1782005Y+4382034D01*
X-1782005Y+4352030D02*
X-1701995Y+4352030D01*
X-1701995Y+4322026D02*
X-1701995Y+4382034D01*
X-1701995Y+4427040D02*
X-1782005Y+4427040D01*
X-1742000Y+4472045D01*
X-1782005Y+4517051D01*
X-1701995Y+4517051D01*
X-1742000Y+4577058D02*
X-1755335Y+4562056D01*
X-1768670Y+4562056D01*
X-1782005Y+4577058D01*
X-1782005Y+4622064D01*
X-1768670Y+4637066D01*
X-1755335Y+4637066D01*
X-1742000Y+4622064D01*
X-1742000Y+4577058D01*
X-1728665Y+4562056D01*
X-1715330Y+4562056D01*
X-1701995Y+4577058D01*
X-1701995Y+4622064D01*
X-1715330Y+4637066D01*
X-1728665Y+4637066D01*
X-1742000Y+4622064D01*
X-1715330Y+4667070D02*
X-1768670Y+4667070D01*
X-1782005Y+4682071D01*
X-1782005Y+4742079D01*
X-1768670Y+4757081D01*
X-1715330Y+4757081D01*
X-1701995Y+4742079D01*
X-1701995Y+4682071D01*
X-1715330Y+4667070D01*
X-1701995Y+4667070D02*
X-1782005Y+4757081D01*
X-1715330Y+4787085D02*
X-1768670Y+4787085D01*
X-1782005Y+4802086D01*
X-1782005Y+4862094D01*
X-1768670Y+4877096D01*
X-1715330Y+4877096D01*
X-1701995Y+4862094D01*
X-1701995Y+4802086D01*
X-1715330Y+4787085D01*
X-1701995Y+4787085D02*
X-1782005Y+4877096D01*
X-1782005Y+4907100D02*
X-1701995Y+4907100D01*
X-1701995Y+4997111D01*
X-1742000Y+5042116D02*
X-1742000Y+5117126D01*
X-1701995Y+5147130D02*
X-1755335Y+5147130D01*
X-1782005Y+5177133D01*
X-1782005Y+5207137D01*
X-1755335Y+5237141D01*
X-1701995Y+5237141D01*
X-1728665Y+5147130D02*
X-1728665Y+5237141D01*
X-1782005Y+5267145D02*
X-1782005Y+5357156D01*
X-1701995Y+5267145D01*
X-1701995Y+5357156D01*
X-1782005Y+5387160D02*
X-1715330Y+5387160D01*
X-1701995Y+5402161D01*
X-1701995Y+5462169D01*
X-1715330Y+5477171D01*
X-1782005Y+5477171D01*
X-1782005Y+5507175D02*
X-1701995Y+5507175D01*
X-1701995Y+5597186D01*
D28*
X+3419100Y+3661100D02*
X+3596900Y+3661100D01*
X+3596900Y+4854900D01*
X+3419100Y+4854900D01*
X+3419100Y+3661100D01*
D46*
X+3508000Y+3750000D02*
X+3508000Y+3750000D01*
D47*
X+3541071Y+4221018D02*
X+3474930Y+4221018D01*
X+3474930Y+4283025D01*
X+3485953Y+4295427D01*
X+3496977Y+4295427D01*
X+3508000Y+4283025D01*
X+3508000Y+4221018D01*
X+3508000Y+4283025D02*
X+3519024Y+4295427D01*
X+3541071Y+4295427D01*
X+3496977Y+4345033D02*
X+3474930Y+4369836D01*
X+3541071Y+4369836D01*
D28*
X+2403100Y+3161100D02*
X+3596900Y+3161100D01*
X+3596900Y+3338900D01*
X+2403100Y+3338900D01*
X+2403100Y+3161100D01*
D46*
X+2492000Y+3250000D02*
X+2492000Y+3250000D01*
D47*
X+2963018Y+3216929D02*
X+2963018Y+3283070D01*
X+3025025Y+3283070D01*
X+3037427Y+3272047D01*
X+3037427Y+3261023D01*
X+3025025Y+3250000D01*
X+2963018Y+3250000D01*
X+3025025Y+3250000D02*
X+3037427Y+3238976D01*
X+3037427Y+3216929D01*
X+3074631Y+3272047D02*
X+3087033Y+3283070D01*
X+3124237Y+3283070D01*
X+3136639Y+3272047D01*
X+3136639Y+3261023D01*
X+3124237Y+3250000D01*
X+3087033Y+3250000D01*
X+3074631Y+3238976D01*
X+3074631Y+3216929D01*
X+3136639Y+3216929D01*
D52*
X+2041980Y+4376080D02*
X+2041062Y+4398894D01*
X+2033609Y+4444523D01*
X+2018062Y+4490152D01*
X+1992820Y+4535781D01*
X+1954278Y+4581311D01*
X+1908649Y+4616807D01*
X+1863020Y+4639927D01*
X+1817391Y+4653780D01*
X+1771762Y+4659726D01*
X+1758000Y+4660060D01*
X+1474020Y+4376080D02*
X+1474938Y+4398894D01*
X+1482391Y+4444523D01*
X+1497938Y+4490152D01*
X+1523180Y+4535781D01*
X+1561722Y+4581311D01*
X+1607351Y+4616807D01*
X+1652980Y+4639927D01*
X+1698609Y+4653780D01*
X+1744238Y+4659726D01*
X+1758000Y+4660060D01*
X+1474020Y+4376080D02*
X+1474938Y+4353266D01*
X+1482391Y+4307637D01*
X+1497938Y+4262008D01*
X+1523180Y+4216379D01*
X+1561722Y+4170849D01*
X+1607351Y+4135353D01*
X+1652980Y+4112233D01*
X+1698609Y+4098380D01*
X+1744238Y+4092434D01*
X+1758000Y+4092100D01*
X+2041980Y+4376080D02*
X+2041062Y+4353266D01*
X+2033609Y+4307637D01*
X+2018062Y+4262008D01*
X+1992820Y+4216379D01*
X+1954278Y+4170849D01*
X+1908649Y+4135353D01*
X+1863020Y+4112233D01*
X+1817391Y+4098380D01*
X+1771762Y+4092434D01*
X+1758000Y+4092100D01*
D49*
X+1758000Y+4504000D02*
X+1758000Y+4504000D01*
D53*
X+1716546Y+4239612D02*
X+1695819Y+4221188D01*
X+1633638Y+4221188D01*
X+1592184Y+4258036D01*
X+1592184Y+4294884D01*
X+1633638Y+4331732D01*
X+1695819Y+4331732D01*
X+1716546Y+4313308D01*
X+1778727Y+4313308D02*
X+1799454Y+4331732D01*
X+1861635Y+4331732D01*
X+1882362Y+4313308D01*
X+1882362Y+4294884D01*
X+1861635Y+4276460D01*
X+1799454Y+4276460D01*
X+1778727Y+4258036D01*
X+1778727Y+4221188D01*
X+1882362Y+4221188D01*
D28*
X+2870840Y+2612840D02*
X+3145160Y+2612840D01*
X+3145160Y+3141160D01*
X+2870840Y+3141160D01*
X+2870840Y+2612840D01*
D46*
X+3008000Y+2750000D02*
X+3008000Y+2750000D01*
D54*
X+3030352Y+2938214D02*
X+3041528Y+2925641D01*
X+3041528Y+2887922D01*
X+3019176Y+2862776D01*
X+2996824Y+2862776D01*
X+2974472Y+2887922D01*
X+2974472Y+2925641D01*
X+2985648Y+2938214D01*
X+2985648Y+2975933D02*
X+2974472Y+2988506D01*
X+2974472Y+3026225D01*
X+2985648Y+3038798D01*
X+2996824Y+3038798D01*
X+3008000Y+3026225D01*
X+3019176Y+3038798D01*
X+3030352Y+3038798D01*
X+3041528Y+3026225D01*
X+3041528Y+2988506D01*
X+3030352Y+2975933D01*
X+3008000Y+3001079D02*
X+3008000Y+3026225D01*
D28*
X+1615760Y+2619700D02*
X+1902780Y+2619700D01*
X+1902780Y+3864300D01*
X+1615760Y+3864300D01*
X+1615760Y+2619700D01*
D55*
X+1758000Y+3750000D02*
X+1758000Y+3750000D01*
D56*
X+1815277Y+2993969D02*
X+1703263Y+2993969D01*
X+1703263Y+3077979D01*
X+1740601Y+3119984D01*
X+1777939Y+3119984D01*
X+1815277Y+3077979D01*
X+1815277Y+2993969D01*
X+1740601Y+3203995D02*
X+1703263Y+3246000D01*
X+1815277Y+3246000D01*
D28*
X+1616840Y+1951440D02*
X+2145160Y+1951440D01*
X+2145160Y+2514160D01*
X+1616840Y+2514160D01*
X+1616840Y+1951440D01*
D44*
X+1754000Y+2250000D02*
X+1754000Y+2250000D01*
D57*
X+1944200Y+2070080D02*
X+1908040Y+2110760D01*
X+1908040Y+2151440D01*
X+1944200Y+2192120D01*
X+1980360Y+2192120D01*
X+2016520Y+2151440D01*
X+2016520Y+2110760D01*
X+1980360Y+2070080D01*
X+1944200Y+2070080D01*
X+1980360Y+2151440D02*
X+2016520Y+2192120D01*
X+1944200Y+2273480D02*
X+1908040Y+2314160D01*
X+2016520Y+2314160D01*
D28*
X+1411100Y+1669100D02*
X+2604900Y+1669100D01*
X+2604900Y+1846900D01*
X+1411100Y+1846900D01*
X+1411100Y+1669100D01*
D46*
X+1500000Y+1758000D02*
X+1500000Y+1758000D01*
D47*
X+1971018Y+1724929D02*
X+1971018Y+1791070D01*
X+2033025Y+1791070D01*
X+2045427Y+1780047D01*
X+2045427Y+1769023D01*
X+2033025Y+1758000D01*
X+1971018Y+1758000D01*
X+2033025Y+1758000D02*
X+2045427Y+1746976D01*
X+2045427Y+1724929D01*
X+2082631Y+1780047D02*
X+2095033Y+1791070D01*
X+2132237Y+1791070D01*
X+2144639Y+1780047D01*
X+2144639Y+1769023D01*
X+2132237Y+1758000D01*
X+2144639Y+1746976D01*
X+2144639Y+1735952D01*
X+2132237Y+1724929D01*
X+2095033Y+1724929D01*
X+2082631Y+1735952D01*
X+2107434Y+1758000D02*
X+2132237Y+1758000D01*
D28*
X+1419100Y+1411100D02*
X+2612900Y+1411100D01*
X+2612900Y+1588900D01*
X+1419100Y+1588900D01*
X+1419100Y+1411100D01*
D46*
X+1508000Y+1500000D02*
X+1508000Y+1500000D01*
D47*
X+1979018Y+1466929D02*
X+1979018Y+1533070D01*
X+2041025Y+1533070D01*
X+2053427Y+1522047D01*
X+2053427Y+1511023D01*
X+2041025Y+1500000D01*
X+1979018Y+1500000D01*
X+2041025Y+1500000D02*
X+2053427Y+1488976D01*
X+2053427Y+1466929D01*
X+2152639Y+1488976D02*
X+2078230Y+1488976D01*
X+2127836Y+1533070D01*
X+2127836Y+1466929D01*
D28*
X+2370840Y+862840D02*
X+2645160Y+862840D01*
X+2645160Y+1391160D01*
X+2370840Y+1391160D01*
X+2370840Y+862840D01*
D46*
X+2508000Y+1254000D02*
X+2508000Y+1254000D01*
D54*
X+2530352Y+1015494D02*
X+2541528Y+1002921D01*
X+2541528Y+965202D01*
X+2519176Y+940056D01*
X+2496824Y+940056D01*
X+2474472Y+965202D01*
X+2474472Y+1002921D01*
X+2485648Y+1015494D01*
X+2496824Y+1065786D02*
X+2474472Y+1090932D01*
X+2541528Y+1090932D01*
D28*
X+1608840Y-137160D02*
X+2391160Y-137160D01*
X+2391160Y+137160D01*
X+1608840Y+137160D01*
X+1608840Y-137160D01*
D49*
X+1746000Y+0D02*
X+1746000Y+0D01*
D58*
X+1826016Y-9737D02*
X+1831492Y-14605D01*
X+1853399Y-14605D01*
X+1858876Y-9737D01*
X+1858876Y-4868D01*
X+1853399Y+0D01*
X+1831492Y+0D01*
X+1826016Y+4868D01*
X+1826016Y+9737D01*
X+1831492Y+14605D01*
X+1853399Y+14605D01*
X+1858876Y+9737D01*
X+1886260Y-9737D02*
X+1891737Y-9737D01*
X+1891737Y-14605D01*
X+1886260Y-14605D01*
X+1886260Y-9737D01*
X+1913644Y-9737D02*
X+1919120Y-14605D01*
X+1941027Y-14605D01*
X+1946504Y-9737D01*
X+1946504Y-4868D01*
X+1941027Y+0D01*
X+1919120Y+0D01*
X+1913644Y+4868D01*
X+1913644Y+9737D01*
X+1919120Y+14605D01*
X+1941027Y+14605D01*
X+1946504Y+9737D01*
X+1990318Y-14605D02*
X+1957458Y-14605D01*
X+1957458Y+14605D01*
X+1990318Y+14605D01*
X+1957458Y+0D02*
X+1979365Y+0D01*
X+2023179Y-4868D02*
X+2034132Y-4868D01*
X+2034132Y-14605D01*
X+2012225Y-14605D01*
X+2001272Y-4868D01*
X+2001272Y+4868D01*
X+2012225Y+14605D01*
X+2028655Y+14605D01*
X+2034132Y+9737D01*
X+2045086Y+14605D02*
X+2045086Y-9737D01*
X+2050562Y-14605D01*
X+2072469Y-14605D01*
X+2077946Y-9737D01*
X+2077946Y+14605D01*
X+2088900Y-14605D02*
X+2088900Y+14605D01*
X+2116283Y+14605D01*
X+2121760Y+9737D01*
X+2121760Y+4868D01*
X+2116283Y+0D01*
X+2088900Y+0D01*
X+2116283Y+0D02*
X+2121760Y-4868D01*
X+2121760Y-14605D01*
X+2138190Y+14605D02*
X+2160097Y+14605D01*
X+2149144Y+14605D02*
X+2149144Y-14605D01*
X+2138190Y-14605D02*
X+2160097Y-14605D01*
X+2176528Y-14605D02*
X+2176528Y+14605D01*
X+2198435Y+14605D01*
X+2209388Y+4868D01*
X+2209388Y-4868D01*
X+2198435Y-14605D01*
X+2176528Y-14605D01*
X+2220342Y-14605D02*
X+2220342Y+4868D01*
X+2231295Y+14605D01*
X+2242249Y+14605D01*
X+2253202Y+4868D01*
X+2253202Y-14605D01*
X+2220342Y-4868D02*
X+2253202Y-4868D01*
X+2264156Y-14605D02*
X+2264156Y+14605D01*
X+2286063Y+14605D01*
X+2297016Y+4868D01*
X+2297016Y-4868D01*
X+2286063Y-14605D01*
X+2264156Y-14605D01*
X+2313446Y+9737D02*
X+2318923Y+14605D01*
X+2335353Y+14605D01*
X+2340830Y+9737D01*
X+2340830Y+4868D01*
X+2335353Y+0D01*
X+2318923Y+0D01*
X+2313446Y-4868D01*
X+2313446Y-14605D01*
X+2340830Y-14605D01*
D28*
X-137160Y+5362840D02*
X+137160Y+5362840D01*
X+137160Y+5891160D01*
X-137160Y+5891160D01*
X-137160Y+5362840D01*
D49*
X+0Y+5754000D02*
X+0Y+5754000D01*
D47*
X+22014Y+5389512D02*
X+33020Y+5401894D01*
X+33020Y+5451423D01*
X+22014Y+5463806D01*
X+11007Y+5463806D01*
X+0Y+5451423D01*
X+0Y+5401894D01*
X-11006Y+5389512D01*
X-22013Y+5389512D01*
X-33019Y+5401894D01*
X-33019Y+5451423D01*
X-22013Y+5463806D01*
X+33020Y+5562865D02*
X+33020Y+5488571D01*
X-33019Y+5488571D01*
X-33019Y+5562865D01*
X+0Y+5488571D02*
X+0Y+5538100D01*
X+11007Y+5637159D02*
X+11007Y+5661924D01*
X+33020Y+5661924D01*
X+33020Y+5612394D01*
X+11007Y+5587630D01*
X-11006Y+5587630D01*
X-33019Y+5612394D01*
X-33019Y+5649541D01*
X-22013Y+5661924D01*
D28*
X+1620840Y+5612840D02*
X+2149160Y+5612840D01*
X+2149160Y+5887160D01*
X+1620840Y+5887160D01*
X+1620840Y+5612840D01*
D49*
X+1758000Y+5750000D02*
X+1758000Y+5750000D01*
D59*
X+1825313Y+5733490D02*
X+1825313Y+5766510D01*
X+1862459Y+5766510D01*
X+1825313Y+5750000D02*
X+1850077Y+5750000D01*
X+1874842Y+5766510D02*
X+1874842Y+5738993D01*
X+1881033Y+5733490D01*
X+1905797Y+5733490D01*
X+1911988Y+5738993D01*
X+1911988Y+5766510D01*
X+1961517Y+5733490D02*
X+1924371Y+5733490D01*
X+1924371Y+5766510D01*
X+1961517Y+5766510D01*
X+1924371Y+5750000D02*
X+1949135Y+5750000D01*
X+1973900Y+5733490D02*
X+1973900Y+5766510D01*
X+2011046Y+5733490D01*
X+2011046Y+5766510D01*
X+2023429Y+5766510D02*
X+2060575Y+5766510D01*
X+2042002Y+5766510D02*
X+2042002Y+5733490D01*
X+2110104Y+5733490D02*
X+2072958Y+5733490D01*
X+2072958Y+5766510D01*
X+2110104Y+5766510D01*
X+2072958Y+5750000D02*
X+2097722Y+5750000D01*
D27*
X-7152000Y+4288000D02*
X-5002000Y+4288000D01*
X-5002000Y+6012000D01*
X-7152000Y+6012000D01*
X-7152000Y+4288000D01*
D60*
X-5462000Y+5750000D02*
X-5462000Y+5750000D01*
D61*
X-6877913Y+4819019D02*
X-6877913Y+5174981D01*
X-6544200Y+5174981D01*
X-6477457Y+5115654D01*
X-6477457Y+5056327D01*
X-6544200Y+4997000D01*
X-6877913Y+4997000D01*
X-6544200Y+4997000D02*
X-6477457Y+4937673D01*
X-6477457Y+4819019D01*
X-6210486Y+5056327D02*
X-6077000Y+5174981D01*
X-6077000Y+4819019D01*
X-5810029Y+4878346D02*
X-5810029Y+5115654D01*
X-5743287Y+5174981D01*
X-5476316Y+5174981D01*
X-5409573Y+5115654D01*
X-5409573Y+4878346D01*
X-5476316Y+4819019D01*
X-5743287Y+4819019D01*
X-5810029Y+4878346D01*
X-5810029Y+4819019D02*
X-5409573Y+5174981D01*
D27*
X-7152000Y+2538000D02*
X-5002000Y+2538000D01*
X-5002000Y+4262000D01*
X-7152000Y+4262000D01*
X-7152000Y+2538000D01*
D60*
X-5462000Y+4000000D02*
X-5462000Y+4000000D01*
D61*
X-6877913Y+3069019D02*
X-6877913Y+3424981D01*
X-6544200Y+3424981D01*
X-6477457Y+3365654D01*
X-6477457Y+3306327D01*
X-6544200Y+3247000D01*
X-6877913Y+3247000D01*
X-6544200Y+3247000D02*
X-6477457Y+3187673D01*
X-6477457Y+3069019D01*
X-6210486Y+3306327D02*
X-6077000Y+3424981D01*
X-6077000Y+3069019D01*
X-5743287Y+3365654D02*
X-5676544Y+3424981D01*
X-5476316Y+3424981D01*
X-5409573Y+3365654D01*
X-5409573Y+3306327D01*
X-5476316Y+3247000D01*
X-5676544Y+3247000D01*
X-5743287Y+3187673D01*
X-5743287Y+3069019D01*
X-5409573Y+3069019D01*
D27*
X-7152000Y+788000D02*
X-5002000Y+788000D01*
X-5002000Y+2512000D01*
X-7152000Y+2512000D01*
X-7152000Y+788000D01*
D60*
X-5462000Y+2250000D02*
X-5462000Y+2250000D01*
D61*
X-6877913Y+1319019D02*
X-6877913Y+1674981D01*
X-6544200Y+1674981D01*
X-6477457Y+1615654D01*
X-6477457Y+1556327D01*
X-6544200Y+1497000D01*
X-6877913Y+1497000D01*
X-6544200Y+1497000D02*
X-6477457Y+1437673D01*
X-6477457Y+1319019D01*
X-6210486Y+1556327D02*
X-6077000Y+1674981D01*
X-6077000Y+1319019D01*
X-5409573Y+1437673D02*
X-5810029Y+1437673D01*
X-5543058Y+1674981D01*
X-5543058Y+1319019D01*
D27*
X-7152000Y-962000D02*
X-5002000Y-962000D01*
X-5002000Y+762000D01*
X-7152000Y+762000D01*
X-7152000Y-962000D01*
D60*
X-5462000Y+500000D02*
X-5462000Y+500000D01*
D61*
X-6877913Y-430981D02*
X-6877913Y-75019D01*
X-6544200Y-75019D01*
X-6477457Y-134346D01*
X-6477457Y-193673D01*
X-6544200Y-253000D01*
X-6877913Y-253000D01*
X-6544200Y-253000D02*
X-6477457Y-312327D01*
X-6477457Y-430981D01*
X-6210486Y-193673D02*
X-6077000Y-75019D01*
X-6077000Y-430981D01*
X-5409573Y-134346D02*
X-5476316Y-75019D01*
X-5676544Y-75019D01*
X-5743287Y-134346D01*
X-5743287Y-371654D01*
X-5676544Y-430981D01*
X-5476316Y-430981D01*
X-5409573Y-371654D01*
X-5409573Y-312327D01*
X-5476316Y-253000D01*
X-5743287Y-253000D01*
D27*
X-7152000Y-2712000D02*
X-5002000Y-2712000D01*
X-5002000Y-988000D01*
X-7152000Y-988000D01*
X-7152000Y-2712000D01*
D60*
X-5462000Y-1250000D02*
X-5462000Y-1250000D01*
D61*
X-6877913Y-2180981D02*
X-6877913Y-1825019D01*
X-6544200Y-1825019D01*
X-6477457Y-1884346D01*
X-6477457Y-1943673D01*
X-6544200Y-2003000D01*
X-6877913Y-2003000D01*
X-6544200Y-2003000D02*
X-6477457Y-2062327D01*
X-6477457Y-2180981D01*
X-6210486Y-1943673D02*
X-6077000Y-1825019D01*
X-6077000Y-2180981D01*
X-5676544Y-2003000D02*
X-5743287Y-1943673D01*
X-5743287Y-1884346D01*
X-5676544Y-1825019D01*
X-5476316Y-1825019D01*
X-5409573Y-1884346D01*
X-5409573Y-1943673D01*
X-5476316Y-2003000D01*
X-5676544Y-2003000D01*
X-5743287Y-2062327D01*
X-5743287Y-2121654D01*
X-5676544Y-2180981D01*
X-5476316Y-2180981D01*
X-5409573Y-2121654D01*
X-5409573Y-2062327D01*
X-5476316Y-2003000D01*
D28*
X-3387160Y+4416500D02*
X-2858840Y+4416500D01*
X-2858840Y+5305500D01*
X-3387160Y+5305500D01*
X-3387160Y+4416500D01*
D44*
X-3250000Y+4480000D02*
X-3250000Y+4480000D01*
D62*
X-3200977Y+4671517D02*
X-3071014Y+4671517D01*
X-3045022Y+4700758D01*
X-3045022Y+4817725D01*
X-3071014Y+4846966D01*
X-3200977Y+4846966D01*
X-3148992Y+4963933D02*
X-3200977Y+5022416D01*
X-3045022Y+5022416D01*
D28*
X-3637160Y+2666500D02*
X-3108840Y+2666500D01*
X-3108840Y+3555500D01*
X-3637160Y+3555500D01*
X-3637160Y+2666500D01*
D44*
X-3500000Y+2730000D02*
X-3500000Y+2730000D01*
D62*
X-3450977Y+2921517D02*
X-3321014Y+2921517D01*
X-3295022Y+2950758D01*
X-3295022Y+3067725D01*
X-3321014Y+3096966D01*
X-3450977Y+3096966D01*
X-3424985Y+3184691D02*
X-3450977Y+3213933D01*
X-3450977Y+3301658D01*
X-3424985Y+3330899D01*
X-3398992Y+3330899D01*
X-3373000Y+3301658D01*
X-3373000Y+3213933D01*
X-3347007Y+3184691D01*
X-3295022Y+3184691D01*
X-3295022Y+3330899D01*
D28*
X-3633160Y+896500D02*
X-3104840Y+896500D01*
X-3104840Y+1785500D01*
X-3633160Y+1785500D01*
X-3633160Y+896500D01*
D44*
X-3496000Y+960000D02*
X-3496000Y+960000D01*
D62*
X-3446977Y+1151517D02*
X-3317014Y+1151517D01*
X-3291022Y+1180758D01*
X-3291022Y+1297725D01*
X-3317014Y+1326966D01*
X-3446977Y+1326966D01*
X-3420985Y+1414691D02*
X-3446977Y+1443933D01*
X-3446977Y+1531658D01*
X-3420985Y+1560899D01*
X-3394992Y+1560899D01*
X-3369000Y+1531658D01*
X-3343007Y+1560899D01*
X-3317014Y+1560899D01*
X-3291022Y+1531658D01*
X-3291022Y+1443933D01*
X-3317014Y+1414691D01*
X-3369000Y+1473174D02*
X-3369000Y+1531658D01*
D28*
X-3637160Y-833500D02*
X-3108840Y-833500D01*
X-3108840Y+55500D01*
X-3637160Y+55500D01*
X-3637160Y-833500D01*
D44*
X-3500000Y-770000D02*
X-3500000Y-770000D01*
D62*
X-3450977Y-578483D02*
X-3321014Y-578483D01*
X-3295022Y-549242D01*
X-3295022Y-432275D01*
X-3321014Y-403034D01*
X-3450977Y-403034D01*
X-3347007Y-169101D02*
X-3347007Y-344550D01*
X-3450977Y-227584D01*
X-3295022Y-227584D01*
D28*
X-3637160Y-2591500D02*
X-3108840Y-2591500D01*
X-3108840Y-1702500D01*
X-3637160Y-1702500D01*
X-3637160Y-2591500D01*
D44*
X-3500000Y-2528000D02*
X-3500000Y-2528000D01*
D62*
X-3450977Y-2336483D02*
X-3321014Y-2336483D01*
X-3295022Y-2307242D01*
X-3295022Y-2190275D01*
X-3321014Y-2161034D01*
X-3450977Y-2161034D01*
X-3450977Y-1927101D02*
X-3450977Y-2073309D01*
X-3398992Y-2073309D01*
X-3398992Y-1956342D01*
X-3373000Y-1927101D01*
X-3321014Y-1927101D01*
X-3295022Y-1956342D01*
X-3295022Y-2044067D01*
X-3321014Y-2073309D01*
D28*
X-2588900Y+4653100D02*
X-2411100Y+4653100D01*
X-2411100Y+5846900D01*
X-2588900Y+5846900D01*
X-2588900Y+4653100D01*
D46*
X-2500000Y+5758000D02*
X-2500000Y+5758000D01*
D47*
X-2466929Y+5088558D02*
X-2533070Y+5088558D01*
X-2533070Y+5150565D01*
X-2522047Y+5162967D01*
X-2511023Y+5162967D01*
X-2500000Y+5150565D01*
X-2500000Y+5088558D01*
X-2500000Y+5150565D02*
X-2488976Y+5162967D01*
X-2466929Y+5162967D01*
X-2511023Y+5262179D02*
X-2500000Y+5249777D01*
X-2500000Y+5212573D01*
X-2511023Y+5200171D01*
X-2522047Y+5200171D01*
X-2533070Y+5212573D01*
X-2533070Y+5249777D01*
X-2522047Y+5262179D01*
X-2477952Y+5262179D01*
X-2466929Y+5249777D01*
X-2466929Y+5212573D01*
D28*
X-3846900Y+3911100D02*
X-2653100Y+3911100D01*
X-2653100Y+4088900D01*
X-3846900Y+4088900D01*
X-3846900Y+3911100D01*
D46*
X-3758000Y+4000000D02*
X-3758000Y+4000000D01*
D47*
X-3336588Y+3966929D02*
X-3336588Y+4033070D01*
X-3274581Y+4033070D01*
X-3262179Y+4022047D01*
X-3262179Y+4011023D01*
X-3274581Y+4000000D01*
X-3336588Y+4000000D01*
X-3274581Y+4000000D02*
X-3262179Y+3988976D01*
X-3262179Y+3966929D01*
X-3212573Y+4011023D02*
X-3187770Y+4033070D01*
X-3187770Y+3966929D01*
X-3113361Y+4011023D02*
X-3088558Y+4033070D01*
X-3088558Y+3966929D01*
D28*
X-3846900Y+2161100D02*
X-2653100Y+2161100D01*
X-2653100Y+2338900D01*
X-3846900Y+2338900D01*
X-3846900Y+2161100D01*
D46*
X-3758000Y+2250000D02*
X-3758000Y+2250000D01*
D47*
X-3336588Y+2216929D02*
X-3336588Y+2283070D01*
X-3274581Y+2283070D01*
X-3262179Y+2272047D01*
X-3262179Y+2261023D01*
X-3274581Y+2250000D01*
X-3336588Y+2250000D01*
X-3274581Y+2250000D02*
X-3262179Y+2238976D01*
X-3262179Y+2216929D01*
X-3212573Y+2261023D02*
X-3187770Y+2283070D01*
X-3187770Y+2216929D01*
X-3125763Y+2272047D02*
X-3113361Y+2283070D01*
X-3076157Y+2283070D01*
X-3063755Y+2272047D01*
X-3063755Y+2261023D01*
X-3076157Y+2250000D01*
X-3063755Y+2238976D01*
X-3063755Y+2227952D01*
X-3076157Y+2216929D01*
X-3113361Y+2216929D01*
X-3125763Y+2227952D01*
X-3100960Y+2250000D02*
X-3076157Y+2250000D01*
D28*
X-3862900Y+411100D02*
X-2669100Y+411100D01*
X-2669100Y+588900D01*
X-3862900Y+588900D01*
X-3862900Y+411100D01*
D46*
X-3774000Y+500000D02*
X-3774000Y+500000D01*
D47*
X-3352588Y+466929D02*
X-3352588Y+533070D01*
X-3290581Y+533070D01*
X-3278179Y+522047D01*
X-3278179Y+511023D01*
X-3290581Y+500000D01*
X-3352588Y+500000D01*
X-3290581Y+500000D02*
X-3278179Y+488976D01*
X-3278179Y+466929D01*
X-3228573Y+511023D02*
X-3203770Y+533070D01*
X-3203770Y+466929D01*
X-3079755Y+533070D02*
X-3141763Y+533070D01*
X-3141763Y+511023D01*
X-3092157Y+511023D01*
X-3079755Y+500000D01*
X-3079755Y+477952D01*
X-3092157Y+466929D01*
X-3129361Y+466929D01*
X-3141763Y+477952D01*
D28*
X-3862900Y-1338900D02*
X-2669100Y-1338900D01*
X-2669100Y-1161100D01*
X-3862900Y-1161100D01*
X-3862900Y-1338900D01*
D46*
X-3774000Y-1250000D02*
X-3774000Y-1250000D01*
D47*
X-3352588Y-1283071D02*
X-3352588Y-1216930D01*
X-3290581Y-1216930D01*
X-3278179Y-1227953D01*
X-3278179Y-1238977D01*
X-3290581Y-1250000D01*
X-3352588Y-1250000D01*
X-3290581Y-1250000D02*
X-3278179Y-1261024D01*
X-3278179Y-1283071D01*
X-3228573Y-1238977D02*
X-3203770Y-1216930D01*
X-3203770Y-1283071D01*
X-3141763Y-1216930D02*
X-3079755Y-1216930D01*
X-3079755Y-1227953D01*
X-3141763Y-1283071D01*
D28*
X-4884240Y+4619700D02*
X-4597220Y+4619700D01*
X-4597220Y+5864300D01*
X-4884240Y+5864300D01*
X-4884240Y+4619700D01*
D55*
X-4742000Y+5750000D02*
X-4742000Y+5750000D01*
D56*
X-4684723Y+4993969D02*
X-4796737Y+4993969D01*
X-4796737Y+5077979D01*
X-4759399Y+5119984D01*
X-4722061Y+5119984D01*
X-4684723Y+5077979D01*
X-4684723Y+4993969D01*
X-4778068Y+5182992D02*
X-4796737Y+5203995D01*
X-4796737Y+5267003D01*
X-4778068Y+5288005D01*
X-4759399Y+5288005D01*
X-4740730Y+5267003D01*
X-4722061Y+5288005D01*
X-4703392Y+5288005D01*
X-4684723Y+5267003D01*
X-4684723Y+5203995D01*
X-4703392Y+5182992D01*
X-4740730Y+5224997D02*
X-4740730Y+5267003D01*
D28*
X-4884240Y+2869700D02*
X-4597220Y+2869700D01*
X-4597220Y+4114300D01*
X-4884240Y+4114300D01*
X-4884240Y+2869700D01*
D55*
X-4742000Y+4000000D02*
X-4742000Y+4000000D01*
D56*
X-4684723Y+3243969D02*
X-4796737Y+3243969D01*
X-4796737Y+3327979D01*
X-4759399Y+3369984D01*
X-4722061Y+3369984D01*
X-4684723Y+3327979D01*
X-4684723Y+3243969D01*
X-4796737Y+3538005D02*
X-4796737Y+3432992D01*
X-4759399Y+3432992D01*
X-4759399Y+3517003D01*
X-4740730Y+3538005D01*
X-4703392Y+3538005D01*
X-4684723Y+3517003D01*
X-4684723Y+3453995D01*
X-4703392Y+3432992D01*
D28*
X-4884240Y+1119700D02*
X-4597220Y+1119700D01*
X-4597220Y+2364300D01*
X-4884240Y+2364300D01*
X-4884240Y+1119700D01*
D55*
X-4742000Y+2250000D02*
X-4742000Y+2250000D01*
D56*
X-4684723Y+1493969D02*
X-4796737Y+1493969D01*
X-4796737Y+1577979D01*
X-4759399Y+1619984D01*
X-4722061Y+1619984D01*
X-4684723Y+1577979D01*
X-4684723Y+1493969D01*
X-4796737Y+1682992D02*
X-4796737Y+1788005D01*
X-4778068Y+1788005D01*
X-4684723Y+1682992D01*
D28*
X-4884240Y-630300D02*
X-4597220Y-630300D01*
X-4597220Y+614300D01*
X-4884240Y+614300D01*
X-4884240Y-630300D01*
D55*
X-4742000Y+500000D02*
X-4742000Y+500000D01*
D56*
X-4684723Y-256031D02*
X-4796737Y-256031D01*
X-4796737Y-172021D01*
X-4759399Y-130016D01*
X-4722061Y-130016D01*
X-4684723Y-172021D01*
X-4684723Y-256031D01*
X-4759399Y+38005D02*
X-4740730Y+17003D01*
X-4740730Y-46005D01*
X-4759399Y-67008D01*
X-4778068Y-67008D01*
X-4796737Y-46005D01*
X-4796737Y+17003D01*
X-4778068Y+38005D01*
X-4703392Y+38005D01*
X-4684723Y+17003D01*
X-4684723Y-46005D01*
D28*
X-4884240Y-2380300D02*
X-4597220Y-2380300D01*
X-4597220Y-1135700D01*
X-4884240Y-1135700D01*
X-4884240Y-2380300D01*
D55*
X-4742000Y-1250000D02*
X-4742000Y-1250000D01*
D56*
X-4684723Y-2090041D02*
X-4796737Y-2090041D01*
X-4796737Y-2006031D01*
X-4759399Y-1964026D01*
X-4722061Y-1964026D01*
X-4684723Y-2006031D01*
X-4684723Y-2090041D01*
X-4759399Y-1880015D02*
X-4796737Y-1838010D01*
X-4684723Y-1838010D01*
X-4759399Y-1711994D02*
X-4796737Y-1669989D01*
X-4684723Y-1669989D01*
D28*
X-2700660Y+3743840D02*
X-2108840Y+3743840D01*
X-2108840Y+4335660D01*
X-2700660Y+4335660D01*
X-2700660Y+3743840D01*
D49*
X-2246000Y+4008000D02*
X-2246000Y+4008000D01*
D63*
X-2436500Y+3868300D02*
X-2550800Y+3868300D01*
X-2550800Y+3954025D01*
X-2512700Y+3996887D01*
X-2474600Y+3996887D01*
X-2436500Y+3954025D01*
X-2436500Y+3868300D01*
X-2531750Y+4061181D02*
X-2550800Y+4082612D01*
X-2550800Y+4146906D01*
X-2531750Y+4168337D01*
X-2512700Y+4168337D01*
X-2493650Y+4146906D01*
X-2493650Y+4082612D01*
X-2474600Y+4061181D01*
X-2436500Y+4061181D01*
X-2436500Y+4168337D01*
D28*
X-2704660Y+2985840D02*
X-2112840Y+2985840D01*
X-2112840Y+3577660D01*
X-2704660Y+3577660D01*
X-2704660Y+2985840D01*
D49*
X-2250000Y+3250000D02*
X-2250000Y+3250000D01*
D63*
X-2440500Y+3110300D02*
X-2554800Y+3110300D01*
X-2554800Y+3196025D01*
X-2516700Y+3238887D01*
X-2478600Y+3238887D01*
X-2440500Y+3196025D01*
X-2440500Y+3110300D01*
X-2478600Y+3410337D02*
X-2478600Y+3281750D01*
X-2554800Y+3367475D01*
X-2440500Y+3367475D01*
D28*
X-2704660Y+1235840D02*
X-2112840Y+1235840D01*
X-2112840Y+1827660D01*
X-2704660Y+1827660D01*
X-2704660Y+1235840D01*
D49*
X-2250000Y+1500000D02*
X-2250000Y+1500000D01*
D63*
X-2440500Y+1360300D02*
X-2554800Y+1360300D01*
X-2554800Y+1446025D01*
X-2516700Y+1488887D01*
X-2478600Y+1488887D01*
X-2440500Y+1446025D01*
X-2440500Y+1360300D01*
X-2535750Y+1660337D02*
X-2554800Y+1638906D01*
X-2554800Y+1574612D01*
X-2535750Y+1553181D01*
X-2459550Y+1553181D01*
X-2440500Y+1574612D01*
X-2440500Y+1638906D01*
X-2459550Y+1660337D01*
X-2478600Y+1660337D01*
X-2497650Y+1638906D01*
X-2497650Y+1553181D01*
D28*
X-2700660Y-506160D02*
X-2108840Y-506160D01*
X-2108840Y+85660D01*
X-2700660Y+85660D01*
X-2700660Y-506160D01*
D49*
X-2246000Y-242000D02*
X-2246000Y-242000D01*
D63*
X-2436500Y-381700D02*
X-2550800Y-381700D01*
X-2550800Y-295975D01*
X-2512700Y-253113D01*
X-2474600Y-253113D01*
X-2436500Y-295975D01*
X-2436500Y-381700D01*
X-2493650Y-167388D02*
X-2512700Y-188819D01*
X-2531750Y-188819D01*
X-2550800Y-167388D01*
X-2550800Y-103094D01*
X-2531750Y-81663D01*
X-2512700Y-81663D01*
X-2493650Y-103094D01*
X-2493650Y-167388D01*
X-2474600Y-188819D01*
X-2455550Y-188819D01*
X-2436500Y-167388D01*
X-2436500Y-103094D01*
X-2455550Y-81663D01*
X-2474600Y-81663D01*
X-2493650Y-103094D01*
D28*
X-2704660Y-2264160D02*
X-2112840Y-2264160D01*
X-2112840Y-1672340D01*
X-2704660Y-1672340D01*
X-2704660Y-2264160D01*
D49*
X-2250000Y-2000000D02*
X-2250000Y-2000000D01*
D63*
X-2440500Y-2225425D02*
X-2554800Y-2225425D01*
X-2554800Y-2139700D01*
X-2516700Y-2096838D01*
X-2478600Y-2096838D01*
X-2440500Y-2139700D01*
X-2440500Y-2225425D01*
X-2516700Y-2011113D02*
X-2554800Y-1968250D01*
X-2440500Y-1968250D01*
X-2459550Y-1882525D02*
X-2535750Y-1882525D01*
X-2554800Y-1861094D01*
X-2554800Y-1775369D01*
X-2535750Y-1753938D01*
X-2459550Y-1753938D01*
X-2440500Y-1775369D01*
X-2440500Y-1861094D01*
X-2459550Y-1882525D01*
X-2440500Y-1882525D02*
X-2554800Y-1753938D01*
D28*
X+3116840Y+5612840D02*
X+3645160Y+5612840D01*
X+3645160Y+5887160D01*
X+3116840Y+5887160D01*
X+3116840Y+5612840D01*
D49*
X+3508000Y+5750000D02*
X+3508000Y+5750000D01*
D64*
X+3168279Y+5738993D02*
X+3143515Y+5738993D01*
X+3143515Y+5761006D01*
X+3168279Y+5761006D01*
X+3143515Y+5750000D02*
X+3160024Y+5750000D01*
X+3176534Y+5738993D02*
X+3176534Y+5761006D01*
X+3201298Y+5738993D01*
X+3201298Y+5761006D01*
X+3234317Y+5742662D02*
X+3230189Y+5738993D01*
X+3217807Y+5738993D01*
X+3209553Y+5746331D01*
X+3209553Y+5753668D01*
X+3217807Y+5761006D01*
X+3230189Y+5761006D01*
X+3234317Y+5757337D01*
X+3267336Y+5738993D02*
X+3242572Y+5738993D01*
X+3242572Y+5761006D01*
X+3267336Y+5761006D01*
X+3242572Y+5750000D02*
X+3259081Y+5750000D01*
X+3275591Y+5738993D02*
X+3275591Y+5761006D01*
X+3300355Y+5738993D01*
X+3300355Y+5761006D01*
X+3308610Y+5738993D02*
X+3308610Y+5761006D01*
X+3325119Y+5761006D01*
X+3333374Y+5753668D01*
X+3333374Y+5746331D01*
X+3325119Y+5738993D01*
X+3308610Y+5738993D01*
X+3345756Y+5761006D02*
X+3362265Y+5761006D01*
X+3354011Y+5761006D02*
X+3354011Y+5738993D01*
X+3345756Y+5738993D02*
X+3362265Y+5738993D01*
X+3374648Y+5738993D02*
X+3374648Y+5761006D01*
X+3391157Y+5761006D01*
X+3399412Y+5753668D01*
X+3399412Y+5746331D01*
X+3391157Y+5738993D01*
X+3374648Y+5738993D01*
X+3407667Y+5753668D02*
X+3415921Y+5761006D01*
X+3424176Y+5761006D01*
X+3432431Y+5753668D01*
X+3432431Y+5746331D01*
X+3424176Y+5738993D01*
X+3415921Y+5738993D01*
X+3407667Y+5746331D01*
X+3407667Y+5753668D01*
D28*
X+3124840Y+5112840D02*
X+3653160Y+5112840D01*
X+3653160Y+5387160D01*
X+3124840Y+5387160D01*
X+3124840Y+5112840D01*
D49*
X+3516000Y+5250000D02*
X+3516000Y+5250000D01*
D65*
X+3151515Y+5264151D02*
X+3151515Y+5235849D01*
X+3183354Y+5235849D01*
X+3225807Y+5235849D02*
X+3193968Y+5235849D01*
X+3193968Y+5264151D01*
X+3225807Y+5264151D01*
X+3193968Y+5250000D02*
X+3215194Y+5250000D01*
X+3236421Y+5235849D02*
X+3236421Y+5264151D01*
X+3257647Y+5264151D01*
X+3268260Y+5254717D01*
X+3268260Y+5245283D01*
X+3257647Y+5235849D01*
X+3236421Y+5235849D01*
X+3284180Y+5250000D02*
X+3310713Y+5250000D01*
X+3353166Y+5235849D02*
X+3321327Y+5235849D01*
X+3321327Y+5264151D01*
X+3353166Y+5264151D01*
X+3321327Y+5250000D02*
X+3342553Y+5250000D01*
X+3363780Y+5235849D02*
X+3363780Y+5264151D01*
X+3395619Y+5235849D01*
X+3395619Y+5264151D01*
X+3438072Y+5240566D02*
X+3432766Y+5235849D01*
X+3416846Y+5235849D01*
X+3406233Y+5245283D01*
X+3406233Y+5254717D01*
X+3416846Y+5264151D01*
X+3432766Y+5264151D01*
X+3438072Y+5259434D01*
D28*
X+1653100Y+5161100D02*
X+2846900Y+5161100D01*
X+2846900Y+5338900D01*
X+1653100Y+5338900D01*
X+1653100Y+5161100D01*
D46*
X+2758000Y+5250000D02*
X+2758000Y+5250000D01*
D47*
X+2038952Y+5216929D02*
X+2038952Y+5283070D01*
X+2100959Y+5283070D01*
X+2113361Y+5272047D01*
X+2113361Y+5261023D01*
X+2100959Y+5250000D01*
X+2038952Y+5250000D01*
X+2100959Y+5250000D02*
X+2113361Y+5238976D01*
X+2113361Y+5216929D01*
X+2162967Y+5261023D02*
X+2187770Y+5283070D01*
X+2187770Y+5216929D01*
X+2311785Y+5261023D02*
X+2299383Y+5250000D01*
X+2262179Y+5250000D01*
X+2249777Y+5261023D01*
X+2249777Y+5272047D01*
X+2262179Y+5283070D01*
X+2299383Y+5283070D01*
X+2311785Y+5272047D01*
X+2311785Y+5227952D01*
X+2299383Y+5216929D01*
X+2262179Y+5216929D01*
D28*
X+620840Y+5354840D02*
X+895160Y+5354840D01*
X+895160Y+5883160D01*
X+620840Y+5883160D01*
X+620840Y+5354840D01*
D49*
X+758000Y+5492000D02*
X+758000Y+5492000D01*
D66*
X+774510Y+5615031D02*
X+782765Y+5605744D01*
X+782765Y+5577883D01*
X+766255Y+5559310D01*
X+749745Y+5559310D01*
X+733235Y+5577883D01*
X+733235Y+5605744D01*
X+741490Y+5615031D01*
X+749745Y+5633605D02*
X+733235Y+5652178D01*
X+733235Y+5670752D01*
X+749745Y+5689326D01*
X+766255Y+5689326D01*
X+782765Y+5670752D01*
X+782765Y+5652178D01*
X+766255Y+5633605D01*
X+749745Y+5633605D01*
X+782765Y+5707900D02*
X+733235Y+5707900D01*
X+733235Y+5754334D01*
X+741490Y+5763621D01*
X+749745Y+5763621D01*
X+758000Y+5754334D01*
X+758000Y+5707900D01*
X+758000Y+5754334D02*
X+766255Y+5763621D01*
X+782765Y+5763621D01*
X+782765Y+5782195D02*
X+733235Y+5782195D01*
X+733235Y+5828629D01*
X+741490Y+5837916D01*
X+749745Y+5837916D01*
X+758000Y+5828629D01*
X+758000Y+5782195D01*
X+758000Y+5828629D02*
X+766255Y+5837916D01*
X+782765Y+5837916D01*
D28*
X-4354900Y+5419100D02*
X-3161100Y+5419100D01*
X-3161100Y+5596900D01*
X-4354900Y+5596900D01*
X-4354900Y+5419100D01*
D46*
X-3250000Y+5508000D02*
X-3250000Y+5508000D01*
D47*
X-3969048Y+5474929D02*
X-3969048Y+5541070D01*
X-3907041Y+5541070D01*
X-3894639Y+5530047D01*
X-3894639Y+5519023D01*
X-3907041Y+5508000D01*
X-3969048Y+5508000D01*
X-3907041Y+5508000D02*
X-3894639Y+5496976D01*
X-3894639Y+5474929D01*
X-3857435Y+5530047D02*
X-3845033Y+5541070D01*
X-3807829Y+5541070D01*
X-3795427Y+5530047D01*
X-3795427Y+5519023D01*
X-3807829Y+5508000D01*
X-3845033Y+5508000D01*
X-3857435Y+5496976D01*
X-3857435Y+5474929D01*
X-3795427Y+5474929D01*
X-3770624Y+5485952D02*
X-3770624Y+5530047D01*
X-3758223Y+5541070D01*
X-3708617Y+5541070D01*
X-3696215Y+5530047D01*
X-3696215Y+5485952D01*
X-3708617Y+5474929D01*
X-3758223Y+5474929D01*
X-3770624Y+5485952D01*
X-3770624Y+5474929D02*
X-3696215Y+5541070D01*
D28*
X-4506160Y+2985840D02*
X-3977840Y+2985840D01*
X-3977840Y+3548560D01*
X-4506160Y+3548560D01*
X-4506160Y+2985840D01*
D44*
X-4115000Y+3250000D02*
X-4115000Y+3250000D01*
D57*
X-4341360Y+3104480D02*
X-4377520Y+3145160D01*
X-4377520Y+3185840D01*
X-4341360Y+3226520D01*
X-4305200Y+3226520D01*
X-4269040Y+3185840D01*
X-4269040Y+3145160D01*
X-4305200Y+3104480D01*
X-4341360Y+3104480D01*
X-4305200Y+3185840D02*
X-4269040Y+3226520D01*
X-4359440Y+3287540D02*
X-4377520Y+3307880D01*
X-4377520Y+3368900D01*
X-4359440Y+3389240D01*
X-4341360Y+3389240D01*
X-4323280Y+3368900D01*
X-4305200Y+3389240D01*
X-4287120Y+3389240D01*
X-4269040Y+3368900D01*
X-4269040Y+3307880D01*
X-4287120Y+3287540D01*
X-4323280Y+3328220D02*
X-4323280Y+3368900D01*
D28*
X-4330900Y+3661100D02*
X-3137100Y+3661100D01*
X-3137100Y+3838900D01*
X-4330900Y+3838900D01*
X-4330900Y+3661100D01*
D46*
X-3226000Y+3750000D02*
X-3226000Y+3750000D01*
D47*
X-3945048Y+3716929D02*
X-3945048Y+3783070D01*
X-3883041Y+3783070D01*
X-3870639Y+3772047D01*
X-3870639Y+3761023D01*
X-3883041Y+3750000D01*
X-3945048Y+3750000D01*
X-3883041Y+3750000D02*
X-3870639Y+3738976D01*
X-3870639Y+3716929D01*
X-3833435Y+3772047D02*
X-3821033Y+3783070D01*
X-3783829Y+3783070D01*
X-3771427Y+3772047D01*
X-3771427Y+3761023D01*
X-3783829Y+3750000D01*
X-3821033Y+3750000D01*
X-3833435Y+3738976D01*
X-3833435Y+3716929D01*
X-3771427Y+3716929D01*
X-3721821Y+3761023D02*
X-3697018Y+3783070D01*
X-3697018Y+3716929D01*
D28*
X-4506160Y+1235840D02*
X-3977840Y+1235840D01*
X-3977840Y+1798560D01*
X-4506160Y+1798560D01*
X-4506160Y+1235840D01*
D44*
X-4115000Y+1500000D02*
X-4115000Y+1500000D01*
D57*
X-4341360Y+1354480D02*
X-4377520Y+1395160D01*
X-4377520Y+1435840D01*
X-4341360Y+1476520D01*
X-4305200Y+1476520D01*
X-4269040Y+1435840D01*
X-4269040Y+1395160D01*
X-4305200Y+1354480D01*
X-4341360Y+1354480D01*
X-4305200Y+1435840D02*
X-4269040Y+1476520D01*
X-4305200Y+1639240D02*
X-4305200Y+1517200D01*
X-4377520Y+1598560D01*
X-4269040Y+1598560D01*
D28*
X-4346900Y+1911100D02*
X-3153100Y+1911100D01*
X-3153100Y+2088900D01*
X-4346900Y+2088900D01*
X-4346900Y+1911100D01*
D46*
X-3242000Y+2000000D02*
X-3242000Y+2000000D01*
D47*
X-3961048Y+1966929D02*
X-3961048Y+2033070D01*
X-3899041Y+2033070D01*
X-3886639Y+2022047D01*
X-3886639Y+2011023D01*
X-3899041Y+2000000D01*
X-3961048Y+2000000D01*
X-3899041Y+2000000D02*
X-3886639Y+1988976D01*
X-3886639Y+1966929D01*
X-3849435Y+2022047D02*
X-3837033Y+2033070D01*
X-3799829Y+2033070D01*
X-3787427Y+2022047D01*
X-3787427Y+2011023D01*
X-3799829Y+2000000D01*
X-3837033Y+2000000D01*
X-3849435Y+1988976D01*
X-3849435Y+1966929D01*
X-3787427Y+1966929D01*
X-3750223Y+2022047D02*
X-3737821Y+2033070D01*
X-3700617Y+2033070D01*
X-3688215Y+2022047D01*
X-3688215Y+2011023D01*
X-3700617Y+2000000D01*
X-3737821Y+2000000D01*
X-3750223Y+1988976D01*
X-3750223Y+1966929D01*
X-3688215Y+1966929D01*
D28*
X-4506160Y-514160D02*
X-3977840Y-514160D01*
X-3977840Y+48560D01*
X-4506160Y+48560D01*
X-4506160Y-514160D01*
D44*
X-4115000Y-250000D02*
X-4115000Y-250000D01*
D57*
X-4341360Y-395520D02*
X-4377520Y-354840D01*
X-4377520Y-314160D01*
X-4341360Y-273480D01*
X-4305200Y-273480D01*
X-4269040Y-314160D01*
X-4269040Y-354840D01*
X-4305200Y-395520D01*
X-4341360Y-395520D01*
X-4305200Y-314160D02*
X-4269040Y-273480D01*
X-4377520Y-110760D02*
X-4377520Y-212460D01*
X-4341360Y-212460D01*
X-4341360Y-131100D01*
X-4323280Y-110760D01*
X-4287120Y-110760D01*
X-4269040Y-131100D01*
X-4269040Y-192120D01*
X-4287120Y-212460D01*
D28*
X-4346900Y+161100D02*
X-3153100Y+161100D01*
X-3153100Y+338900D01*
X-4346900Y+338900D01*
X-4346900Y+161100D01*
D46*
X-3242000Y+250000D02*
X-3242000Y+250000D01*
D47*
X-3961048Y+216929D02*
X-3961048Y+283070D01*
X-3899041Y+283070D01*
X-3886639Y+272047D01*
X-3886639Y+261023D01*
X-3899041Y+250000D01*
X-3961048Y+250000D01*
X-3899041Y+250000D02*
X-3886639Y+238976D01*
X-3886639Y+216929D01*
X-3849435Y+272047D02*
X-3837033Y+283070D01*
X-3799829Y+283070D01*
X-3787427Y+272047D01*
X-3787427Y+261023D01*
X-3799829Y+250000D01*
X-3837033Y+250000D01*
X-3849435Y+238976D01*
X-3849435Y+216929D01*
X-3787427Y+216929D01*
X-3750223Y+272047D02*
X-3737821Y+283070D01*
X-3700617Y+283070D01*
X-3688215Y+272047D01*
X-3688215Y+261023D01*
X-3700617Y+250000D01*
X-3688215Y+238976D01*
X-3688215Y+227952D01*
X-3700617Y+216929D01*
X-3737821Y+216929D01*
X-3750223Y+227952D01*
X-3725420Y+250000D02*
X-3700617Y+250000D01*
D28*
X-4506160Y-2264160D02*
X-3977840Y-2264160D01*
X-3977840Y-1701440D01*
X-4506160Y-1701440D01*
X-4506160Y-2264160D01*
D44*
X-4115000Y-2000000D02*
X-4115000Y-2000000D01*
D57*
X-4341360Y-2145520D02*
X-4377520Y-2104840D01*
X-4377520Y-2064160D01*
X-4341360Y-2023480D01*
X-4305200Y-2023480D01*
X-4269040Y-2064160D01*
X-4269040Y-2104840D01*
X-4305200Y-2145520D01*
X-4341360Y-2145520D01*
X-4305200Y-2064160D02*
X-4269040Y-2023480D01*
X-4359440Y-1860760D02*
X-4377520Y-1881100D01*
X-4377520Y-1942120D01*
X-4359440Y-1962460D01*
X-4287120Y-1962460D01*
X-4269040Y-1942120D01*
X-4269040Y-1881100D01*
X-4287120Y-1860760D01*
X-4305200Y-1860760D01*
X-4323280Y-1881100D01*
X-4323280Y-1962460D01*
D28*
X-4604900Y-1588900D02*
X-3411100Y-1588900D01*
X-3411100Y-1411100D01*
X-4604900Y-1411100D01*
X-4604900Y-1588900D01*
D46*
X-3500000Y-1500000D02*
X-3500000Y-1500000D01*
D47*
X-4219048Y-1533071D02*
X-4219048Y-1466930D01*
X-4157041Y-1466930D01*
X-4144639Y-1477953D01*
X-4144639Y-1488977D01*
X-4157041Y-1500000D01*
X-4219048Y-1500000D01*
X-4157041Y-1500000D02*
X-4144639Y-1511024D01*
X-4144639Y-1533071D01*
X-4107435Y-1477953D02*
X-4095033Y-1466930D01*
X-4057829Y-1466930D01*
X-4045427Y-1477953D01*
X-4045427Y-1488977D01*
X-4057829Y-1500000D01*
X-4095033Y-1500000D01*
X-4107435Y-1511024D01*
X-4107435Y-1533071D01*
X-4045427Y-1533071D01*
X-3946215Y-1511024D02*
X-4020624Y-1511024D01*
X-3971018Y-1466930D01*
X-3971018Y-1533071D01*
D28*
X-9379160Y+3862840D02*
X-8596840Y+3862840D01*
X-8596840Y+4137160D01*
X-9379160Y+4137160D01*
X-9379160Y+3862840D01*
D49*
X-9242000Y+4000000D02*
X-9242000Y+4000000D01*
D67*
X-9059120Y+3982220D02*
X-9059120Y+3964440D01*
X-9039118Y+3946660D01*
X-8959108Y+3946660D01*
X-8939105Y+3964440D01*
X-8939105Y+4053340D01*
X-8879098Y+4035560D02*
X-8859095Y+4053340D01*
X-8799088Y+4053340D01*
X-8779085Y+4035560D01*
X-8779085Y+4017780D01*
X-8799088Y+4000000D01*
X-8859095Y+4000000D01*
X-8879098Y+3982220D01*
X-8879098Y+3946660D01*
X-8779085Y+3946660D01*
D28*
X-8379160Y+4862840D02*
X-7596840Y+4862840D01*
X-7596840Y+5137160D01*
X-8379160Y+5137160D01*
X-8379160Y+4862840D01*
D49*
X-7734000Y+5000000D02*
X-7734000Y+5000000D01*
D67*
X-8236920Y+4982220D02*
X-8236920Y+4964440D01*
X-8216918Y+4946660D01*
X-8136908Y+4946660D01*
X-8116905Y+4964440D01*
X-8116905Y+5053340D01*
X-8056898Y+5035560D02*
X-8036895Y+5053340D01*
X-7976888Y+5053340D01*
X-7956885Y+5035560D01*
X-7956885Y+5017780D01*
X-7976888Y+5000000D01*
X-7956885Y+4982220D01*
X-7956885Y+4964440D01*
X-7976888Y+4946660D01*
X-8036895Y+4946660D01*
X-8056898Y+4964440D01*
X-8016893Y+5000000D02*
X-7976888Y+5000000D01*
D28*
X+1608840Y-1137160D02*
X+2391160Y-1137160D01*
X+2391160Y-862840D01*
X+1608840Y-862840D01*
X+1608840Y-1137160D01*
D49*
X+1746000Y-1000000D02*
X+1746000Y-1000000D01*
D68*
X+1826015Y-1012982D02*
X+1833317Y-1019473D01*
X+1862526Y-1019473D01*
X+1869829Y-1012982D01*
X+1869829Y-1006491D01*
X+1862526Y-1000000D01*
X+1833317Y-1000000D01*
X+1826015Y-993509D01*
X+1826015Y-987018D01*
X+1833317Y-980527D01*
X+1862526Y-980527D01*
X+1869829Y-987018D01*
X+1906341Y-1012982D02*
X+1913643Y-1012982D01*
X+1913643Y-1019473D01*
X+1906341Y-1019473D01*
X+1906341Y-1012982D01*
X+1942853Y-1019473D02*
X+1942853Y-980527D01*
X+1979364Y-980527D01*
X+1986667Y-987018D01*
X+1986667Y-993509D01*
X+1979364Y-1000000D01*
X+1942853Y-1000000D01*
X+2001272Y-1019473D02*
X+2001272Y-980527D01*
X+2037783Y-980527D01*
X+2045086Y-987018D01*
X+2045086Y-993509D01*
X+2037783Y-1000000D01*
X+2001272Y-1000000D01*
X+2037783Y-1000000D02*
X+2045086Y-1006491D01*
X+2045086Y-1019473D01*
X+2103505Y-1019473D02*
X+2059691Y-1019473D01*
X+2059691Y-980527D01*
X+2103505Y-980527D01*
X+2059691Y-1000000D02*
X+2088900Y-1000000D01*
X+2118110Y-1012982D02*
X+2125412Y-1019473D01*
X+2154621Y-1019473D01*
X+2161924Y-1012982D01*
X+2161924Y-1006491D01*
X+2154621Y-1000000D01*
X+2125412Y-1000000D01*
X+2118110Y-993509D01*
X+2118110Y-987018D01*
X+2125412Y-980527D01*
X+2154621Y-980527D01*
X+2161924Y-987018D01*
X+2183831Y-980527D02*
X+2213040Y-980527D01*
X+2198436Y-980527D02*
X+2198436Y-1019473D01*
X+2183831Y-1019473D02*
X+2213040Y-1019473D01*
X+2234948Y-993509D02*
X+2249552Y-980527D01*
X+2264157Y-980527D01*
X+2278762Y-993509D01*
X+2278762Y-1006491D01*
X+2264157Y-1019473D01*
X+2249552Y-1019473D01*
X+2234948Y-1006491D01*
X+2234948Y-993509D01*
X+2293367Y-1019473D02*
X+2293367Y-980527D01*
X+2337181Y-1019473D01*
X+2337181Y-980527D01*
D28*
X-9010160Y-2320160D02*
X-7973840Y-2320160D01*
X-7973840Y+1764160D01*
X-9010160Y+1764160D01*
X-9010160Y-2320160D01*
D69*
X-8492000Y+1500000D02*
X-8492000Y+1500000D01*
D74*
X-8435104Y-952624D02*
X-8378208Y-952624D01*
X-8321312Y-888616D01*
X-8321312Y-632584D01*
X-8378208Y-568576D01*
X-8662688Y-568576D01*
X-8605792Y-56512D02*
X-8662688Y-120520D01*
X-8662688Y-312544D01*
X-8605792Y-376552D01*
X-8378208Y-376552D01*
X-8321312Y-312544D01*
X-8321312Y-120520D01*
X-8378208Y-56512D01*
X-8435104Y-56512D01*
X-8492000Y-120520D01*
X-8492000Y-376552D01*
D28*
X-9383160Y+4862840D02*
X-8600840Y+4862840D01*
X-8600840Y+5137160D01*
X-9383160Y+5137160D01*
X-9383160Y+4862840D01*
D49*
X-9246000Y+5000000D02*
X-9246000Y+5000000D01*
D67*
X-9063120Y+4982220D02*
X-9063120Y+4964440D01*
X-9043118Y+4946660D01*
X-8963108Y+4946660D01*
X-8943105Y+4964440D01*
X-8943105Y+5053340D01*
X-8783085Y+4982220D02*
X-8903100Y+4982220D01*
X-8823090Y+5053340D01*
X-8823090Y+4946660D01*
D28*
X-4506160Y+4485840D02*
X-3977840Y+4485840D01*
X-3977840Y+5048560D01*
X-4506160Y+5048560D01*
X-4506160Y+4485840D01*
D44*
X-4115000Y+4750000D02*
X-4115000Y+4750000D01*
D57*
X-4341360Y+4604480D02*
X-4377520Y+4645160D01*
X-4377520Y+4685840D01*
X-4341360Y+4726520D01*
X-4305200Y+4726520D01*
X-4269040Y+4685840D01*
X-4269040Y+4645160D01*
X-4305200Y+4604480D01*
X-4341360Y+4604480D01*
X-4305200Y+4685840D02*
X-4269040Y+4726520D01*
X-4359440Y+4787540D02*
X-4377520Y+4807880D01*
X-4377520Y+4868900D01*
X-4359440Y+4889240D01*
X-4341360Y+4889240D01*
X-4323280Y+4868900D01*
X-4323280Y+4807880D01*
X-4305200Y+4787540D01*
X-4269040Y+4787540D01*
X-4269040Y+4889240D01*
D28*
X-1887160Y-2637160D02*
X-596840Y-2637160D01*
X-596840Y-2362840D01*
X-1887160Y-2362840D01*
X-1887160Y-2637160D01*
D49*
X-1750000Y-2500000D02*
X-1750000Y-2500000D01*
D67*
X-1313120Y-2517780D02*
X-1273115Y-2517780D01*
X-1273115Y-2553340D01*
X-1353125Y-2553340D01*
X-1393130Y-2517780D01*
X-1393130Y-2482220D01*
X-1353125Y-2446660D01*
X-1293118Y-2446660D01*
X-1273115Y-2464440D01*
X-1233110Y-2553340D02*
X-1233110Y-2446660D01*
X-1133098Y-2446660D01*
X-1113095Y-2464440D01*
X-1113095Y-2482220D01*
X-1133098Y-2500000D01*
X-1233110Y-2500000D01*
X-1073090Y-2535560D02*
X-1053088Y-2553340D01*
X-973078Y-2553340D01*
X-953075Y-2535560D01*
X-953075Y-2517780D01*
X-973078Y-2500000D01*
X-1053088Y-2500000D01*
X-1073090Y-2482220D01*
X-1073090Y-2464440D01*
X-1053088Y-2446660D01*
X-973078Y-2446660D01*
X-953075Y-2464440D01*
D26*
X-9750000Y-3250000D02*
X+5000000Y-3250000D01*
X+5000000Y+6500000D01*
X-9750000Y+6500000D01*
X-9750000Y-3250000D01*
M02*
