G04 PROTEUS GERBER X2 FILE*
%TF.GenerationSoftware,Labcenter,Proteus,8.11-SP0-Build30052*%
%TF.CreationDate,2023-02-02T17:23:59+00:00*%
%TF.FileFunction,Copper,L2,Bot*%
%TF.FilePolarity,Positive*%
%TF.Part,Single*%
%TF.SameCoordinates,{a0c022ff-36d4-4641-b1ff-cdaf5960e4f7}*%
%FSLAX45Y45*%
%MOMM*%
G01*
%TA.AperFunction,Conductor*%
%ADD10C,2.540000*%
%ADD11C,2.286000*%
%ADD12C,2.032000*%
%ADD13C,1.524000*%
%ADD14C,1.778000*%
%TA.AperFunction,ViaPad*%
%ADD15C,0.762000*%
%TA.AperFunction,WasherPad*%
%ADD16R,1.660000X1.660000*%
%TA.AperFunction,ComponentPad*%
%ADD17C,1.660000*%
%ADD18C,2.667000*%
%TA.AperFunction,ComponentPad*%
%ADD19R,1.270000X1.270000*%
%ADD70C,1.270000*%
%TA.AperFunction,ComponentPad*%
%ADD71C,1.778000*%
%TA.AperFunction,ComponentPad*%
%ADD20R,2.032000X2.032000*%
%TA.AperFunction,ComponentPad*%
%ADD21C,2.032000*%
%ADD22C,2.286000*%
%TA.AperFunction,WasherPad*%
%ADD23R,1.950000X1.950000*%
%TA.AperFunction,ComponentPad*%
%ADD24C,1.950000*%
%TA.AperFunction,ComponentPad*%
%ADD25C,3.048000*%
%TA.AperFunction,Profile*%
%ADD26C,0.203200*%
%TD.AperFunction*%
D10*
X-8492000Y-2056000D02*
X-6887049Y-2056000D01*
X-6664117Y-1833068D01*
X-6664117Y-1277883D01*
X-6692000Y-1250000D01*
X-6005598Y-112857D02*
X-5274857Y-112857D01*
X-5262000Y-100000D01*
D11*
X-8492000Y+992000D02*
X-7988000Y+1496000D01*
X-7988000Y+5000000D01*
X-8492000Y+484000D02*
X-8008000Y+484000D01*
X-7742000Y+750000D01*
X-7742000Y+1382791D01*
X-7734000Y+1390791D01*
X-7734000Y+5000000D01*
X-8492000Y+1500000D02*
X-8742000Y+1750000D01*
X-8742000Y+2750000D01*
X-8742000Y+3992000D01*
X-8734000Y+4000000D01*
X-8242000Y+5000000D02*
X-8730000Y+5000000D01*
X-8734000Y+4996000D01*
X-8734000Y+4000000D02*
X-8734000Y+4996000D01*
X-8738000Y+5000000D01*
X-9242000Y+4000000D02*
X-9242000Y+4996000D01*
X-9246000Y+5000000D01*
D10*
X-8492000Y-24000D02*
X-7960122Y-24000D01*
X-7413163Y+522959D01*
X-7413163Y+5028837D01*
X-6692000Y+5750000D01*
X-8492000Y-1548000D02*
X-7432974Y-1548000D01*
X-7072468Y-1187494D01*
X-7072468Y-521266D01*
X-7058588Y-507386D01*
X-6732413Y-181211D01*
X-6690774Y-181211D01*
X-6690774Y+498774D01*
X-6692000Y+500000D01*
X-6692000Y+4000000D02*
X-6894185Y+4000000D01*
X-7081726Y+3812459D01*
X-7081726Y+2410601D01*
X-6935989Y+2264864D01*
X-6706864Y+2264864D01*
X-6692000Y+2250000D01*
D11*
X-9246000Y+5000000D02*
X-9246000Y+5812873D01*
X-8931788Y+6127085D01*
X-6136445Y+6127085D01*
X-6096127Y+6086767D01*
X-5881101Y+5871741D01*
X-5881101Y+5387931D01*
X-5639196Y+5146026D01*
X-5639196Y+5132587D01*
X-5279413Y+5132587D01*
X-5262000Y+5150000D01*
D12*
X-5462000Y+4550000D02*
X-4926000Y+4550000D01*
X-4742000Y+4734000D01*
D13*
X-4369000Y+4750000D02*
X-4726000Y+4750000D01*
X-4742000Y+4734000D01*
D14*
X-5462000Y+5750000D02*
X-4742000Y+5750000D01*
D13*
X-4742000Y+2984000D02*
X-4476000Y+3250000D01*
X-4369000Y+3250000D01*
D14*
X-5462000Y+4000000D02*
X-4742000Y+4000000D01*
D12*
X-1742000Y+4996000D02*
X-1000000Y+4996000D01*
X-992000Y+4988000D01*
X-1742000Y+5758000D02*
X-1392360Y+5758000D01*
X-1130360Y+5496000D01*
X-992000Y+5496000D01*
X-992000Y+4734000D02*
X-1734000Y+4734000D01*
X-1742000Y+4742000D01*
X-5462000Y-2450000D02*
X-4926000Y-2450000D01*
X-4742000Y-2266000D01*
X-5462000Y-700000D02*
X-4921548Y-700000D01*
X-4916211Y-694663D01*
X-4742000Y-520452D01*
X-4742000Y-516000D01*
X-5462000Y+1050000D02*
X-4926000Y+1050000D01*
X-4742000Y+1234000D01*
X-4742000Y+2250000D02*
X-3758000Y+2250000D01*
D13*
X-4742000Y-2266000D02*
X-4476000Y-2000000D01*
X-4369000Y-2000000D01*
X-4742000Y-516000D02*
X-4476000Y-250000D01*
X-4369000Y-250000D01*
D12*
X-4742000Y+500000D02*
X-3774000Y+500000D01*
X-4742000Y-1250000D02*
X-3774000Y-1250000D01*
D13*
X-4242000Y-123000D02*
X-4242000Y+234000D01*
X-4258000Y+250000D01*
X-4742000Y+1234000D02*
X-4483682Y+1492318D01*
X-4432500Y+1492318D01*
X-4369000Y+1500000D01*
X-4242000Y+1627000D02*
X-4242000Y+1984000D01*
X-4258000Y+2000000D01*
D14*
X-2246000Y-242000D02*
X-1790580Y+213420D01*
X-1090904Y+213420D01*
X-742580Y+213420D01*
X-742000Y+214000D01*
X-2250000Y+1500000D02*
X-2250000Y+987420D01*
X-1713613Y+451033D01*
X-758967Y+451033D01*
X-742000Y+468000D01*
X-2250000Y-2000000D02*
X-2250000Y-752442D01*
X-1540430Y-42872D01*
X-744872Y-42872D01*
X-742000Y-40000D01*
D13*
X-4242000Y+3750000D02*
X-4242000Y+3392155D01*
X-4238686Y+3388841D01*
X-4242000Y+3377000D01*
D14*
X-2250000Y+3250000D02*
X-2250000Y+2003368D01*
X-1852626Y+1605994D01*
X-1852626Y+998789D01*
X-1826969Y+973132D01*
X-1570403Y+716566D01*
X-1561852Y+716566D01*
X-747434Y+716566D01*
X-742000Y+722000D01*
X-742000Y+1230000D02*
X-1136501Y+1230000D01*
X-1314134Y+1407633D01*
X-1314134Y+3570671D01*
X-658940Y+4225865D01*
X-658940Y+4658940D01*
X-750000Y+4750000D01*
X-976000Y+4750000D01*
X-992000Y+4734000D01*
X-742000Y+1484000D02*
X-986613Y+1484000D01*
X-1062826Y+1560213D01*
X-1062826Y+3525795D01*
X-434559Y+4154062D01*
X-434559Y+4647703D01*
X-455740Y+4668884D01*
X-455740Y+4743107D01*
X-700633Y+4988000D01*
X-992000Y+4988000D01*
X+758000Y+5746000D02*
X+1004000Y+5746000D01*
X+1008000Y+5750000D01*
X+758000Y+5492000D02*
X+1742000Y+5492000D01*
X+1742000Y+5250000D02*
X+1742000Y+5492000D01*
X+1742000Y+5734000D01*
X+1758000Y+5750000D01*
X+1008000Y+4734000D02*
X+1008000Y+4500000D01*
X+0Y+5500000D02*
X+750000Y+5500000D01*
X+758000Y+5492000D01*
X+0Y+5754000D02*
X+254000Y+5754000D01*
X+258000Y+5750000D01*
D13*
X+258000Y+4734000D02*
X+258000Y+4500000D01*
D14*
X+258000Y+3738000D02*
X+258000Y+3927554D01*
X+290223Y+3959777D01*
D13*
X+1008000Y+3738000D02*
X+1008000Y+3858045D01*
X+906268Y+3959777D01*
X+290223Y+3959777D01*
X+250000Y+4000000D01*
X-24851Y+4000000D01*
X-174180Y+4149329D01*
X-183657Y+4149329D01*
X-183657Y+4933657D01*
X-750000Y+5500000D01*
X-988000Y+5500000D01*
X-992000Y+5496000D01*
D14*
X+758000Y+5492000D02*
X+758000Y+4504000D01*
X+754000Y+4500000D01*
D13*
X+4000Y+4500000D02*
X+4000Y+4426075D01*
X+167015Y+4263060D01*
X+631417Y+4263060D01*
X+754000Y+4385643D01*
X+754000Y+4500000D01*
X+1758000Y+4504000D02*
X+2115403Y+4504000D01*
X+2138358Y+4481045D01*
X+2239045Y+4481045D01*
X+2258000Y+4500000D01*
X+1758000Y+4250000D02*
X+2056642Y+4250000D01*
X+2062537Y+4244105D01*
X+2256105Y+4244105D01*
X+2258000Y+4246000D01*
X+1758000Y+4504000D02*
X+1758000Y+5234000D01*
X+1742000Y+5250000D01*
X+1758000Y+3750000D02*
X+2000000Y+3992000D01*
X+2000000Y+4000000D01*
X+2250000Y+4000000D01*
X+2258000Y+3992000D01*
X+782000Y+2500000D02*
X+1067163Y+2500000D01*
X+1323283Y+2756120D01*
X+1323283Y+3447986D01*
X+1967986Y+3447986D01*
X+2258000Y+3738000D01*
D14*
X+2012000Y+5750000D02*
X+3254000Y+5750000D01*
X+2758000Y+5250000D02*
X+3262000Y+5250000D01*
X+3508000Y+5750000D02*
X+3508000Y+5258000D01*
X+3516000Y+5250000D01*
D13*
X+3020000Y+4246000D02*
X+3407760Y+4246000D01*
X+3524062Y+4129698D01*
X+3524062Y+3766062D01*
X+3508000Y+3750000D01*
X+3008000Y+3004000D02*
X+3008000Y+3726000D01*
X+3020000Y+3738000D01*
X+2258000Y+4246000D02*
X+2571562Y+4246000D01*
X+2766000Y+4246000D01*
X+3020000Y+3992000D01*
D14*
X+2524000Y+1500000D02*
X+2524000Y+1270000D01*
X+2508000Y+1254000D01*
D13*
X+1750000Y+2246000D02*
X+1754000Y+2250000D01*
X+782000Y+468000D02*
X+1323706Y+468000D01*
X+1635706Y+780000D01*
X+2288000Y+780000D01*
X+2508000Y+1000000D01*
X+1500000Y+1758000D02*
X+1748725Y+1758000D01*
X+1897174Y+1906449D01*
X+1897174Y+2106826D01*
X+1881000Y+2123000D01*
X+1508000Y+1500000D02*
X+1346522Y+1500000D01*
X+1262174Y+1584348D01*
X+1262174Y+2246000D01*
X+782000Y+2246000D02*
X+1262174Y+2246000D01*
D14*
X+2000000Y+0D02*
X+2000000Y+294349D01*
X+1906377Y+387972D01*
X+1513085Y+387972D01*
X+1085113Y-40000D01*
X+782000Y-40000D01*
X+2254000Y+0D02*
X+3000000Y+746000D01*
X+3000000Y+2000000D01*
X+3000000Y+2742000D01*
X+3008000Y+2750000D01*
X+2065943Y+2750000D01*
X+1815943Y+3000000D01*
X+1683914Y+3000000D01*
X+1547464Y+2863550D01*
X+1547464Y+2846752D01*
X+1529400Y+2828688D01*
X+1529400Y+2264064D01*
X+1547464Y+2246000D01*
D13*
X+1262174Y+2246000D02*
X+1547464Y+2246000D01*
X+1750000Y+2246000D01*
X-5462000Y-1250000D02*
X-5506409Y-1250000D01*
X-5708681Y-1047728D01*
X-5708681Y-591832D01*
X-5541208Y-424359D01*
X-5085311Y-424359D01*
X-4750366Y-89414D01*
X-4750366Y+500000D01*
D12*
X-5462000Y+500000D02*
X-5000000Y+500000D01*
X-4750366Y+500000D01*
X-4742000Y+500000D01*
D10*
X-8492000Y-532000D02*
X-8825531Y-865531D01*
X-8825531Y-2517765D01*
X-8490586Y-2852710D01*
X-6434395Y-2852710D01*
X-6019038Y-2437353D01*
X-6019038Y-1750000D01*
X-6019038Y-1456772D01*
X-5262000Y-1850000D02*
X-5919038Y-1850000D01*
X-6019038Y-1750000D01*
D11*
X-8492000Y-532000D02*
X-9242000Y+218000D01*
X-9242000Y+4000000D01*
D14*
X-5462000Y+2800000D02*
X-4923430Y+2800000D01*
X-4917715Y+2794285D01*
X-4742000Y+2970000D01*
X-4742000Y+2984000D01*
D10*
X-8492000Y-1040000D02*
X-7726593Y-1040000D01*
X-7409333Y-722740D01*
X-7409333Y+76889D01*
X-7390518Y+95704D01*
X-7098888Y+387334D01*
X-7098888Y+1535038D01*
X-6769629Y+1864297D01*
X-6478000Y+1864297D01*
X-6214592Y+2127705D01*
X-6214592Y+2823851D01*
X-5638443Y+3400000D01*
X-5262000Y+3400000D01*
D14*
X-5462000Y+2250000D02*
X-5687777Y+2475777D01*
X-5687777Y+2513407D01*
X-5687777Y+2936741D01*
X-5537259Y+3087259D01*
X-5038667Y+3087259D01*
X-4728223Y+3397703D01*
X-4728223Y+4000000D01*
D12*
X-4742000Y+4000000D02*
X-4728223Y+4000000D01*
X-3758000Y+4000000D01*
D10*
X-6692000Y+2800000D02*
X-6000000Y+3492000D01*
X-6000000Y+4771783D01*
X-5639196Y+5132587D01*
D14*
X-5462000Y+4000000D02*
X-5716000Y+4254000D01*
X-5716000Y+4658296D01*
X-5537259Y+4837037D01*
X-5490222Y+4837037D01*
X-5066889Y+4837037D01*
X-4728223Y+5175703D01*
X-4728223Y+5750000D01*
D10*
X-5262000Y+1650000D02*
X-5675063Y+1650000D01*
X-6023528Y+1301535D01*
X-6023528Y-108367D01*
X-6019038Y-112857D01*
X-6019038Y-1456772D02*
X-6019038Y-112857D01*
X-6005598Y-112857D01*
D14*
X-5462000Y+500000D02*
X-5741306Y+779306D01*
X-5741306Y+821757D01*
X-5741306Y+1151016D01*
X-5571972Y+1320350D01*
X-5054564Y+1320350D01*
X-4744120Y+1630794D01*
X-4744120Y+2250000D01*
D12*
X-5462000Y+2250000D02*
X-4744120Y+2250000D01*
X-4742000Y+2250000D01*
D13*
X+516000Y+3258000D02*
X+516000Y+2260064D01*
X-742000Y-548000D02*
X-313685Y-548000D01*
X-61020Y-295335D01*
X-61020Y+3319020D01*
X-121000Y+3379000D01*
X-500000Y+3258000D02*
X-500000Y+3500000D01*
X-250000Y+3750000D01*
X-8000Y+3750000D01*
X+4000Y+3738000D01*
X-121000Y+3379000D02*
X+251332Y+3379000D01*
X+472157Y+3599825D01*
X+615825Y+3599825D01*
X+754000Y+3738000D01*
X+516000Y+3258000D02*
X+742000Y+3258000D01*
X+750000Y+3250000D01*
X+879000Y+3379000D01*
X+895000Y+3379000D01*
X+3020000Y+4500000D02*
X+3020000Y+4702848D01*
X+3099722Y+4782570D01*
X+3491430Y+4782570D01*
X+3508000Y+4766000D01*
X+2492000Y+3250000D02*
X+2492000Y+4166438D01*
X+2571562Y+4246000D01*
X+2492000Y+3250000D02*
X+2492000Y+3008000D01*
X+2500000Y+3000000D01*
X+2500000Y+2250000D02*
X+2008000Y+2250000D01*
X+782000Y+1992000D02*
X+976601Y+1992000D01*
X+1071982Y+1896619D01*
X+1071982Y+1474519D01*
X+1286734Y+1259767D01*
X+2012448Y+1259767D01*
X+2175364Y+1422683D01*
X+2175364Y+1852187D01*
X+2353090Y+2029913D01*
X+2590058Y+2029913D01*
X+2750000Y+2189855D01*
X+2750000Y+2395744D01*
X+2649300Y+2496444D01*
X+1995556Y+2496444D01*
X+1758000Y+2734000D01*
X+3508000Y+3750000D02*
X+3508000Y+3250000D01*
X+2516000Y+1758000D02*
X+2516000Y+1508000D01*
X+2524000Y+1500000D01*
X+1008000Y+3738000D02*
X+1296950Y+3738000D01*
X+1308950Y+3750000D01*
X+1308950Y+3462319D01*
X+1323283Y+3447986D01*
X+2254000Y+0D02*
X+2254000Y-1000000D01*
X+1745066Y-433912D02*
X+1993422Y-433912D01*
X+2010355Y-450845D01*
D14*
X+3516000Y+5250000D02*
X+3516000Y+4774000D01*
X+3508000Y+4766000D01*
D13*
X+1746000Y+0D02*
X+1746000Y-432978D01*
X+1745066Y-433912D01*
X+1745066Y-999066D01*
X+1746000Y-1000000D01*
X+782000Y-294000D02*
X+1004202Y-294000D01*
X+1153334Y-443132D01*
X+1153334Y-965906D01*
X+1437450Y-1250022D01*
X+1842862Y-1250022D01*
X+2000000Y-1092884D01*
X+2000000Y-1000000D01*
X-500000Y+3258000D02*
X-250000Y+3008000D01*
X-250000Y-91837D01*
X-453498Y-295335D01*
X-740665Y-295335D01*
X-742000Y-294000D01*
D12*
X-1742000Y+4488000D02*
X-1346740Y+4488000D01*
X-1000000Y+4488000D01*
X-992000Y+4480000D01*
D13*
X+2625600Y-445200D02*
X+2661277Y-445200D01*
X-4242000Y-1873000D02*
X-4242000Y-1673274D01*
X-4274178Y-1641096D01*
X-4415274Y-1500000D01*
X-4516000Y-1500000D01*
X-3500000Y-1500000D02*
X-3380822Y-1500000D01*
X-3262877Y-1617945D01*
X-3262877Y-1749123D01*
X-3246000Y-1766000D01*
X-3774000Y-1250000D02*
X-3774000Y-1620041D01*
X-3645617Y-1748424D01*
X-3517576Y-1748424D01*
X-3500000Y-1766000D01*
X-3246000Y-770000D02*
X-2597604Y-770000D01*
X-2497398Y-669794D01*
X-2497398Y-244602D01*
X-2500000Y-242000D01*
X-3242000Y+960000D02*
X-2642124Y+960000D01*
X-2523494Y+1078630D01*
X-2523494Y+1480506D01*
X-2504000Y+1500000D01*
X-3246000Y+2730000D02*
X-2611850Y+2730000D01*
X-2497398Y+2844452D01*
X-2497398Y+3243398D01*
X-2504000Y+3250000D01*
X-3496000Y+960000D02*
X-3299083Y+1156917D01*
X-2862740Y+1156917D01*
X-2769657Y+1250000D01*
X-2750000Y+1250000D01*
X-2750000Y+2242000D01*
X-2742000Y+2250000D01*
X-3500000Y+2730000D02*
X-3500000Y+2781301D01*
X-3332466Y+2948835D01*
X-2854042Y+2948835D01*
X-2827946Y+2922739D01*
X-2740959Y+3009726D01*
X-2740959Y+3079315D01*
X-2740959Y+3998959D01*
X-2742000Y+4000000D01*
X-3242000Y+1722000D02*
X-3242000Y+2000000D01*
X-3246000Y-8000D02*
X-3246000Y+246000D01*
X-3242000Y+250000D01*
X-3500000Y-8000D02*
X-3500000Y+302192D01*
X-3480343Y+321849D01*
X-3658494Y+500000D01*
X-3774000Y+500000D01*
X-3496000Y+1722000D02*
X-3496000Y+2063315D01*
X-3462946Y+2096369D01*
X-3616577Y+2250000D01*
X-3758000Y+2250000D01*
X-3500000Y+3492000D02*
X-3471644Y+3520356D01*
X-3471644Y+3836095D01*
X-3635549Y+4000000D01*
X-3758000Y+4000000D01*
X-3246000Y-2528000D02*
X-2641974Y-2528000D01*
X-2514795Y-2400821D01*
X-2514795Y-2010795D01*
X-2504000Y-2000000D01*
X-3500000Y-2528000D02*
X-3322258Y-2350258D01*
X-2888836Y-2350258D01*
X-2850258Y-2350258D01*
X-2750000Y-2250000D01*
X-2750000Y-1258000D01*
X-2758000Y-1250000D01*
X-4115000Y-2000000D02*
X-3140412Y-2000000D01*
X-2984521Y-1844109D01*
X-2984521Y-1265479D01*
X-3000000Y-1250000D01*
X-3000000Y-1184931D01*
X-3115000Y-1069931D01*
X-3549932Y-1069931D01*
X-3558631Y-1061232D01*
X-4132739Y-487124D01*
X-4132739Y-487123D01*
X-4132739Y-267739D01*
X-4115000Y-250000D01*
X-3500000Y-770000D02*
X-3269315Y-539315D01*
X-2897535Y-539315D01*
X-2758357Y-400137D01*
X-2758357Y-391438D01*
X-2758357Y+499643D01*
X-2758000Y+500000D01*
X-4115000Y-250000D02*
X-3138836Y-250000D01*
X-2975822Y-86986D01*
X-2975822Y+434930D01*
X-2993220Y+452328D01*
X-3323092Y+782200D01*
X-3588884Y+782200D01*
X-4115000Y+1308316D01*
X-4115000Y+1500000D01*
X-3102465Y+1500000D01*
X-2975822Y+1626643D01*
X-2975822Y+2131165D01*
X-2967124Y+2139863D01*
X-3379461Y+2552200D01*
X-3592884Y+2552200D01*
X-4115000Y+3074316D01*
X-4115000Y+3250000D01*
X-742000Y+976000D02*
X-1420520Y+976000D01*
X-1641370Y+1196850D01*
X-1641370Y+1805754D01*
X-1989315Y+2153699D01*
X-1989315Y+3751315D01*
X-2246000Y+4008000D01*
X-3246000Y+3492000D02*
X-3246000Y+3730000D01*
X-3226000Y+3750000D01*
X-4115000Y+3250000D02*
X-3111713Y+3250000D01*
X-3000000Y+3361713D01*
X-3000000Y+3500000D01*
X-3000000Y+4100548D01*
X-2972261Y+4128287D01*
X-3067946Y+4223972D01*
X-3955205Y+4223972D01*
X-4111780Y+4380547D01*
X-4111780Y+4389246D01*
X-4111780Y+4746780D01*
X-4115000Y+4750000D01*
X-4242000Y+4877000D02*
X-4242000Y+5484000D01*
X-4266000Y+5508000D01*
X-3250000Y+5508000D02*
X-3151562Y+5508000D01*
X-3007055Y+5363493D01*
X-3007055Y+5253055D01*
X-2996000Y+5242000D01*
X-4742000Y+5750000D02*
X-4728223Y+5750000D01*
X-1742000Y+5758000D02*
X-2500000Y+5758000D01*
X-3250000Y+5242000D02*
X-3320493Y+5242000D01*
X-3500000Y+5421507D01*
X-3500000Y+5500000D01*
X-3500000Y+5750000D01*
X-4728223Y+5750000D02*
X-3500000Y+5750000D01*
X-2508000Y+5750000D01*
X-2500000Y+5758000D01*
X-2024110Y+4980753D02*
X-2024110Y+4598013D01*
X-1893631Y+4467534D01*
X-1876233Y+4467534D01*
X-1762466Y+4467534D01*
X-1742000Y+4488000D01*
X-3250000Y+4480000D02*
X-3250000Y+4572534D01*
X-3076644Y+4745890D01*
X-2503890Y+4745890D01*
X-2500000Y+4742000D01*
X-2996000Y+4480000D02*
X-2680275Y+4480000D01*
X-2502535Y+4302260D01*
X-2502535Y+4010535D01*
X-2500000Y+4008000D01*
X-4115000Y+4750000D02*
X-3884247Y+4980753D01*
X-3816027Y+4980753D01*
X-2045926Y+4980753D01*
X-2024110Y+4980753D01*
X+0Y+5500000D02*
X-327219Y+5500000D01*
X-483521Y+5656302D01*
X-483521Y+5926886D01*
X-675548Y+6118913D01*
X-2028470Y+6118913D01*
X-2037198Y+6110185D01*
X-1742000Y+5504000D02*
X-2014929Y+5504000D01*
X-2045926Y+5473003D01*
X-2045926Y+4980753D01*
X-1242000Y-2500000D02*
X-1242000Y-1267120D01*
X-1037841Y-1062961D01*
X-748961Y-1062961D01*
X-742000Y-1056000D01*
X-1496000Y-2500000D02*
X-1496000Y-1100483D01*
X-1199625Y-804108D01*
X-744108Y-804108D01*
X-742000Y-802000D01*
X-4115000Y-2000000D02*
X-4115000Y-2499559D01*
X-3820515Y-2794044D01*
X-1189160Y-2794044D01*
X-988000Y-2592884D01*
X-988000Y-2500000D01*
X-1750000Y-2500000D02*
X-2250000Y-2500000D01*
X-2266080Y-3046761D02*
X-5433863Y-3046761D01*
X-5715284Y-2765340D01*
X-5715284Y-2303522D01*
X-5556534Y-2144772D01*
X-5015340Y-2144772D01*
X-4748352Y-1877784D01*
X-4748352Y-1250000D01*
D12*
X-5462000Y-1250000D02*
X-4748352Y-1250000D01*
X-4742000Y-1250000D01*
D13*
X-988000Y-2500000D02*
X-988000Y-1988000D01*
X+500000Y-500000D01*
X+500000Y+2198456D01*
X+538804Y+2237260D01*
X+516000Y+2260064D02*
X+538804Y+2237260D01*
X+773260Y+2237260D01*
X+782000Y+2246000D01*
X-734000Y-2500000D02*
X-734000Y-2244425D01*
X-50898Y-1561323D01*
X+2472820Y-1561323D01*
X+2668205Y-1365938D01*
X+2668205Y-445200D01*
X+2661277Y-445200D02*
X+2668205Y-445200D01*
X+3554800Y-445200D01*
X+3750000Y-250000D01*
X+3750000Y+4581326D01*
X+3750687Y+4582013D01*
X+3558700Y+4774000D01*
X+3516000Y+4774000D01*
X-2266080Y-3046761D02*
X-933900Y-3046761D01*
X-718462Y-2831323D01*
X-718462Y-2515538D01*
X-734000Y-2500000D01*
D15*
X+2500000Y+3000000D03*
X+2500000Y+2250000D03*
X+2010355Y-450845D03*
X+2625600Y-445200D03*
X-2037198Y+6110185D03*
X-2045926Y+5473003D03*
X-2250000Y-2500000D03*
X-2266080Y-3046761D03*
D16*
X-742000Y+2500000D03*
D17*
X-742000Y+2246000D03*
X-742000Y+1992000D03*
X-742000Y+1738000D03*
X-742000Y+1484000D03*
X-742000Y+1230000D03*
X-742000Y+976000D03*
X-742000Y+722000D03*
X-742000Y+468000D03*
X-742000Y+214000D03*
X-742000Y-40000D03*
X-742000Y-294000D03*
X-742000Y-548000D03*
X-742000Y-802000D03*
X-742000Y-1056000D03*
X+782000Y+2500000D03*
X+782000Y+2246000D03*
X+782000Y+1992000D03*
X+782000Y+1738000D03*
X+782000Y+1484000D03*
X+782000Y+1230000D03*
X+782000Y+976000D03*
X+782000Y+722000D03*
X+782000Y+468000D03*
X+782000Y+214000D03*
X+782000Y-40000D03*
X+782000Y-294000D03*
X+782000Y-548000D03*
X+782000Y-802000D03*
X+782000Y-1056000D03*
D18*
X-742000Y+2754000D03*
X-742000Y-1310000D03*
X+782000Y-1310000D03*
X+782000Y+2754000D03*
D19*
X+258000Y+4500000D03*
D70*
X+4000Y+4500000D03*
X+4000Y+3738000D03*
X+258000Y+3738000D03*
D19*
X+1008000Y+4500000D03*
D70*
X+754000Y+4500000D03*
X+754000Y+3738000D03*
X+1008000Y+3738000D03*
D71*
X+258000Y+5750000D03*
X+258000Y+4734000D03*
X-121000Y+3379000D03*
X+895000Y+3379000D03*
X-500000Y+3258000D03*
X+516000Y+3258000D03*
X+1008000Y+5750000D03*
X+1008000Y+4734000D03*
D19*
X+2258000Y+4500000D03*
D70*
X+2258000Y+4246000D03*
X+2258000Y+3992000D03*
X+2258000Y+3738000D03*
X+3020000Y+3738000D03*
X+3020000Y+3992000D03*
X+3020000Y+4246000D03*
X+3020000Y+4500000D03*
D20*
X-992000Y+5750000D03*
X-992000Y+5496000D03*
X-992000Y+5242000D03*
X-992000Y+4988000D03*
X-992000Y+4734000D03*
X-992000Y+4480000D03*
X-1742000Y+5758000D03*
X-1742000Y+5504000D03*
X-1742000Y+5250000D03*
X-1742000Y+4996000D03*
X-1742000Y+4742000D03*
X-1742000Y+4488000D03*
X-1742000Y+4234000D03*
D71*
X+3508000Y+3750000D03*
X+3508000Y+4766000D03*
X+2492000Y+3250000D03*
X+3508000Y+3250000D03*
D21*
X+1758000Y+4250000D03*
X+1758000Y+4504000D03*
D71*
X+3008000Y+2750000D03*
X+3008000Y+3004000D03*
D22*
X+1758000Y+2734000D03*
X+1758000Y+3750000D03*
D70*
X+1754000Y+2250000D03*
X+1881000Y+2123000D03*
X+2008000Y+2250000D03*
D71*
X+1500000Y+1758000D03*
X+2516000Y+1758000D03*
X+1508000Y+1500000D03*
X+2524000Y+1500000D03*
X+2508000Y+1254000D03*
X+2508000Y+1000000D03*
D20*
X+1746000Y+0D03*
X+2000000Y+0D03*
X+2254000Y+0D03*
X+0Y+5754000D03*
X+0Y+5500000D03*
X+1758000Y+5750000D03*
X+2012000Y+5750000D03*
D23*
X-5462000Y+5750000D03*
D24*
X-6692000Y+5750000D03*
X-6692000Y+4550000D03*
X-5462000Y+4550000D03*
X-5262000Y+5150000D03*
D23*
X-5462000Y+4000000D03*
D24*
X-6692000Y+4000000D03*
X-6692000Y+2800000D03*
X-5462000Y+2800000D03*
X-5262000Y+3400000D03*
D23*
X-5462000Y+2250000D03*
D24*
X-6692000Y+2250000D03*
X-6692000Y+1050000D03*
X-5462000Y+1050000D03*
X-5262000Y+1650000D03*
D23*
X-5462000Y+500000D03*
D24*
X-6692000Y+500000D03*
X-6692000Y-700000D03*
X-5462000Y-700000D03*
X-5262000Y-100000D03*
D23*
X-5462000Y-1250000D03*
D24*
X-6692000Y-1250000D03*
X-6692000Y-2450000D03*
X-5462000Y-2450000D03*
X-5262000Y-1850000D03*
D19*
X-3250000Y+4480000D03*
D70*
X-2996000Y+4480000D03*
X-2996000Y+5242000D03*
X-3250000Y+5242000D03*
D19*
X-3500000Y+2730000D03*
D70*
X-3246000Y+2730000D03*
X-3246000Y+3492000D03*
X-3500000Y+3492000D03*
D19*
X-3496000Y+960000D03*
D70*
X-3242000Y+960000D03*
X-3242000Y+1722000D03*
X-3496000Y+1722000D03*
D19*
X-3500000Y-770000D03*
D70*
X-3246000Y-770000D03*
X-3246000Y-8000D03*
X-3500000Y-8000D03*
D19*
X-3500000Y-2528000D03*
D70*
X-3246000Y-2528000D03*
X-3246000Y-1766000D03*
X-3500000Y-1766000D03*
D71*
X-2500000Y+5758000D03*
X-2500000Y+4742000D03*
X-3758000Y+4000000D03*
X-2742000Y+4000000D03*
X-3758000Y+2250000D03*
X-2742000Y+2250000D03*
X-3774000Y+500000D03*
X-2758000Y+500000D03*
X-3774000Y-1250000D03*
X-2758000Y-1250000D03*
D22*
X-4742000Y+4734000D03*
X-4742000Y+5750000D03*
X-4742000Y+2984000D03*
X-4742000Y+4000000D03*
X-4742000Y+1234000D03*
X-4742000Y+2250000D03*
X-4742000Y-516000D03*
X-4742000Y+500000D03*
X-4742000Y-2266000D03*
X-4742000Y-1250000D03*
D20*
X-2500000Y+4008000D03*
X-2246000Y+4008000D03*
X-2504000Y+3250000D03*
X-2250000Y+3250000D03*
X-2504000Y+1500000D03*
X-2250000Y+1500000D03*
X-2500000Y-242000D03*
X-2246000Y-242000D03*
X-2504000Y-2000000D03*
X-2250000Y-2000000D03*
X+3508000Y+5750000D03*
X+3254000Y+5750000D03*
X+3516000Y+5250000D03*
X+3262000Y+5250000D03*
D71*
X+2758000Y+5250000D03*
X+1742000Y+5250000D03*
D20*
X+758000Y+5492000D03*
X+758000Y+5746000D03*
D71*
X-3250000Y+5508000D03*
X-4266000Y+5508000D03*
D70*
X-4115000Y+3250000D03*
X-4242000Y+3377000D03*
X-4369000Y+3250000D03*
D71*
X-3226000Y+3750000D03*
X-4242000Y+3750000D03*
D70*
X-4115000Y+1500000D03*
X-4242000Y+1627000D03*
X-4369000Y+1500000D03*
D71*
X-3242000Y+2000000D03*
X-4258000Y+2000000D03*
D70*
X-4115000Y-250000D03*
X-4242000Y-123000D03*
X-4369000Y-250000D03*
D71*
X-3242000Y+250000D03*
X-4258000Y+250000D03*
D70*
X-4115000Y-2000000D03*
X-4242000Y-1873000D03*
X-4369000Y-2000000D03*
D71*
X-3500000Y-1500000D03*
X-4516000Y-1500000D03*
D20*
X-9242000Y+4000000D03*
X-8988000Y+4000000D03*
X-8734000Y+4000000D03*
X-7734000Y+5000000D03*
X-7988000Y+5000000D03*
X-8242000Y+5000000D03*
X+1746000Y-1000000D03*
X+2000000Y-1000000D03*
X+2254000Y-1000000D03*
D25*
X-8492000Y+1500000D03*
X-8492000Y+992000D03*
X-8492000Y+484000D03*
X-8492000Y-24000D03*
X-8492000Y-532000D03*
X-8492000Y-1040000D03*
X-8492000Y-1548000D03*
X-8492000Y-2056000D03*
D20*
X-9246000Y+5000000D03*
X-8992000Y+5000000D03*
X-8738000Y+5000000D03*
D70*
X-4115000Y+4750000D03*
X-4242000Y+4877000D03*
X-4369000Y+4750000D03*
D20*
X-1750000Y-2500000D03*
X-1496000Y-2500000D03*
X-1242000Y-2500000D03*
X-988000Y-2500000D03*
X-734000Y-2500000D03*
D26*
X-9750000Y-3250000D02*
X+5000000Y-3250000D01*
X+5000000Y+6500000D01*
X-9750000Y+6500000D01*
X-9750000Y-3250000D01*
M02*
