G04 PROTEUS GERBER X2 FILE*
%TF.GenerationSoftware,Labcenter,Proteus,8.11-SP0-Build30052*%
%TF.CreationDate,2022-11-07T16:30:26+00:00*%
%TF.FileFunction,Soldermask,Top*%
%TF.FilePolarity,Negative*%
%TF.Part,Single*%
%TF.SameCoordinates,{2811b8d5-d4f7-46d7-8bd2-63344e37ddfc}*%
%FSLAX45Y45*%
%MOMM*%
G01*
%TA.AperFunction,Material*%
%ADD29C,1.016000*%
%AMPPAD022*
4,1,4,
-0.830000,0.830000,
0.830000,0.830000,
0.830000,-0.830000,
-0.830000,-0.830000,
-0.830000,0.830000,
0*%
%TA.AperFunction,Material*%
%ADD72PPAD022*%
%ADD73C,1.660000*%
%ADD30C,2.667000*%
%AMPPAD025*
4,1,36,
0.635000,-0.762000,
-0.635000,-0.762000,
-0.660970,-0.759470,
-0.684980,-0.752200,
-0.706580,-0.740650,
-0.725290,-0.725290,
-0.740650,-0.706570,
-0.752200,-0.684980,
-0.759470,-0.660970,
-0.762000,-0.635000,
-0.762000,0.635000,
-0.759470,0.660970,
-0.752200,0.684980,
-0.740650,0.706570,
-0.725290,0.725290,
-0.706580,0.740650,
-0.684980,0.752200,
-0.660970,0.759470,
-0.635000,0.762000,
0.635000,0.762000,
0.660970,0.759470,
0.684980,0.752200,
0.706580,0.740650,
0.725290,0.725290,
0.740650,0.706570,
0.752200,0.684980,
0.759470,0.660970,
0.762000,0.635000,
0.762000,-0.635000,
0.759470,-0.660970,
0.752200,-0.684980,
0.740650,-0.706570,
0.725290,-0.725290,
0.706580,-0.740650,
0.684980,-0.752200,
0.660970,-0.759470,
0.635000,-0.762000,
0*%
%TA.AperFunction,Material*%
%ADD31PPAD025*%
%ADD32C,1.524000*%
%TA.AperFunction,Material*%
%ADD33C,2.032000*%
%AMPPAD028*
4,1,36,
0.762000,0.635000,
0.762000,-0.635000,
0.759470,-0.660970,
0.752200,-0.684980,
0.740650,-0.706580,
0.725290,-0.725290,
0.706570,-0.740650,
0.684980,-0.752200,
0.660970,-0.759470,
0.635000,-0.762000,
-0.635000,-0.762000,
-0.660970,-0.759470,
-0.684980,-0.752200,
-0.706570,-0.740650,
-0.725290,-0.725290,
-0.740650,-0.706580,
-0.752200,-0.684980,
-0.759470,-0.660970,
-0.762000,-0.635000,
-0.762000,0.635000,
-0.759470,0.660970,
-0.752200,0.684980,
-0.740650,0.706580,
-0.725290,0.725290,
-0.706570,0.740650,
-0.684980,0.752200,
-0.660970,0.759470,
-0.635000,0.762000,
0.635000,0.762000,
0.660970,0.759470,
0.684980,0.752200,
0.706570,0.740650,
0.725290,0.725290,
0.740650,0.706580,
0.752200,0.684980,
0.759470,0.660970,
0.762000,0.635000,
0*%
%TA.AperFunction,Material*%
%ADD34PPAD028*%
%AMPPAD029*
4,1,36,
1.143000,1.016000,
1.143000,-1.016000,
1.140470,-1.041970,
1.133200,-1.065980,
1.121650,-1.087580,
1.106290,-1.106290,
1.087570,-1.121650,
1.065980,-1.133200,
1.041970,-1.140470,
1.016000,-1.143000,
-1.016000,-1.143000,
-1.041970,-1.140470,
-1.065980,-1.133200,
-1.087570,-1.121650,
-1.106290,-1.106290,
-1.121650,-1.087580,
-1.133200,-1.065980,
-1.140470,-1.041970,
-1.143000,-1.016000,
-1.143000,1.016000,
-1.140470,1.041970,
-1.133200,1.065980,
-1.121650,1.087580,
-1.106290,1.106290,
-1.087570,1.121650,
-1.065980,1.133200,
-1.041970,1.140470,
-1.016000,1.143000,
1.016000,1.143000,
1.041970,1.140470,
1.065980,1.133200,
1.087570,1.121650,
1.106290,1.106290,
1.121650,1.087580,
1.133200,1.065980,
1.140470,1.041970,
1.143000,1.016000,
0*%
%TA.AperFunction,Material*%
%ADD35PPAD029*%
%TA.AperFunction,Material*%
%ADD36C,2.286000*%
%ADD37C,2.540000*%
%AMPPAD032*
4,1,36,
-1.016000,1.143000,
1.016000,1.143000,
1.041970,1.140470,
1.065980,1.133200,
1.087580,1.121650,
1.106290,1.106290,
1.121650,1.087570,
1.133200,1.065980,
1.140470,1.041970,
1.143000,1.016000,
1.143000,-1.016000,
1.140470,-1.041970,
1.133200,-1.065980,
1.121650,-1.087570,
1.106290,-1.106290,
1.087580,-1.121650,
1.065980,-1.133200,
1.041970,-1.140470,
1.016000,-1.143000,
-1.016000,-1.143000,
-1.041970,-1.140470,
-1.065980,-1.133200,
-1.087580,-1.121650,
-1.106290,-1.106290,
-1.121650,-1.087570,
-1.133200,-1.065980,
-1.140470,-1.041970,
-1.143000,-1.016000,
-1.143000,1.016000,
-1.140470,1.041970,
-1.133200,1.065980,
-1.121650,1.087570,
-1.106290,1.106290,
-1.087580,1.121650,
-1.065980,1.133200,
-1.041970,1.140470,
-1.016000,1.143000,
0*%
%TA.AperFunction,Material*%
%ADD38PPAD032*%
%AMPPAD033*
4,1,4,
0.975000,-0.975000,
-0.975000,-0.975000,
-0.975000,0.975000,
0.975000,0.975000,
0.975000,-0.975000,
0*%
%TA.AperFunction,Material*%
%ADD39PPAD033*%
%ADD40C,1.950000*%
%TA.AperFunction,Material*%
%ADD41C,3.302000*%
%TA.AperFunction,Profile*%
%ADD26C,0.203200*%
%TD.AperFunction*%
D29*
X+2500000Y+3000000D03*
X+2500000Y+2250000D03*
X+2010355Y-450845D03*
X+2625600Y-445200D03*
X-2037198Y+6110185D03*
X-2045926Y+5473003D03*
X-2250000Y-2500000D03*
X-2266080Y-3046761D03*
D72*
X-742000Y+2500000D03*
D73*
X-742000Y+2246000D03*
X-742000Y+1992000D03*
X-742000Y+1738000D03*
X-742000Y+1484000D03*
X-742000Y+1230000D03*
X-742000Y+976000D03*
X-742000Y+722000D03*
X-742000Y+468000D03*
X-742000Y+214000D03*
X-742000Y-40000D03*
X-742000Y-294000D03*
X-742000Y-548000D03*
X-742000Y-802000D03*
X-742000Y-1056000D03*
X+782000Y+2500000D03*
X+782000Y+2246000D03*
X+782000Y+1992000D03*
X+782000Y+1738000D03*
X+782000Y+1484000D03*
X+782000Y+1230000D03*
X+782000Y+976000D03*
X+782000Y+722000D03*
X+782000Y+468000D03*
X+782000Y+214000D03*
X+782000Y-40000D03*
X+782000Y-294000D03*
X+782000Y-548000D03*
X+782000Y-802000D03*
X+782000Y-1056000D03*
D30*
X-742000Y+2754000D03*
X-742000Y-1310000D03*
X+782000Y-1310000D03*
X+782000Y+2754000D03*
D31*
X+258000Y+4500000D03*
D32*
X+4000Y+4500000D03*
X+4000Y+3738000D03*
X+258000Y+3738000D03*
D31*
X+1008000Y+4500000D03*
D32*
X+754000Y+4500000D03*
X+754000Y+3738000D03*
X+1008000Y+3738000D03*
D33*
X+258000Y+5750000D03*
X+258000Y+4734000D03*
X-121000Y+3379000D03*
X+895000Y+3379000D03*
X-500000Y+3258000D03*
X+516000Y+3258000D03*
X+1008000Y+5750000D03*
X+1008000Y+4734000D03*
D34*
X+2258000Y+4500000D03*
D32*
X+2258000Y+4246000D03*
X+2258000Y+3992000D03*
X+2258000Y+3738000D03*
X+3020000Y+3738000D03*
X+3020000Y+3992000D03*
X+3020000Y+4246000D03*
X+3020000Y+4500000D03*
D35*
X-992000Y+5750000D03*
X-992000Y+5496000D03*
X-992000Y+5242000D03*
X-992000Y+4988000D03*
X-992000Y+4734000D03*
X-992000Y+4480000D03*
X-1742000Y+5758000D03*
X-1742000Y+5504000D03*
X-1742000Y+5250000D03*
X-1742000Y+4996000D03*
X-1742000Y+4742000D03*
X-1742000Y+4488000D03*
X-1742000Y+4234000D03*
D33*
X+3508000Y+3750000D03*
X+3508000Y+4766000D03*
X+2492000Y+3250000D03*
X+3508000Y+3250000D03*
D36*
X+1758000Y+4250000D03*
X+1758000Y+4504000D03*
D33*
X+3008000Y+2750000D03*
X+3008000Y+3004000D03*
D37*
X+1758000Y+2734000D03*
X+1758000Y+3750000D03*
D32*
X+1754000Y+2250000D03*
X+1881000Y+2123000D03*
X+2008000Y+2250000D03*
D33*
X+1500000Y+1758000D03*
X+2516000Y+1758000D03*
X+1508000Y+1500000D03*
X+2524000Y+1500000D03*
X+2508000Y+1254000D03*
X+2508000Y+1000000D03*
D38*
X+1746000Y+0D03*
X+2000000Y+0D03*
X+2254000Y+0D03*
D35*
X+0Y+5754000D03*
X+0Y+5500000D03*
D38*
X+1758000Y+5750000D03*
X+2012000Y+5750000D03*
D39*
X-5462000Y+5750000D03*
D40*
X-6692000Y+5750000D03*
X-6692000Y+4550000D03*
X-5462000Y+4550000D03*
X-5262000Y+5150000D03*
D39*
X-5462000Y+4000000D03*
D40*
X-6692000Y+4000000D03*
X-6692000Y+2800000D03*
X-5462000Y+2800000D03*
X-5262000Y+3400000D03*
D39*
X-5462000Y+2250000D03*
D40*
X-6692000Y+2250000D03*
X-6692000Y+1050000D03*
X-5462000Y+1050000D03*
X-5262000Y+1650000D03*
D39*
X-5462000Y+500000D03*
D40*
X-6692000Y+500000D03*
X-6692000Y-700000D03*
X-5462000Y-700000D03*
X-5262000Y-100000D03*
D39*
X-5462000Y-1250000D03*
D40*
X-6692000Y-1250000D03*
X-6692000Y-2450000D03*
X-5462000Y-2450000D03*
X-5262000Y-1850000D03*
D31*
X-3250000Y+4480000D03*
D32*
X-2996000Y+4480000D03*
X-2996000Y+5242000D03*
X-3250000Y+5242000D03*
D31*
X-3500000Y+2730000D03*
D32*
X-3246000Y+2730000D03*
X-3246000Y+3492000D03*
X-3500000Y+3492000D03*
D31*
X-3496000Y+960000D03*
D32*
X-3242000Y+960000D03*
X-3242000Y+1722000D03*
X-3496000Y+1722000D03*
D31*
X-3500000Y-770000D03*
D32*
X-3246000Y-770000D03*
X-3246000Y-8000D03*
X-3500000Y-8000D03*
D31*
X-3500000Y-2528000D03*
D32*
X-3246000Y-2528000D03*
X-3246000Y-1766000D03*
X-3500000Y-1766000D03*
D33*
X-2500000Y+5758000D03*
X-2500000Y+4742000D03*
X-3758000Y+4000000D03*
X-2742000Y+4000000D03*
X-3758000Y+2250000D03*
X-2742000Y+2250000D03*
X-3774000Y+500000D03*
X-2758000Y+500000D03*
X-3774000Y-1250000D03*
X-2758000Y-1250000D03*
D37*
X-4742000Y+4734000D03*
X-4742000Y+5750000D03*
X-4742000Y+2984000D03*
X-4742000Y+4000000D03*
X-4742000Y+1234000D03*
X-4742000Y+2250000D03*
X-4742000Y-516000D03*
X-4742000Y+500000D03*
X-4742000Y-2266000D03*
X-4742000Y-1250000D03*
D38*
X-2500000Y+4008000D03*
X-2246000Y+4008000D03*
X-2504000Y+3250000D03*
X-2250000Y+3250000D03*
X-2504000Y+1500000D03*
X-2250000Y+1500000D03*
X-2500000Y-242000D03*
X-2246000Y-242000D03*
X-2504000Y-2000000D03*
X-2250000Y-2000000D03*
X+3508000Y+5750000D03*
X+3254000Y+5750000D03*
X+3516000Y+5250000D03*
X+3262000Y+5250000D03*
D33*
X+2758000Y+5250000D03*
X+1742000Y+5250000D03*
D35*
X+758000Y+5492000D03*
X+758000Y+5746000D03*
D33*
X-3250000Y+5508000D03*
X-4266000Y+5508000D03*
D32*
X-4115000Y+3250000D03*
X-4242000Y+3377000D03*
X-4369000Y+3250000D03*
D33*
X-3226000Y+3750000D03*
X-4242000Y+3750000D03*
D32*
X-4115000Y+1500000D03*
X-4242000Y+1627000D03*
X-4369000Y+1500000D03*
D33*
X-3242000Y+2000000D03*
X-4258000Y+2000000D03*
D32*
X-4115000Y-250000D03*
X-4242000Y-123000D03*
X-4369000Y-250000D03*
D33*
X-3242000Y+250000D03*
X-4258000Y+250000D03*
D32*
X-4115000Y-2000000D03*
X-4242000Y-1873000D03*
X-4369000Y-2000000D03*
D33*
X-3500000Y-1500000D03*
X-4516000Y-1500000D03*
D38*
X-9242000Y+4000000D03*
X-8988000Y+4000000D03*
X-8734000Y+4000000D03*
X-7734000Y+5000000D03*
X-7988000Y+5000000D03*
X-8242000Y+5000000D03*
X+1746000Y-1000000D03*
X+2000000Y-1000000D03*
X+2254000Y-1000000D03*
D41*
X-8492000Y+1500000D03*
X-8492000Y+992000D03*
X-8492000Y+484000D03*
X-8492000Y-24000D03*
X-8492000Y-532000D03*
X-8492000Y-1040000D03*
X-8492000Y-1548000D03*
X-8492000Y-2056000D03*
D38*
X-9246000Y+5000000D03*
X-8992000Y+5000000D03*
X-8738000Y+5000000D03*
D32*
X-4115000Y+4750000D03*
X-4242000Y+4877000D03*
X-4369000Y+4750000D03*
D38*
X-1750000Y-2500000D03*
X-1496000Y-2500000D03*
X-1242000Y-2500000D03*
X-988000Y-2500000D03*
X-734000Y-2500000D03*
D26*
X-9750000Y-3250000D02*
X+5000000Y-3250000D01*
X+5000000Y+6500000D01*
X-9750000Y+6500000D01*
X-9750000Y-3250000D01*
M02*
