M48
METRIC,TZ
T01C0.3810
T02C1.1100
T03C1.7780
T04C0.7620
T05C1.0160
T06C0.6350
T07C1.3000
T08C1.5240
%
T01
X+25000Y+30000
X+25000Y+22500
X-21699Y-24930
X-22052Y-30692
X-20071Y+60761
X-20493Y+54780
T02
X-7420Y+25000
X-7420Y+22460
X-7420Y+19920
X-7420Y+17380
X-7420Y+14840
X-7420Y+12300
X-7420Y+9760
X-7420Y+7220
X-7420Y+4680
X-7420Y+2140
X-7420Y-400
X-7420Y-2940
X-7420Y-5480
X-7420Y-8020
X-7420Y-10560
X+7820Y+25000
X+7820Y+22460
X+7820Y+19920
X+7820Y+17380
X+7820Y+14840
X+7820Y+12300
X+7820Y+9760
X+7820Y+7220
X+7820Y+4680
X+7820Y+2140
X+7820Y-400
X+7820Y-2940
X+7820Y-5480
X+7820Y-8020
X+7820Y-10560
T03
X-7420Y+27540
X-7420Y-13100
X+7820Y-13100
X+7820Y+27540
T04
X+10080Y+45000
X+7540Y+45000
X+7540Y+37380
X+10080Y+37380
X-1210Y+33790
X+8950Y+33790
X+12420Y+47500
X+12420Y+57660
X+22580Y+45000
X+22580Y+42460
X+22580Y+39920
X+22580Y+37380
X+30200Y+37380
X+30200Y+39920
X+30200Y+42460
X+30200Y+45000
X+35080Y+37500
X+35080Y+47660
X+24920Y+32500
X+35080Y+32500
X+17580Y+42500
X+17580Y+45040
X+30080Y+27500
X+30080Y+30040
X+15000Y+17580
X+25160Y+17580
X+15080Y+15000
X+25240Y+15000
X+25080Y+12540
X+25080Y+10000
X-32500Y+44800
X-29960Y+44800
X-29960Y+52420
X-32500Y+52420
X-35000Y+27300
X-32460Y+27300
X-32460Y+34920
X-35000Y+34920
X-34960Y+9600
X-32420Y+9600
X-32420Y+17220
X-34960Y+17220
X-35000Y-7700
X-32460Y-7700
X-32460Y-80
X-35000Y-80
X-35000Y-25280
X-32460Y-25280
X-32460Y-17660
X-35000Y-17660
X-25000Y+57580
X-25000Y+47420
X-37580Y+40000
X-27420Y+40000
X-37580Y+22500
X-27420Y+22500
X-37740Y+5000
X-27580Y+5000
X-37740Y-12500
X-27580Y-12500
X+27580Y+52500
X+17420Y+52500
X-32500Y+55080
X-42660Y+55080
X-32260Y+37500
X-42420Y+37500
X-32420Y+20000
X-42580Y+20000
X-32420Y+2500
X-42580Y+2500
X-35000Y-15000
X-45160Y-15000
X+2500Y+45000
X-40Y+45000
X-40Y+37380
X+2500Y+37380
X+2500Y+47500
X+2500Y+57660
X-5000Y+32500
X+5160Y+32500
T05
X-9920Y+57500
X-9920Y+54960
X-9920Y+52420
X-9920Y+49880
X-9920Y+47340
X-9920Y+44800
X-17420Y+57580
X-17420Y+55040
X-17420Y+52500
X-17420Y+49960
X-17420Y+47420
X-17420Y+44880
X-17420Y+42340
X+17580Y+27340
X+17580Y+37500
X+17580Y+57500
X+20120Y+57500
X-47420Y+47340
X-47420Y+57500
X-47420Y+29840
X-47420Y+40000
X-47420Y+12340
X-47420Y+22500
X-47420Y-5160
X-47420Y+5000
X-47420Y-22660
X-47420Y-12500
X-25000Y+40080
X-22460Y+40080
X-25040Y+32500
X-22500Y+32500
X-25040Y+15000
X-22500Y+15000
X-25000Y-2420
X-22460Y-2420
X-25040Y-20000
X-22500Y-20000
X+35080Y+57500
X+32540Y+57500
X+35160Y+52500
X+32620Y+52500
X+7580Y+54920
X+7580Y+57460
X-77340Y+50000
X-79880Y+50000
X-82420Y+50000
X+17500Y-5000
X+17500Y-2460
X+17500Y+80
X-92460Y+50000
X-89920Y+50000
X-87380Y+50000
X-17500Y-25000
X-14960Y-25000
X-12420Y-25000
X-9880Y-25000
X-7340Y-25000
X-2500Y+55000
X-2500Y+57540
T06
X+17540Y+22500
X+18810Y+21230
X+20080Y+22500
X-41150Y+32500
X-42420Y+33770
X-43690Y+32500
X-41150Y+15000
X-42420Y+16270
X-43690Y+15000
X-41150Y-2500
X-42420Y-1230
X-43690Y-2500
X-41150Y-20000
X-42420Y-18730
X-43690Y-20000
X-41150Y+47500
X-42420Y+48770
X-43690Y+47500
T07
X-54620Y+57500
X-66920Y+57500
X-66920Y+45500
X-54620Y+45500
X-52620Y+51500
X-54620Y+40000
X-66920Y+40000
X-66920Y+28000
X-54620Y+28000
X-52620Y+34000
X-54620Y+22500
X-66920Y+22500
X-66920Y+10500
X-54620Y+10500
X-52620Y+16500
X-54620Y+5000
X-66920Y+5000
X-66920Y-7000
X-54620Y-7000
X-52620Y-1000
X-54620Y-12500
X-66920Y-12500
X-66920Y-24500
X-54620Y-24500
X-52620Y-18500
T08
X-84920Y+15000
X-84920Y+9920
X-84920Y+4840
X-84920Y-240
X-84920Y-5320
X-84920Y-10400
X-84920Y-15480
X-84920Y-20560
M30
