G04 PROTEUS RS274X GERBER FILE*
%FSLAX45Y45*%
%MOMM*%
G01*
%ADD16C,0.203200*%
%ADD17C,0.127000*%
%ADD15C,0.063500*%
D16*
X-1535789Y+2127532D02*
X-1535789Y+2000532D01*
X-1472289Y+2064032D02*
X-1599289Y+2064032D01*
X-4584725Y+4823302D02*
X-4584725Y+4696302D01*
X-4521225Y+4759802D02*
X-4648225Y+4759802D01*
X-6508136Y+4823302D02*
X-6508136Y+4696302D01*
X-6444636Y+4759802D02*
X-6571636Y+4759802D01*
X-1279528Y+4418926D02*
X-1279528Y+4291926D01*
X-1216028Y+4355426D02*
X-1343028Y+4355426D01*
X-1279528Y+2918926D02*
X-1279528Y+2791926D01*
X-1216028Y+2855426D02*
X-1343028Y+2855426D01*
X-6529528Y+4418926D02*
X-6529528Y+4291926D01*
X-6466028Y+4355426D02*
X-6593028Y+4355426D01*
X-6779528Y+3168926D02*
X-6779528Y+3041926D01*
X-6716028Y+3105426D02*
X-6843028Y+3105426D01*
X-6153940Y+3174298D02*
X-6153940Y+3047298D01*
X-6090440Y+3110798D02*
X-6217440Y+3110798D01*
X-1529528Y+2918926D02*
X-1529528Y+2791926D01*
X-1466028Y+2855426D02*
X-1593028Y+2855426D01*
X-4598023Y+4424349D02*
X-4598023Y+4297349D01*
X-4534523Y+4360849D02*
X-4661523Y+4360849D01*
X-6598336Y+4637837D02*
X-6598336Y+4510837D01*
X-6534836Y+4574337D02*
X-6661836Y+4574337D01*
X-4478338Y+4623826D02*
X-4478338Y+4496826D01*
X-4414838Y+4560326D02*
X-4541838Y+4560326D01*
X-4471384Y+5221799D02*
X-4471384Y+5094799D01*
X-4407884Y+5158299D02*
X-4534884Y+5158299D01*
X-730627Y+1150327D02*
X-820429Y+1060525D01*
X-730627Y+1060525D02*
X-820429Y+1150327D01*
X-984627Y+1150327D02*
X-1074429Y+1060525D01*
X-984627Y+1060525D02*
X-1074429Y+1150327D01*
X-734627Y+2150327D02*
X-824429Y+2060525D01*
X-734627Y+2060525D02*
X-824429Y+2150327D01*
X-734627Y+1896327D02*
X-824429Y+1806525D01*
X-734627Y+1806525D02*
X-824429Y+1896327D01*
X-1972627Y+5428327D02*
X-2062429Y+5338525D01*
X-1972627Y+5338525D02*
X-2062429Y+5428327D01*
X-1972627Y+5174327D02*
X-2062429Y+5084525D01*
X-1972627Y+5084525D02*
X-2062429Y+5174327D01*
X-1972627Y+4920327D02*
X-2062429Y+4830525D01*
X-1972627Y+4830525D02*
X-2062429Y+4920327D01*
X-1972627Y+4666327D02*
X-2062429Y+4576525D01*
X-1972627Y+4576525D02*
X-2062429Y+4666327D01*
X-1972627Y+4412327D02*
X-2062429Y+4322525D01*
X-1972627Y+4322525D02*
X-2062429Y+4412327D01*
X-1972627Y+4158327D02*
X-2062429Y+4068525D01*
X-1972627Y+4068525D02*
X-2062429Y+4158327D01*
X-1972627Y+3904327D02*
X-2062429Y+3814525D01*
X-1972627Y+3814525D02*
X-2062429Y+3904327D01*
X-1972627Y+3650327D02*
X-2062429Y+3560525D01*
X-1972627Y+3560525D02*
X-2062429Y+3650327D01*
X-1972627Y+3396327D02*
X-2062429Y+3306525D01*
X-1972627Y+3306525D02*
X-2062429Y+3396327D01*
X-1972627Y+3142327D02*
X-2062429Y+3052525D01*
X-1972627Y+3052525D02*
X-2062429Y+3142327D01*
X-1972627Y+2888327D02*
X-2062429Y+2798525D01*
X-1972627Y+2798525D02*
X-2062429Y+2888327D01*
X-1972627Y+2634327D02*
X-2062429Y+2544525D01*
X-1972627Y+2544525D02*
X-2062429Y+2634327D01*
X-1972627Y+2380327D02*
X-2062429Y+2290525D01*
X-1972627Y+2290525D02*
X-2062429Y+2380327D01*
X-1972627Y+2126327D02*
X-2062429Y+2036525D01*
X-1972627Y+2036525D02*
X-2062429Y+2126327D01*
X-1972627Y+1872327D02*
X-2062429Y+1782525D01*
X-1972627Y+1782525D02*
X-2062429Y+1872327D01*
X-3496627Y+1872327D02*
X-3586429Y+1782525D01*
X-3496627Y+1782525D02*
X-3586429Y+1872327D01*
X-3496627Y+2126327D02*
X-3586429Y+2036525D01*
X-3496627Y+2036525D02*
X-3586429Y+2126327D01*
X-3496627Y+2380327D02*
X-3586429Y+2290525D01*
X-3496627Y+2290525D02*
X-3586429Y+2380327D01*
X-3496627Y+2634327D02*
X-3586429Y+2544525D01*
X-3496627Y+2544525D02*
X-3586429Y+2634327D01*
X-3496627Y+2888327D02*
X-3586429Y+2798525D01*
X-3496627Y+2798525D02*
X-3586429Y+2888327D01*
X-3496627Y+3142327D02*
X-3586429Y+3052525D01*
X-3496627Y+3052525D02*
X-3586429Y+3142327D01*
X-3496627Y+3396327D02*
X-3586429Y+3306525D01*
X-3496627Y+3306525D02*
X-3586429Y+3396327D01*
X-3496627Y+3650327D02*
X-3586429Y+3560525D01*
X-3496627Y+3560525D02*
X-3586429Y+3650327D01*
X-3496627Y+3904327D02*
X-3586429Y+3814525D01*
X-3496627Y+3814525D02*
X-3586429Y+3904327D01*
X-3496627Y+4158327D02*
X-3586429Y+4068525D01*
X-3496627Y+4068525D02*
X-3586429Y+4158327D01*
X-3496627Y+4412327D02*
X-3586429Y+4322525D01*
X-3496627Y+4322525D02*
X-3586429Y+4412327D01*
X-3496627Y+4666327D02*
X-3586429Y+4576525D01*
X-3496627Y+4576525D02*
X-3586429Y+4666327D01*
X-3496627Y+4920327D02*
X-3586429Y+4830525D01*
X-3496627Y+4830525D02*
X-3586429Y+4920327D01*
X-3496627Y+5174327D02*
X-3586429Y+5084525D01*
X-3496627Y+5084525D02*
X-3586429Y+5174327D01*
X-3496627Y+5428327D02*
X-3586429Y+5338525D01*
X-3496627Y+5338525D02*
X-3586429Y+5428327D01*
X-2017528Y+5700926D02*
X-2017528Y+5573926D01*
X-1954028Y+5637426D02*
X-2081028Y+5637426D01*
X-1972627Y+5682327D02*
X-2062429Y+5592525D01*
X-1972627Y+5592525D02*
X-2062429Y+5682327D01*
X-3541528Y+5700926D02*
X-3541528Y+5573926D01*
X-3478028Y+5637426D02*
X-3605028Y+5637426D01*
X-3496627Y+5682327D02*
X-3586429Y+5592525D01*
X-3496627Y+5592525D02*
X-3586429Y+5682327D01*
X-3541528Y+1636926D02*
X-3541528Y+1509926D01*
X-3478028Y+1573426D02*
X-3605028Y+1573426D01*
X-3496627Y+1618327D02*
X-3586429Y+1528525D01*
X-3496627Y+1528525D02*
X-3586429Y+1618327D01*
X-2017528Y+1636926D02*
X-2017528Y+1509926D01*
X-1954028Y+1573426D02*
X-2081028Y+1573426D01*
X-1972627Y+1618327D02*
X-2062429Y+1528525D01*
X-1972627Y+1528525D02*
X-2062429Y+1618327D01*
X-4734627Y+3416327D02*
X-4824429Y+3326525D01*
X-4734627Y+3326525D02*
X-4824429Y+3416327D01*
X-4734627Y+3162327D02*
X-4824429Y+3072525D01*
X-4734627Y+3072525D02*
X-4824429Y+3162327D01*
X-4734627Y+2908327D02*
X-4824429Y+2818525D01*
X-4734627Y+2818525D02*
X-4824429Y+2908327D01*
X-4734627Y+2654327D02*
X-4824429Y+2564525D01*
X-4734627Y+2564525D02*
X-4824429Y+2654327D01*
X-4734627Y+2400327D02*
X-4824429Y+2310525D01*
X-4734627Y+2310525D02*
X-4824429Y+2400327D01*
X-4734627Y+2146327D02*
X-4824429Y+2056525D01*
X-4734627Y+2056525D02*
X-4824429Y+2146327D01*
X-5734627Y+3400327D02*
X-5824429Y+3310525D01*
X-5734627Y+3310525D02*
X-5824429Y+3400327D01*
X-5734627Y+3146327D02*
X-5824429Y+3056525D01*
X-5734627Y+3056525D02*
X-5824429Y+3146327D01*
X-5734627Y+2892327D02*
X-5824429Y+2802525D01*
X-5734627Y+2802525D02*
X-5824429Y+2892327D01*
X-5734627Y+2638327D02*
X-5824429Y+2548525D01*
X-5734627Y+2548525D02*
X-5824429Y+2638327D01*
X-5734627Y+2384327D02*
X-5824429Y+2294525D01*
X-5734627Y+2294525D02*
X-5824429Y+2384327D01*
X-5734627Y+2130327D02*
X-5824429Y+2040525D01*
X-5734627Y+2040525D02*
X-5824429Y+2130327D01*
X-5734627Y+1876327D02*
X-5824429Y+1786525D01*
X-5734627Y+1786525D02*
X-5824429Y+1876327D01*
X-734627Y+4900327D02*
X-824429Y+4810525D01*
X-734627Y+4810525D02*
X-824429Y+4900327D01*
X-734627Y+4646327D02*
X-824429Y+4556525D01*
X-734627Y+4556525D02*
X-824429Y+4646327D01*
X-734627Y+4392327D02*
X-824429Y+4302525D01*
X-734627Y+4302525D02*
X-824429Y+4392327D01*
X-4734627Y+1400327D02*
X-4824429Y+1310525D01*
X-4734627Y+1310525D02*
X-4824429Y+1400327D01*
X-4734627Y+1146327D02*
X-4824429Y+1056525D01*
X-4734627Y+1056525D02*
X-4824429Y+1146327D01*
X-4734627Y+892327D02*
X-4824429Y+802525D01*
X-4734627Y+802525D02*
X-4824429Y+892327D01*
X-4734627Y+638327D02*
X-4824429Y+548525D01*
X-4734627Y+548525D02*
X-4824429Y+638327D01*
X-734627Y+3650327D02*
X-824429Y+3560525D01*
X-734627Y+3560525D02*
X-824429Y+3650327D01*
X-734627Y+3396327D02*
X-824429Y+3306525D01*
X-734627Y+3306525D02*
X-824429Y+3396327D01*
X-734627Y+3142327D02*
X-824429Y+3052525D01*
X-734627Y+3052525D02*
X-824429Y+3142327D01*
X-734627Y+2888327D02*
X-824429Y+2798525D01*
X-734627Y+2798525D02*
X-824429Y+2888327D01*
D17*
X-2918630Y-1083501D02*
X-274490Y-1083501D01*
X-274490Y-80201D01*
X-2918630Y-80201D01*
X-2918630Y-1083501D01*
D15*
X-741852Y-80201D02*
X-741852Y-1083501D01*
X-1554652Y-80201D02*
X-1554652Y-1083501D01*
X-2387772Y-80201D02*
X-2387772Y-1083501D01*
X-274490Y-353251D02*
X-2918630Y-353251D01*
X-274490Y-594551D02*
X-2918630Y-594551D01*
X-274490Y-835851D02*
X-2918630Y-835851D01*
D17*
X-697400Y-244031D02*
X-682160Y-259271D01*
X-621200Y-259271D01*
X-605960Y-244031D01*
X-605960Y-228791D01*
X-621200Y-213551D01*
X-682160Y-213551D01*
X-697400Y-198311D01*
X-697400Y-183071D01*
X-682160Y-167831D01*
X-621200Y-167831D01*
X-605960Y-183071D01*
X-484040Y-167831D02*
X-575480Y-259271D01*
X-575480Y-167831D02*
X-529760Y-213551D01*
X-453560Y-259271D02*
X-453560Y-167831D01*
X-407840Y-213551D01*
X-362120Y-167831D01*
X-362120Y-259271D01*
X-1286680Y-244031D02*
X-1271440Y-259271D01*
X-1210480Y-259271D01*
X-1195240Y-244031D01*
X-1195240Y-228791D01*
X-1210480Y-213551D01*
X-1271440Y-213551D01*
X-1286680Y-198311D01*
X-1286680Y-183071D01*
X-1271440Y-167831D01*
X-1210480Y-167831D01*
X-1195240Y-183071D01*
X-1149520Y-167831D02*
X-1088560Y-167831D01*
X-1119040Y-167831D02*
X-1119040Y-259271D01*
X-1149520Y-259271D02*
X-1088560Y-259271D01*
X-1042840Y-167831D02*
X-951400Y-167831D01*
X-1042840Y-259271D01*
X-951400Y-259271D01*
X-829480Y-259271D02*
X-920920Y-259271D01*
X-920920Y-167831D01*
X-829480Y-167831D01*
X-920920Y-213551D02*
X-859960Y-213551D01*
X-2343320Y-259271D02*
X-2343320Y-167831D01*
X-2267120Y-167831D01*
X-2251880Y-183071D01*
X-2251880Y-198311D01*
X-2267120Y-213551D01*
X-2343320Y-213551D01*
X-2221400Y-167831D02*
X-2221400Y-259271D01*
X-2129960Y-259271D01*
X-2099480Y-259271D02*
X-2099480Y-198311D01*
X-2069000Y-167831D01*
X-2038520Y-167831D01*
X-2008040Y-198311D01*
X-2008040Y-259271D01*
X-2099480Y-228791D02*
X-2008040Y-228791D01*
X-1977560Y-167831D02*
X-1886120Y-167831D01*
X-1931840Y-167831D02*
X-1931840Y-259271D01*
X-1764200Y-259271D02*
X-1855640Y-259271D01*
X-1855640Y-167831D01*
X-1764200Y-167831D01*
X-1855640Y-213551D02*
X-1794680Y-213551D01*
X-1733720Y-259271D02*
X-1733720Y-167831D01*
X-1672760Y-167831D01*
X-1642280Y-198311D01*
X-1642280Y-228791D01*
X-1672760Y-259271D01*
X-1733720Y-259271D01*
X-2810680Y-198311D02*
X-2780200Y-167831D01*
X-2749720Y-167831D01*
X-2719240Y-198311D01*
X-2719240Y-228791D01*
X-2749720Y-259271D01*
X-2780200Y-259271D01*
X-2810680Y-228791D01*
X-2810680Y-198311D01*
X-2749720Y-228791D02*
X-2719240Y-259271D01*
X-2688760Y-167831D02*
X-2597320Y-167831D01*
X-2643040Y-167831D02*
X-2643040Y-259271D01*
X-2475400Y-167831D02*
X-2566840Y-259271D01*
X-2566840Y-167831D02*
X-2521120Y-213551D01*
D16*
X-520870Y-404051D02*
X-520870Y-531051D01*
X-457370Y-467551D02*
X-584370Y-467551D01*
D17*
X-1529250Y-492951D02*
X-1529250Y-442151D01*
X-1516550Y-429451D01*
X-1465750Y-429451D01*
X-1453050Y-442151D01*
X-1453050Y-492951D01*
X-1465750Y-505651D01*
X-1516550Y-505651D01*
X-1529250Y-492951D01*
X-1529250Y-505651D02*
X-1453050Y-429451D01*
X-1389550Y-492951D02*
X-1376850Y-492951D01*
X-1376850Y-505651D01*
X-1389550Y-505651D01*
X-1389550Y-492951D01*
X-1313350Y-429451D02*
X-1249850Y-429451D01*
X-1249850Y-442151D01*
X-1313350Y-505651D01*
X-1148250Y-442151D02*
X-1160950Y-429451D01*
X-1199050Y-429451D01*
X-1211750Y-442151D01*
X-1211750Y-492951D01*
X-1199050Y-505651D01*
X-1160950Y-505651D01*
X-1148250Y-492951D01*
X-1148250Y-480251D01*
X-1160950Y-467551D01*
X-1211750Y-467551D01*
X-1110150Y-442151D02*
X-1097450Y-429451D01*
X-1059350Y-429451D01*
X-1046650Y-442151D01*
X-1046650Y-454851D01*
X-1059350Y-467551D01*
X-1097450Y-467551D01*
X-1110150Y-480251D01*
X-1110150Y-505651D01*
X-1046650Y-505651D01*
X-1021250Y-505651D02*
X-1021250Y-454851D01*
X-1021250Y-467551D02*
X-1008550Y-454851D01*
X-983150Y-480251D01*
X-957750Y-454851D01*
X-945050Y-467551D01*
X-945050Y-505651D01*
X-919650Y-505651D02*
X-919650Y-454851D01*
X-919650Y-467551D02*
X-906950Y-454851D01*
X-881550Y-480251D01*
X-856150Y-454851D01*
X-843450Y-467551D01*
X-843450Y-505651D01*
X-1872150Y-429451D02*
X-1948350Y-505651D01*
X-1948350Y-429451D02*
X-1910250Y-467551D01*
X-1770550Y-505651D02*
X-1846750Y-505651D01*
X-1846750Y-429451D01*
X-1770550Y-429451D01*
X-1846750Y-467551D02*
X-1795950Y-467551D01*
X-1745150Y-492951D02*
X-1732450Y-505651D01*
X-1681650Y-505651D01*
X-1668950Y-492951D01*
X-1668950Y-480251D01*
X-1681650Y-467551D01*
X-1732450Y-467551D01*
X-1745150Y-454851D01*
X-1745150Y-442151D01*
X-1732450Y-429451D01*
X-1681650Y-429451D01*
X-1668950Y-442151D01*
X-2667170Y-454851D02*
X-2641770Y-429451D01*
X-2641770Y-505651D01*
X-2578270Y-442151D02*
X-2565570Y-429451D01*
X-2527470Y-429451D01*
X-2514770Y-442151D01*
X-2514770Y-454851D01*
X-2527470Y-467551D01*
X-2514770Y-480251D01*
X-2514770Y-492951D01*
X-2527470Y-505651D01*
X-2565570Y-505651D01*
X-2578270Y-492951D01*
X-2552870Y-467551D02*
X-2527470Y-467551D01*
D16*
X-475969Y-663950D02*
X-565771Y-753752D01*
X-475969Y-753752D02*
X-565771Y-663950D01*
D17*
X-1503850Y-696151D02*
X-1478450Y-670751D01*
X-1478450Y-746951D01*
X-1389550Y-734251D02*
X-1376850Y-734251D01*
X-1376850Y-746951D01*
X-1389550Y-746951D01*
X-1389550Y-734251D01*
X-1326050Y-734251D02*
X-1326050Y-683451D01*
X-1313350Y-670751D01*
X-1262550Y-670751D01*
X-1249850Y-683451D01*
X-1249850Y-734251D01*
X-1262550Y-746951D01*
X-1313350Y-746951D01*
X-1326050Y-734251D01*
X-1326050Y-746951D02*
X-1249850Y-670751D01*
X-1199050Y-696151D02*
X-1173650Y-670751D01*
X-1173650Y-746951D01*
X-1046650Y-683451D02*
X-1059350Y-670751D01*
X-1097450Y-670751D01*
X-1110150Y-683451D01*
X-1110150Y-734251D01*
X-1097450Y-746951D01*
X-1059350Y-746951D01*
X-1046650Y-734251D01*
X-1046650Y-721551D01*
X-1059350Y-708851D01*
X-1110150Y-708851D01*
X-1021250Y-746951D02*
X-1021250Y-696151D01*
X-1021250Y-708851D02*
X-1008550Y-696151D01*
X-983150Y-721551D01*
X-957750Y-696151D01*
X-945050Y-708851D01*
X-945050Y-746951D01*
X-919650Y-746951D02*
X-919650Y-696151D01*
X-919650Y-708851D02*
X-906950Y-696151D01*
X-881550Y-721551D01*
X-856150Y-696151D01*
X-843450Y-708851D01*
X-843450Y-746951D01*
X-1872150Y-670751D02*
X-1948350Y-746951D01*
X-1948350Y-670751D02*
X-1910250Y-708851D01*
X-1770550Y-746951D02*
X-1846750Y-746951D01*
X-1846750Y-670751D01*
X-1770550Y-670751D01*
X-1846750Y-708851D02*
X-1795950Y-708851D01*
X-1745150Y-734251D02*
X-1732450Y-746951D01*
X-1681650Y-746951D01*
X-1668950Y-734251D01*
X-1668950Y-721551D01*
X-1681650Y-708851D01*
X-1732450Y-708851D01*
X-1745150Y-696151D01*
X-1745150Y-683451D01*
X-1732450Y-670751D01*
X-1681650Y-670751D01*
X-1668950Y-683451D01*
X-2616370Y-670751D02*
X-2679870Y-670751D01*
X-2679870Y-696151D01*
X-2629070Y-696151D01*
X-2616370Y-708851D01*
X-2616370Y-734251D01*
X-2629070Y-746951D01*
X-2667170Y-746951D01*
X-2679870Y-734251D01*
X-2565570Y-708851D02*
X-2578270Y-696151D01*
X-2578270Y-683451D01*
X-2565570Y-670751D01*
X-2527470Y-670751D01*
X-2514770Y-683451D01*
X-2514770Y-696151D01*
X-2527470Y-708851D01*
X-2565570Y-708851D01*
X-2578270Y-721551D01*
X-2578270Y-734251D01*
X-2565570Y-746951D01*
X-2527470Y-746951D01*
X-2514770Y-734251D01*
X-2514770Y-721551D01*
X-2527470Y-708851D01*
D16*
X-520870Y-886651D02*
X-520870Y-1013651D01*
X-457370Y-950151D02*
X-584370Y-950151D01*
X-475969Y-905250D02*
X-565771Y-995052D01*
X-475969Y-995052D02*
X-565771Y-905250D01*
D17*
X-1503850Y-937451D02*
X-1478450Y-912051D01*
X-1478450Y-988251D01*
X-1389550Y-975551D02*
X-1376850Y-975551D01*
X-1376850Y-988251D01*
X-1389550Y-988251D01*
X-1389550Y-975551D01*
X-1249850Y-924751D02*
X-1262550Y-912051D01*
X-1300650Y-912051D01*
X-1313350Y-924751D01*
X-1313350Y-975551D01*
X-1300650Y-988251D01*
X-1262550Y-988251D01*
X-1249850Y-975551D01*
X-1249850Y-962851D01*
X-1262550Y-950151D01*
X-1313350Y-950151D01*
X-1148250Y-912051D02*
X-1211750Y-912051D01*
X-1211750Y-937451D01*
X-1160950Y-937451D01*
X-1148250Y-950151D01*
X-1148250Y-975551D01*
X-1160950Y-988251D01*
X-1199050Y-988251D01*
X-1211750Y-975551D01*
X-1097450Y-937451D02*
X-1072050Y-912051D01*
X-1072050Y-988251D01*
X-1021250Y-988251D02*
X-1021250Y-937451D01*
X-1021250Y-950151D02*
X-1008550Y-937451D01*
X-983150Y-962851D01*
X-957750Y-937451D01*
X-945050Y-950151D01*
X-945050Y-988251D01*
X-919650Y-988251D02*
X-919650Y-937451D01*
X-919650Y-950151D02*
X-906950Y-937451D01*
X-881550Y-962851D01*
X-856150Y-937451D01*
X-843450Y-950151D01*
X-843450Y-988251D01*
X-1846750Y-988251D02*
X-1846750Y-912051D01*
X-1770550Y-988251D01*
X-1770550Y-912051D01*
X-1745150Y-937451D02*
X-1719750Y-912051D01*
X-1694350Y-912051D01*
X-1668950Y-937451D01*
X-1668950Y-962851D01*
X-1694350Y-988251D01*
X-1719750Y-988251D01*
X-1745150Y-962851D01*
X-1745150Y-937451D01*
X-2514770Y-962851D02*
X-2590970Y-962851D01*
X-2540170Y-912051D01*
X-2540170Y-988251D01*
M02*
