G04 PROTEUS RS274X GERBER FILE*
%FSLAX45Y45*%
%MOMM*%
G01*
%ADD10C,1.524000*%
%ADD11C,0.762000*%
%ADD12R,2.032000X2.032000*%
%ADD13R,1.524000X1.524000*%
%ADD14C,1.524000*%
%ADD15C,0.063500*%
D10*
X-779528Y+4601426D02*
X-1997528Y+4601426D01*
X-2017528Y+4621426D01*
X-779528Y+3351426D02*
X-1275528Y+3351426D01*
X-1529528Y+3605426D01*
X-2017528Y+3605426D01*
X-779528Y+3097426D02*
X-1398429Y+3097426D01*
X-1659010Y+3358007D01*
X-2010947Y+3358007D01*
X-2017528Y+3351426D01*
X-5779528Y+3355426D02*
X-5481358Y+3355426D01*
X-5476991Y+3351059D01*
X-5235382Y+3109450D01*
X-5235381Y+3109450D01*
X-4787504Y+3109450D01*
X-4779528Y+3117426D01*
X-4779528Y+2609426D02*
X-5763528Y+2609426D01*
X-5779528Y+2593426D01*
X-4779528Y+2355426D02*
X-5763528Y+2355426D01*
X-5779528Y+2339426D01*
X-4779528Y+2609426D02*
X-4743248Y+2645706D01*
X-4489248Y+2645706D01*
X-4029528Y+3105426D01*
X-3549528Y+3105426D01*
X-3541528Y+3097426D01*
X-4779528Y+2355426D02*
X-4434429Y+2355426D01*
X-3946796Y+2843059D01*
X-3541895Y+2843059D01*
X-3541528Y+2843426D01*
X-4779528Y+2101426D02*
X-4329112Y+2101426D01*
X-3841479Y+2589059D01*
X-3541895Y+2589059D01*
X-3541528Y+2589426D01*
X-4779528Y+1355426D02*
X-4529528Y+1355426D01*
X-3803528Y+2081426D01*
X-3541528Y+2081426D01*
X-4779528Y+1101426D02*
X-4779528Y+847426D01*
X-4779528Y+1101426D02*
X-4972330Y+1101426D01*
X-5122232Y+1251328D01*
X-5122232Y+2101426D01*
X-4779528Y+2101426D02*
X-5122232Y+2101426D01*
X-5763528Y+2101426D01*
X-5779528Y+2085426D01*
X-4779528Y+593426D02*
X-4478905Y+593426D01*
X-4279036Y+793295D01*
X-4279036Y+1282558D01*
X-3734168Y+1827426D01*
X-3541528Y+1827426D01*
X-2017528Y+2081426D02*
X-2610775Y+2081426D01*
X-3113135Y+2583786D01*
X-3535888Y+2583786D01*
X-3541528Y+2589426D01*
X-360003Y+3604343D02*
X-778445Y+3604343D01*
X-779528Y+3605426D01*
X-779528Y+1851426D02*
X-779528Y+1109426D01*
X-775528Y+1105426D01*
X-779528Y+2105426D02*
X-779528Y+2355426D01*
X-1029528Y+2605426D01*
X-2001528Y+2605426D01*
X-2017528Y+2589426D01*
X-1029528Y+1105426D02*
X-1053534Y+1129432D01*
X-1369973Y+1129432D01*
X-1535789Y+1295248D01*
X-1535789Y+2064032D01*
X-2000134Y+2064032D01*
X-2017528Y+2081426D01*
X-779528Y+4855426D02*
X-534318Y+4855426D01*
X-356165Y+4677273D01*
X-356165Y+3609817D01*
X-350691Y+3604343D01*
X-357511Y+3604343D01*
X-360003Y+3604343D01*
X-779528Y+2105426D02*
X-370067Y+2105426D01*
X-357511Y+2117982D01*
X-357511Y+3604343D01*
X-5779528Y+3355426D02*
X-6279528Y+3355426D01*
X-6529528Y+3105426D01*
X-6529528Y+1307848D01*
X-5471680Y+250000D01*
X-744776Y+250000D01*
X-368901Y+625875D01*
X-368901Y+2104260D01*
X-370067Y+2105426D01*
X-4584725Y+4759802D02*
X-3933102Y+5411425D01*
X-3733626Y+5411425D01*
X-3569527Y+5411425D01*
X-3541528Y+5383426D01*
X-4598023Y+4560326D02*
X-4478338Y+4560326D01*
X-3893207Y+5145457D01*
X-3557559Y+5145457D01*
X-3541528Y+5129426D01*
X-4598023Y+4360849D02*
X-4371950Y+4360849D01*
X-4345353Y+4387446D01*
X-3857373Y+4875426D01*
X-3541528Y+4875426D01*
X-6539594Y+4534920D02*
X-6685877Y+4681203D01*
X-6685877Y+5797080D01*
X-6433207Y+6049750D01*
X-6433207Y+6076347D01*
X-1964936Y+6076347D01*
X-1698967Y+5810378D01*
X-1698967Y+5265143D01*
X-1845250Y+5118860D01*
X-2006962Y+5118860D01*
X-2017528Y+5129426D01*
X-3541528Y+4621426D02*
X-3858704Y+4621426D01*
X-4691113Y+3789017D01*
X-4704411Y+3789017D01*
X-5342736Y+3789017D01*
X-5356034Y+3775719D01*
X-5688495Y+4108180D01*
X-5688495Y+4161373D01*
X-5688495Y+4414043D01*
X-6034254Y+4759802D01*
X-6481562Y+4759802D01*
X-6508136Y+4759802D01*
X-779528Y+4347426D02*
X-1271528Y+4347426D01*
X-1279528Y+4355426D01*
X-1529528Y+2855426D02*
X-1279528Y+2855426D01*
X-791528Y+2855426D01*
X-779528Y+2843426D01*
X-6529528Y+4355426D02*
X-6779528Y+4105426D01*
X-6779528Y+3105426D01*
X-5779528Y+2085426D02*
X-6006264Y+2085426D01*
X-6140641Y+2219803D01*
X-6140641Y+3110798D01*
X-6153940Y+3110798D02*
X-6140641Y+3110798D01*
X-5788900Y+3110798D01*
X-5779528Y+3101426D01*
X-4571427Y+5039069D02*
X-4556905Y+5039069D01*
X-3780748Y+5815226D01*
X-2449328Y+5815226D01*
X-2017528Y+5383426D01*
D11*
X-1535789Y+2064032D03*
X-4584725Y+4759802D03*
X-4598023Y+4560326D03*
X-4598023Y+4360849D03*
X-6539594Y+4534920D03*
X-6508136Y+4759802D03*
X-1279528Y+4355426D03*
X-1279528Y+2855426D03*
X-6529528Y+4355426D03*
X-6779528Y+3105426D03*
X-6153940Y+3110798D03*
X-1529528Y+2855426D03*
X-4571427Y+5039069D03*
D12*
X-775528Y+1105426D03*
X-1029528Y+1105426D03*
X-779528Y+2105426D03*
X-779528Y+1851426D03*
D13*
X-2017528Y+5383426D03*
D14*
X-2017528Y+5129426D03*
X-2017528Y+4875426D03*
X-2017528Y+4621426D03*
X-2017528Y+4367426D03*
X-2017528Y+4113426D03*
X-2017528Y+3859426D03*
X-2017528Y+3605426D03*
X-2017528Y+3351426D03*
X-2017528Y+3097426D03*
X-2017528Y+2843426D03*
X-2017528Y+2589426D03*
X-2017528Y+2335426D03*
X-2017528Y+2081426D03*
X-2017528Y+1827426D03*
X-3541528Y+1827426D03*
X-3541528Y+2081426D03*
X-3541528Y+2335426D03*
X-3541528Y+2589426D03*
X-3541528Y+2843426D03*
X-3541528Y+3097426D03*
X-3541528Y+3351426D03*
X-3541528Y+3605426D03*
X-3541528Y+3859426D03*
X-3541528Y+4113426D03*
X-3541528Y+4367426D03*
X-3541528Y+4621426D03*
X-3541528Y+4875426D03*
X-3541528Y+5129426D03*
X-3541528Y+5383426D03*
X-2017528Y+5637426D03*
X-3541528Y+5637426D03*
X-3541528Y+1573426D03*
X-2017528Y+1573426D03*
D12*
X-4779528Y+3371426D03*
X-4779528Y+3117426D03*
X-4779528Y+2863426D03*
X-4779528Y+2609426D03*
X-4779528Y+2355426D03*
X-4779528Y+2101426D03*
X-5779528Y+3355426D03*
X-5779528Y+3101426D03*
X-5779528Y+2847426D03*
X-5779528Y+2593426D03*
X-5779528Y+2339426D03*
X-5779528Y+2085426D03*
X-5779528Y+1831426D03*
X-779528Y+4855426D03*
X-779528Y+4601426D03*
X-779528Y+4347426D03*
X-4779528Y+1355426D03*
X-4779528Y+1101426D03*
X-4779528Y+847426D03*
X-4779528Y+593426D03*
X-779528Y+3605426D03*
X-779528Y+3351426D03*
X-779528Y+3097426D03*
X-779528Y+2843426D03*
D15*
X-2740160Y+525020D02*
X-2679200Y+525020D01*
X-2760480Y+530100D02*
X-2658880Y+530100D01*
X-2775720Y+535180D02*
X-2648720Y+535180D01*
X-2775720Y+540260D02*
X-2638560Y+540260D01*
X-2775720Y+545340D02*
X-2633480Y+545340D01*
X-2775720Y+550420D02*
X-2628400Y+550420D01*
X-2775720Y+555500D02*
X-2623320Y+555500D01*
X-2775720Y+560580D02*
X-2735080Y+560580D01*
X-2684280Y+560580D02*
X-2618240Y+560580D01*
X-2775720Y+565660D02*
X-2750320Y+565660D01*
X-2674120Y+565660D02*
X-2613160Y+565660D01*
X-2775720Y+570740D02*
X-2760480Y+570740D01*
X-2663960Y+570740D02*
X-2613160Y+570740D01*
X-2775720Y+575820D02*
X-2770640Y+575820D01*
X-2658880Y+575820D02*
X-2608080Y+575820D01*
X-2653800Y+580900D02*
X-2608080Y+580900D01*
X-2648720Y+585980D02*
X-2603000Y+585980D01*
X-2648720Y+591060D02*
X-2603000Y+591060D01*
X-2643640Y+596140D02*
X-2603000Y+596140D01*
X-2643640Y+601220D02*
X-2603000Y+601220D01*
X-2643640Y+606300D02*
X-2597920Y+606300D01*
X-2638560Y+611380D02*
X-2597920Y+611380D01*
X-2730000Y+616460D02*
X-2684280Y+616460D01*
X-2638560Y+616460D02*
X-2597920Y+616460D01*
X-2227080Y+616460D02*
X-2176280Y+616460D01*
X-2039120Y+616460D02*
X-1983240Y+616460D01*
X-1734320Y+616460D02*
X-1688600Y+616460D01*
X-3964440Y+621540D02*
X-3847600Y+621540D01*
X-3629160Y+621540D02*
X-3583440Y+621540D01*
X-3492000Y+621540D02*
X-3446280Y+621540D01*
X-3283720Y+621540D02*
X-3238000Y+621540D01*
X-3065280Y+621540D02*
X-3019560Y+621540D01*
X-2857000Y+621540D02*
X-2811280Y+621540D01*
X-2745240Y+621540D02*
X-2669040Y+621540D01*
X-2638560Y+621540D02*
X-2597920Y+621540D01*
X-2536960Y+621540D02*
X-2496320Y+621540D01*
X-2389640Y+621540D02*
X-2349000Y+621540D01*
X-2247400Y+621540D02*
X-2161040Y+621540D01*
X-2054360Y+621540D02*
X-1968000Y+621540D01*
X-1861320Y+621540D02*
X-1820680Y+621540D01*
X-1744480Y+621540D02*
X-1673360Y+621540D01*
X-1647960Y+621540D02*
X-1607320Y+621540D01*
X-3964440Y+626620D02*
X-3827280Y+626620D01*
X-3629160Y+626620D02*
X-3583440Y+626620D01*
X-3492000Y+626620D02*
X-3446280Y+626620D01*
X-3283720Y+626620D02*
X-3238000Y+626620D01*
X-3065280Y+626620D02*
X-3019560Y+626620D01*
X-2857000Y+626620D02*
X-2811280Y+626620D01*
X-2750320Y+626620D02*
X-2663960Y+626620D01*
X-2638560Y+626620D02*
X-2597920Y+626620D01*
X-2536960Y+626620D02*
X-2496320Y+626620D01*
X-2389640Y+626620D02*
X-2349000Y+626620D01*
X-2257560Y+626620D02*
X-2150880Y+626620D01*
X-2069600Y+626620D02*
X-1957840Y+626620D01*
X-1861320Y+626620D02*
X-1820680Y+626620D01*
X-1754640Y+626620D02*
X-1668280Y+626620D01*
X-1647960Y+626620D02*
X-1607320Y+626620D01*
X-3964440Y+631700D02*
X-3812040Y+631700D01*
X-3629160Y+631700D02*
X-3583440Y+631700D01*
X-3486920Y+631700D02*
X-3441200Y+631700D01*
X-3288800Y+631700D02*
X-3243080Y+631700D01*
X-3060200Y+631700D02*
X-3014480Y+631700D01*
X-2862080Y+631700D02*
X-2816360Y+631700D01*
X-2760480Y+631700D02*
X-2653800Y+631700D01*
X-2638560Y+631700D02*
X-2597920Y+631700D01*
X-2536960Y+631700D02*
X-2496320Y+631700D01*
X-2389640Y+631700D02*
X-2349000Y+631700D01*
X-2262640Y+631700D02*
X-2145800Y+631700D01*
X-2074680Y+631700D02*
X-1947680Y+631700D01*
X-1861320Y+631700D02*
X-1820680Y+631700D01*
X-1759720Y+631700D02*
X-1663200Y+631700D01*
X-1647960Y+631700D02*
X-1607320Y+631700D01*
X-3964440Y+636780D02*
X-3801880Y+636780D01*
X-3629160Y+636780D02*
X-3583440Y+636780D01*
X-3486920Y+636780D02*
X-3441200Y+636780D01*
X-3288800Y+636780D02*
X-3243080Y+636780D01*
X-3060200Y+636780D02*
X-3014480Y+636780D01*
X-2862080Y+636780D02*
X-2816360Y+636780D01*
X-2765560Y+636780D02*
X-2648720Y+636780D01*
X-2638560Y+636780D02*
X-2597920Y+636780D01*
X-2536960Y+636780D02*
X-2496320Y+636780D01*
X-2389640Y+636780D02*
X-2349000Y+636780D01*
X-2272800Y+636780D02*
X-2145800Y+636780D01*
X-2079760Y+636780D02*
X-1942600Y+636780D01*
X-1861320Y+636780D02*
X-1820680Y+636780D01*
X-1764800Y+636780D02*
X-1658120Y+636780D01*
X-1647960Y+636780D02*
X-1607320Y+636780D01*
X-3964440Y+641860D02*
X-3791720Y+641860D01*
X-3629160Y+641860D02*
X-3583440Y+641860D01*
X-3486920Y+641860D02*
X-3441200Y+641860D01*
X-3288800Y+641860D02*
X-3243080Y+641860D01*
X-3060200Y+641860D02*
X-3014480Y+641860D01*
X-2862080Y+641860D02*
X-2816360Y+641860D01*
X-2770640Y+641860D02*
X-2648720Y+641860D01*
X-2638560Y+641860D02*
X-2597920Y+641860D01*
X-2536960Y+641860D02*
X-2496320Y+641860D01*
X-2389640Y+641860D02*
X-2349000Y+641860D01*
X-2277880Y+641860D02*
X-2145800Y+641860D01*
X-2089920Y+641860D02*
X-1937520Y+641860D01*
X-1861320Y+641860D02*
X-1820680Y+641860D01*
X-1769880Y+641860D02*
X-1653040Y+641860D01*
X-1647960Y+641860D02*
X-1607320Y+641860D01*
X-3964440Y+646940D02*
X-3786640Y+646940D01*
X-3629160Y+646940D02*
X-3583440Y+646940D01*
X-3481840Y+646940D02*
X-3436120Y+646940D01*
X-3293880Y+646940D02*
X-3248160Y+646940D01*
X-3055120Y+646940D02*
X-3009400Y+646940D01*
X-2867160Y+646940D02*
X-2821440Y+646940D01*
X-2770640Y+646940D02*
X-2643640Y+646940D01*
X-2638560Y+646940D02*
X-2597920Y+646940D01*
X-2536960Y+646940D02*
X-2496320Y+646940D01*
X-2389640Y+646940D02*
X-2349000Y+646940D01*
X-2282960Y+646940D02*
X-2145800Y+646940D01*
X-2089920Y+646940D02*
X-1932440Y+646940D01*
X-1861320Y+646940D02*
X-1820680Y+646940D01*
X-1769880Y+646940D02*
X-1714000Y+646940D01*
X-1683520Y+646940D02*
X-1607320Y+646940D01*
X-3964440Y+652020D02*
X-3781560Y+652020D01*
X-3629160Y+652020D02*
X-3583440Y+652020D01*
X-3481840Y+652020D02*
X-3436120Y+652020D01*
X-3293880Y+652020D02*
X-3248160Y+652020D01*
X-3055120Y+652020D02*
X-3009400Y+652020D01*
X-2867160Y+652020D02*
X-2821440Y+652020D01*
X-2775720Y+652020D02*
X-2709680Y+652020D01*
X-2674120Y+652020D02*
X-2597920Y+652020D01*
X-2536960Y+652020D02*
X-2496320Y+652020D01*
X-2389640Y+652020D02*
X-2349000Y+652020D01*
X-2282960Y+652020D02*
X-2211840Y+652020D01*
X-2176280Y+652020D02*
X-2145800Y+652020D01*
X-2095000Y+652020D02*
X-2028960Y+652020D01*
X-1988320Y+652020D02*
X-1927360Y+652020D01*
X-1861320Y+652020D02*
X-1820680Y+652020D01*
X-1769880Y+652020D02*
X-1724160Y+652020D01*
X-1673360Y+652020D02*
X-1607320Y+652020D01*
X-3964440Y+657100D02*
X-3918720Y+657100D01*
X-3852680Y+657100D02*
X-3771400Y+657100D01*
X-3629160Y+657100D02*
X-3583440Y+657100D01*
X-3476760Y+657100D02*
X-3436120Y+657100D01*
X-3298960Y+657100D02*
X-3248160Y+657100D01*
X-3050040Y+657100D02*
X-3009400Y+657100D01*
X-2872240Y+657100D02*
X-2821440Y+657100D01*
X-2780800Y+657100D02*
X-2719840Y+657100D01*
X-2663960Y+657100D02*
X-2597920Y+657100D01*
X-2536960Y+657100D02*
X-2496320Y+657100D01*
X-2389640Y+657100D02*
X-2349000Y+657100D01*
X-2288040Y+657100D02*
X-2227080Y+657100D01*
X-2161040Y+657100D02*
X-2145800Y+657100D01*
X-2100080Y+657100D02*
X-2039120Y+657100D01*
X-1978160Y+657100D02*
X-1922280Y+657100D01*
X-1861320Y+657100D02*
X-1820680Y+657100D01*
X-1774960Y+657100D02*
X-1729240Y+657100D01*
X-1663200Y+657100D02*
X-1607320Y+657100D01*
X-3964440Y+662180D02*
X-3918720Y+662180D01*
X-3837440Y+662180D02*
X-3766320Y+662180D01*
X-3629160Y+662180D02*
X-3583440Y+662180D01*
X-3476760Y+662180D02*
X-3431040Y+662180D01*
X-3298960Y+662180D02*
X-3253240Y+662180D01*
X-3050040Y+662180D02*
X-3004320Y+662180D01*
X-2872240Y+662180D02*
X-2826520Y+662180D01*
X-2780800Y+662180D02*
X-2724920Y+662180D01*
X-2658880Y+662180D02*
X-2597920Y+662180D01*
X-2536960Y+662180D02*
X-2496320Y+662180D01*
X-2389640Y+662180D02*
X-2349000Y+662180D01*
X-2293120Y+662180D02*
X-2232160Y+662180D01*
X-2150880Y+662180D02*
X-2145800Y+662180D01*
X-2105160Y+662180D02*
X-2049280Y+662180D01*
X-1973080Y+662180D02*
X-1922280Y+662180D01*
X-1861320Y+662180D02*
X-1820680Y+662180D01*
X-1774960Y+662180D02*
X-1729240Y+662180D01*
X-1658120Y+662180D02*
X-1607320Y+662180D01*
X-3964440Y+667260D02*
X-3918720Y+667260D01*
X-3827280Y+667260D02*
X-3761240Y+667260D01*
X-3629160Y+667260D02*
X-3583440Y+667260D01*
X-3476760Y+667260D02*
X-3431040Y+667260D01*
X-3298960Y+667260D02*
X-3253240Y+667260D01*
X-3050040Y+667260D02*
X-3004320Y+667260D01*
X-2872240Y+667260D02*
X-2826520Y+667260D01*
X-2785880Y+667260D02*
X-2730000Y+667260D01*
X-2653800Y+667260D02*
X-2597920Y+667260D01*
X-2536960Y+667260D02*
X-2496320Y+667260D01*
X-2389640Y+667260D02*
X-2349000Y+667260D01*
X-2293120Y+667260D02*
X-2242320Y+667260D01*
X-2105160Y+667260D02*
X-2054360Y+667260D01*
X-1968000Y+667260D02*
X-1917200Y+667260D01*
X-1861320Y+667260D02*
X-1820680Y+667260D01*
X-1774960Y+667260D02*
X-1734320Y+667260D01*
X-1658120Y+667260D02*
X-1607320Y+667260D01*
X-3964440Y+672340D02*
X-3918720Y+672340D01*
X-3817120Y+672340D02*
X-3761240Y+672340D01*
X-3629160Y+672340D02*
X-3583440Y+672340D01*
X-3471680Y+672340D02*
X-3431040Y+672340D01*
X-3304040Y+672340D02*
X-3253240Y+672340D01*
X-3044960Y+672340D02*
X-3004320Y+672340D01*
X-2877320Y+672340D02*
X-2826520Y+672340D01*
X-2785880Y+672340D02*
X-2735080Y+672340D01*
X-2648720Y+672340D02*
X-2597920Y+672340D01*
X-2536960Y+672340D02*
X-2496320Y+672340D01*
X-2389640Y+672340D02*
X-2349000Y+672340D01*
X-2298200Y+672340D02*
X-2242320Y+672340D01*
X-2105160Y+672340D02*
X-2059440Y+672340D01*
X-1962920Y+672340D02*
X-1917200Y+672340D01*
X-1861320Y+672340D02*
X-1820680Y+672340D01*
X-1774960Y+672340D02*
X-1734320Y+672340D01*
X-1653040Y+672340D02*
X-1607320Y+672340D01*
X-3964440Y+677420D02*
X-3918720Y+677420D01*
X-3812040Y+677420D02*
X-3756160Y+677420D01*
X-3629160Y+677420D02*
X-3583440Y+677420D01*
X-3471680Y+677420D02*
X-3425960Y+677420D01*
X-3304040Y+677420D02*
X-3258320Y+677420D01*
X-3044960Y+677420D02*
X-2999240Y+677420D01*
X-2877320Y+677420D02*
X-2831600Y+677420D01*
X-2785880Y+677420D02*
X-2735080Y+677420D01*
X-2643640Y+677420D02*
X-2597920Y+677420D01*
X-2536960Y+677420D02*
X-2496320Y+677420D01*
X-2389640Y+677420D02*
X-2349000Y+677420D01*
X-2298200Y+677420D02*
X-2247400Y+677420D01*
X-2110240Y+677420D02*
X-2059440Y+677420D01*
X-1957840Y+677420D02*
X-1912120Y+677420D01*
X-1861320Y+677420D02*
X-1820680Y+677420D01*
X-1774960Y+677420D02*
X-1734320Y+677420D01*
X-1653040Y+677420D02*
X-1607320Y+677420D01*
X-3964440Y+682500D02*
X-3918720Y+682500D01*
X-3806960Y+682500D02*
X-3751080Y+682500D01*
X-3629160Y+682500D02*
X-3583440Y+682500D01*
X-3466600Y+682500D02*
X-3425960Y+682500D01*
X-3304040Y+682500D02*
X-3258320Y+682500D01*
X-3039880Y+682500D02*
X-2999240Y+682500D01*
X-2877320Y+682500D02*
X-2831600Y+682500D01*
X-2785880Y+682500D02*
X-2740160Y+682500D01*
X-2643640Y+682500D02*
X-2597920Y+682500D01*
X-2536960Y+682500D02*
X-2496320Y+682500D01*
X-2389640Y+682500D02*
X-2349000Y+682500D01*
X-2298200Y+682500D02*
X-2252480Y+682500D01*
X-2110240Y+682500D02*
X-2064520Y+682500D01*
X-1957840Y+682500D02*
X-1912120Y+682500D01*
X-1861320Y+682500D02*
X-1820680Y+682500D01*
X-1774960Y+682500D02*
X-1734320Y+682500D01*
X-1647960Y+682500D02*
X-1607320Y+682500D01*
X-3964440Y+687580D02*
X-3918720Y+687580D01*
X-3801880Y+687580D02*
X-3751080Y+687580D01*
X-3629160Y+687580D02*
X-3583440Y+687580D01*
X-3466600Y+687580D02*
X-3420880Y+687580D01*
X-3309120Y+687580D02*
X-3258320Y+687580D01*
X-3039880Y+687580D02*
X-2994160Y+687580D01*
X-2882400Y+687580D02*
X-2831600Y+687580D01*
X-2790960Y+687580D02*
X-2740160Y+687580D01*
X-2643640Y+687580D02*
X-2597920Y+687580D01*
X-2536960Y+687580D02*
X-2496320Y+687580D01*
X-2389640Y+687580D02*
X-2349000Y+687580D01*
X-2298200Y+687580D02*
X-2252480Y+687580D01*
X-2110240Y+687580D02*
X-2064520Y+687580D01*
X-1957840Y+687580D02*
X-1912120Y+687580D01*
X-1861320Y+687580D02*
X-1820680Y+687580D01*
X-1774960Y+687580D02*
X-1734320Y+687580D01*
X-1647960Y+687580D02*
X-1607320Y+687580D01*
X-3964440Y+692660D02*
X-3918720Y+692660D01*
X-3796800Y+692660D02*
X-3746000Y+692660D01*
X-3629160Y+692660D02*
X-3583440Y+692660D01*
X-3466600Y+692660D02*
X-3263400Y+692660D01*
X-3039880Y+692660D02*
X-2836680Y+692660D01*
X-2790960Y+692660D02*
X-2745240Y+692660D01*
X-2638560Y+692660D02*
X-2597920Y+692660D01*
X-2536960Y+692660D02*
X-2496320Y+692660D01*
X-2389640Y+692660D02*
X-2349000Y+692660D01*
X-2303280Y+692660D02*
X-2252480Y+692660D01*
X-2115320Y+692660D02*
X-2064520Y+692660D01*
X-1952760Y+692660D02*
X-1907040Y+692660D01*
X-1861320Y+692660D02*
X-1820680Y+692660D01*
X-1769880Y+692660D02*
X-1729240Y+692660D01*
X-1647960Y+692660D02*
X-1607320Y+692660D01*
X-3964440Y+697740D02*
X-3918720Y+697740D01*
X-3791720Y+697740D02*
X-3746000Y+697740D01*
X-3629160Y+697740D02*
X-3583440Y+697740D01*
X-3461520Y+697740D02*
X-3263400Y+697740D01*
X-3034800Y+697740D02*
X-2836680Y+697740D01*
X-2790960Y+697740D02*
X-2745240Y+697740D01*
X-2638560Y+697740D02*
X-2597920Y+697740D01*
X-2536960Y+697740D02*
X-2496320Y+697740D01*
X-2389640Y+697740D02*
X-2349000Y+697740D01*
X-2303280Y+697740D02*
X-2257560Y+697740D01*
X-2115320Y+697740D02*
X-2069600Y+697740D01*
X-1952760Y+697740D02*
X-1907040Y+697740D01*
X-1861320Y+697740D02*
X-1820680Y+697740D01*
X-1769880Y+697740D02*
X-1724160Y+697740D01*
X-1647960Y+697740D02*
X-1607320Y+697740D01*
X-3964440Y+702820D02*
X-3918720Y+702820D01*
X-3791720Y+702820D02*
X-3740920Y+702820D01*
X-3629160Y+702820D02*
X-3583440Y+702820D01*
X-3461520Y+702820D02*
X-3268480Y+702820D01*
X-3034800Y+702820D02*
X-2841760Y+702820D01*
X-2790960Y+702820D02*
X-2745240Y+702820D01*
X-2638560Y+702820D02*
X-2597920Y+702820D01*
X-2536960Y+702820D02*
X-2496320Y+702820D01*
X-2389640Y+702820D02*
X-2349000Y+702820D01*
X-2303280Y+702820D02*
X-2257560Y+702820D01*
X-2115320Y+702820D02*
X-2069600Y+702820D01*
X-1952760Y+702820D02*
X-1907040Y+702820D01*
X-1861320Y+702820D02*
X-1820680Y+702820D01*
X-1769880Y+702820D02*
X-1719080Y+702820D01*
X-1647960Y+702820D02*
X-1607320Y+702820D01*
X-3964440Y+707900D02*
X-3918720Y+707900D01*
X-3786640Y+707900D02*
X-3740920Y+707900D01*
X-3629160Y+707900D02*
X-3583440Y+707900D01*
X-3456440Y+707900D02*
X-3268480Y+707900D01*
X-3029720Y+707900D02*
X-2841760Y+707900D01*
X-2790960Y+707900D02*
X-2745240Y+707900D01*
X-2638560Y+707900D02*
X-2597920Y+707900D01*
X-2536960Y+707900D02*
X-2496320Y+707900D01*
X-2389640Y+707900D02*
X-2349000Y+707900D01*
X-2303280Y+707900D02*
X-2257560Y+707900D01*
X-2115320Y+707900D02*
X-2069600Y+707900D01*
X-1952760Y+707900D02*
X-1907040Y+707900D01*
X-1861320Y+707900D02*
X-1820680Y+707900D01*
X-1764800Y+707900D02*
X-1698760Y+707900D01*
X-1647960Y+707900D02*
X-1607320Y+707900D01*
X-3964440Y+712980D02*
X-3918720Y+712980D01*
X-3786640Y+712980D02*
X-3735840Y+712980D01*
X-3629160Y+712980D02*
X-3583440Y+712980D01*
X-3456440Y+712980D02*
X-3268480Y+712980D01*
X-3029720Y+712980D02*
X-2841760Y+712980D01*
X-2790960Y+712980D02*
X-2745240Y+712980D01*
X-2638560Y+712980D02*
X-2597920Y+712980D01*
X-2536960Y+712980D02*
X-2496320Y+712980D01*
X-2389640Y+712980D02*
X-2349000Y+712980D01*
X-2303280Y+712980D02*
X-2257560Y+712980D01*
X-2115320Y+712980D02*
X-2069600Y+712980D01*
X-1952760Y+712980D02*
X-1907040Y+712980D01*
X-1861320Y+712980D02*
X-1820680Y+712980D01*
X-1759720Y+712980D02*
X-1673360Y+712980D01*
X-1647960Y+712980D02*
X-1607320Y+712980D01*
X-3964440Y+718060D02*
X-3918720Y+718060D01*
X-3781560Y+718060D02*
X-3735840Y+718060D01*
X-3629160Y+718060D02*
X-3583440Y+718060D01*
X-3456440Y+718060D02*
X-3273560Y+718060D01*
X-3202440Y+718060D02*
X-3095760Y+718060D01*
X-3029720Y+718060D02*
X-2846840Y+718060D01*
X-2790960Y+718060D02*
X-2745240Y+718060D01*
X-2638560Y+718060D02*
X-2597920Y+718060D01*
X-2536960Y+718060D02*
X-2496320Y+718060D01*
X-2389640Y+718060D02*
X-2349000Y+718060D01*
X-2303280Y+718060D02*
X-2257560Y+718060D01*
X-2115320Y+718060D02*
X-2069600Y+718060D01*
X-1952760Y+718060D02*
X-1907040Y+718060D01*
X-1861320Y+718060D02*
X-1820680Y+718060D01*
X-1754640Y+718060D02*
X-1607320Y+718060D01*
X-3964440Y+723140D02*
X-3918720Y+723140D01*
X-3781560Y+723140D02*
X-3735840Y+723140D01*
X-3629160Y+723140D02*
X-3583440Y+723140D01*
X-3451360Y+723140D02*
X-3273560Y+723140D01*
X-3202440Y+723140D02*
X-3095760Y+723140D01*
X-3024640Y+723140D02*
X-2846840Y+723140D01*
X-2790960Y+723140D02*
X-2745240Y+723140D01*
X-2638560Y+723140D02*
X-2597920Y+723140D01*
X-2536960Y+723140D02*
X-2496320Y+723140D01*
X-2389640Y+723140D02*
X-2349000Y+723140D01*
X-2303280Y+723140D02*
X-2257560Y+723140D01*
X-2115320Y+723140D02*
X-2069600Y+723140D01*
X-1952760Y+723140D02*
X-1907040Y+723140D01*
X-1861320Y+723140D02*
X-1820680Y+723140D01*
X-1749560Y+723140D02*
X-1607320Y+723140D01*
X-3964440Y+728220D02*
X-3918720Y+728220D01*
X-3781560Y+728220D02*
X-3735840Y+728220D01*
X-3629160Y+728220D02*
X-3583440Y+728220D01*
X-3451360Y+728220D02*
X-3405640Y+728220D01*
X-3319280Y+728220D02*
X-3273560Y+728220D01*
X-3202440Y+728220D02*
X-3095760Y+728220D01*
X-3024640Y+728220D02*
X-2978920Y+728220D01*
X-2892560Y+728220D02*
X-2846840Y+728220D01*
X-2790960Y+728220D02*
X-2745240Y+728220D01*
X-2638560Y+728220D02*
X-2597920Y+728220D01*
X-2536960Y+728220D02*
X-2496320Y+728220D01*
X-2389640Y+728220D02*
X-2349000Y+728220D01*
X-2303280Y+728220D02*
X-2257560Y+728220D01*
X-2115320Y+728220D02*
X-2069600Y+728220D01*
X-1952760Y+728220D02*
X-1907040Y+728220D01*
X-1861320Y+728220D02*
X-1820680Y+728220D01*
X-1739400Y+728220D02*
X-1607320Y+728220D01*
X-3964440Y+733300D02*
X-3918720Y+733300D01*
X-3776480Y+733300D02*
X-3730760Y+733300D01*
X-3629160Y+733300D02*
X-3583440Y+733300D01*
X-3451360Y+733300D02*
X-3400560Y+733300D01*
X-3319280Y+733300D02*
X-3278640Y+733300D01*
X-3202440Y+733300D02*
X-3095760Y+733300D01*
X-3024640Y+733300D02*
X-2973840Y+733300D01*
X-2892560Y+733300D02*
X-2851920Y+733300D01*
X-2790960Y+733300D02*
X-2745240Y+733300D01*
X-2638560Y+733300D02*
X-2597920Y+733300D01*
X-2536960Y+733300D02*
X-2496320Y+733300D01*
X-2389640Y+733300D02*
X-2349000Y+733300D01*
X-2303280Y+733300D02*
X-2257560Y+733300D01*
X-2115320Y+733300D02*
X-2069600Y+733300D01*
X-1952760Y+733300D02*
X-1907040Y+733300D01*
X-1861320Y+733300D02*
X-1820680Y+733300D01*
X-1719080Y+733300D02*
X-1607320Y+733300D01*
X-3964440Y+738380D02*
X-3918720Y+738380D01*
X-3776480Y+738380D02*
X-3730760Y+738380D01*
X-3629160Y+738380D02*
X-3583440Y+738380D01*
X-3446280Y+738380D02*
X-3400560Y+738380D01*
X-3319280Y+738380D02*
X-3278640Y+738380D01*
X-3202440Y+738380D02*
X-3095760Y+738380D01*
X-3019560Y+738380D02*
X-2973840Y+738380D01*
X-2892560Y+738380D02*
X-2851920Y+738380D01*
X-2790960Y+738380D02*
X-2745240Y+738380D01*
X-2638560Y+738380D02*
X-2597920Y+738380D01*
X-2536960Y+738380D02*
X-2496320Y+738380D01*
X-2389640Y+738380D02*
X-2349000Y+738380D01*
X-2303280Y+738380D02*
X-2257560Y+738380D01*
X-2115320Y+738380D02*
X-2069600Y+738380D01*
X-1952760Y+738380D02*
X-1907040Y+738380D01*
X-1861320Y+738380D02*
X-1820680Y+738380D01*
X-1693680Y+738380D02*
X-1607320Y+738380D01*
X-3964440Y+743460D02*
X-3918720Y+743460D01*
X-3776480Y+743460D02*
X-3730760Y+743460D01*
X-3629160Y+743460D02*
X-3583440Y+743460D01*
X-3446280Y+743460D02*
X-3400560Y+743460D01*
X-3324360Y+743460D02*
X-3278640Y+743460D01*
X-3202440Y+743460D02*
X-3095760Y+743460D01*
X-3019560Y+743460D02*
X-2973840Y+743460D01*
X-2897640Y+743460D02*
X-2851920Y+743460D01*
X-2785880Y+743460D02*
X-2740160Y+743460D01*
X-2638560Y+743460D02*
X-2597920Y+743460D01*
X-2536960Y+743460D02*
X-2496320Y+743460D01*
X-2389640Y+743460D02*
X-2349000Y+743460D01*
X-2298200Y+743460D02*
X-2252480Y+743460D01*
X-2115320Y+743460D02*
X-2064520Y+743460D01*
X-1957840Y+743460D02*
X-1907040Y+743460D01*
X-1861320Y+743460D02*
X-1820680Y+743460D01*
X-1663200Y+743460D02*
X-1607320Y+743460D01*
X-3964440Y+748540D02*
X-3918720Y+748540D01*
X-3776480Y+748540D02*
X-3730760Y+748540D01*
X-3629160Y+748540D02*
X-3583440Y+748540D01*
X-3441200Y+748540D02*
X-3395480Y+748540D01*
X-3324360Y+748540D02*
X-3283720Y+748540D01*
X-3014480Y+748540D02*
X-2968760Y+748540D01*
X-2897640Y+748540D02*
X-2857000Y+748540D01*
X-2785880Y+748540D02*
X-2740160Y+748540D01*
X-2638560Y+748540D02*
X-2597920Y+748540D01*
X-2536960Y+748540D02*
X-2491240Y+748540D01*
X-2389640Y+748540D02*
X-2349000Y+748540D01*
X-2298200Y+748540D02*
X-2252480Y+748540D01*
X-2110240Y+748540D02*
X-2064520Y+748540D01*
X-1957840Y+748540D02*
X-1912120Y+748540D01*
X-1861320Y+748540D02*
X-1820680Y+748540D01*
X-1647960Y+748540D02*
X-1607320Y+748540D01*
X-3964440Y+753620D02*
X-3918720Y+753620D01*
X-3776480Y+753620D02*
X-3730760Y+753620D01*
X-3629160Y+753620D02*
X-3583440Y+753620D01*
X-3441200Y+753620D02*
X-3395480Y+753620D01*
X-3324360Y+753620D02*
X-3283720Y+753620D01*
X-3014480Y+753620D02*
X-2968760Y+753620D01*
X-2897640Y+753620D02*
X-2857000Y+753620D01*
X-2785880Y+753620D02*
X-2740160Y+753620D01*
X-2643640Y+753620D02*
X-2597920Y+753620D01*
X-2536960Y+753620D02*
X-2491240Y+753620D01*
X-2389640Y+753620D02*
X-2349000Y+753620D01*
X-2298200Y+753620D02*
X-2247400Y+753620D01*
X-2110240Y+753620D02*
X-2064520Y+753620D01*
X-1957840Y+753620D02*
X-1912120Y+753620D01*
X-1861320Y+753620D02*
X-1820680Y+753620D01*
X-1647960Y+753620D02*
X-1607320Y+753620D01*
X-3964440Y+758700D02*
X-3918720Y+758700D01*
X-3776480Y+758700D02*
X-3730760Y+758700D01*
X-3629160Y+758700D02*
X-3583440Y+758700D01*
X-3441200Y+758700D02*
X-3395480Y+758700D01*
X-3329440Y+758700D02*
X-3283720Y+758700D01*
X-3014480Y+758700D02*
X-2968760Y+758700D01*
X-2902720Y+758700D02*
X-2857000Y+758700D01*
X-2785880Y+758700D02*
X-2735080Y+758700D01*
X-2643640Y+758700D02*
X-2597920Y+758700D01*
X-2536960Y+758700D02*
X-2491240Y+758700D01*
X-2389640Y+758700D02*
X-2349000Y+758700D01*
X-2298200Y+758700D02*
X-2247400Y+758700D01*
X-2110240Y+758700D02*
X-2059440Y+758700D01*
X-1962920Y+758700D02*
X-1912120Y+758700D01*
X-1861320Y+758700D02*
X-1820680Y+758700D01*
X-1647960Y+758700D02*
X-1607320Y+758700D01*
X-3964440Y+763780D02*
X-3918720Y+763780D01*
X-3776480Y+763780D02*
X-3730760Y+763780D01*
X-3629160Y+763780D02*
X-3583440Y+763780D01*
X-3436120Y+763780D02*
X-3390400Y+763780D01*
X-3329440Y+763780D02*
X-3288800Y+763780D01*
X-3009400Y+763780D02*
X-2963680Y+763780D01*
X-2902720Y+763780D02*
X-2862080Y+763780D01*
X-2780800Y+763780D02*
X-2735080Y+763780D01*
X-2648720Y+763780D02*
X-2597920Y+763780D01*
X-2536960Y+763780D02*
X-2486160Y+763780D01*
X-2389640Y+763780D02*
X-2349000Y+763780D01*
X-2293120Y+763780D02*
X-2242320Y+763780D01*
X-2105160Y+763780D02*
X-2059440Y+763780D01*
X-1962920Y+763780D02*
X-1912120Y+763780D01*
X-1861320Y+763780D02*
X-1820680Y+763780D01*
X-1647960Y+763780D02*
X-1607320Y+763780D01*
X-3964440Y+768860D02*
X-3918720Y+768860D01*
X-3776480Y+768860D02*
X-3730760Y+768860D01*
X-3629160Y+768860D02*
X-3583440Y+768860D01*
X-3436120Y+768860D02*
X-3390400Y+768860D01*
X-3334520Y+768860D02*
X-3288800Y+768860D01*
X-3009400Y+768860D02*
X-2963680Y+768860D01*
X-2907800Y+768860D02*
X-2862080Y+768860D01*
X-2780800Y+768860D02*
X-2730000Y+768860D01*
X-2648720Y+768860D02*
X-2597920Y+768860D01*
X-2536960Y+768860D02*
X-2481080Y+768860D01*
X-2389640Y+768860D02*
X-2349000Y+768860D01*
X-2293120Y+768860D02*
X-2237240Y+768860D01*
X-2105160Y+768860D02*
X-2054360Y+768860D01*
X-1968000Y+768860D02*
X-1917200Y+768860D01*
X-1861320Y+768860D02*
X-1820680Y+768860D01*
X-1754640Y+768860D02*
X-1749560Y+768860D01*
X-1653040Y+768860D02*
X-1607320Y+768860D01*
X-3964440Y+773940D02*
X-3918720Y+773940D01*
X-3776480Y+773940D02*
X-3730760Y+773940D01*
X-3629160Y+773940D02*
X-3583440Y+773940D01*
X-3431040Y+773940D02*
X-3390400Y+773940D01*
X-3334520Y+773940D02*
X-3288800Y+773940D01*
X-3004320Y+773940D02*
X-2963680Y+773940D01*
X-2907800Y+773940D02*
X-2862080Y+773940D01*
X-2775720Y+773940D02*
X-2724920Y+773940D01*
X-2653800Y+773940D02*
X-2597920Y+773940D01*
X-2536960Y+773940D02*
X-2481080Y+773940D01*
X-2389640Y+773940D02*
X-2349000Y+773940D01*
X-2288040Y+773940D02*
X-2232160Y+773940D01*
X-2150880Y+773940D02*
X-2145800Y+773940D01*
X-2100080Y+773940D02*
X-2049280Y+773940D01*
X-1973080Y+773940D02*
X-1917200Y+773940D01*
X-1861320Y+773940D02*
X-1820680Y+773940D01*
X-1754640Y+773940D02*
X-1744480Y+773940D01*
X-1653040Y+773940D02*
X-1612400Y+773940D01*
X-3964440Y+779020D02*
X-3918720Y+779020D01*
X-3776480Y+779020D02*
X-3730760Y+779020D01*
X-3629160Y+779020D02*
X-3583440Y+779020D01*
X-3431040Y+779020D02*
X-3385320Y+779020D01*
X-3334520Y+779020D02*
X-3293880Y+779020D01*
X-3004320Y+779020D02*
X-2958600Y+779020D01*
X-2907800Y+779020D02*
X-2867160Y+779020D01*
X-2775720Y+779020D02*
X-2719840Y+779020D01*
X-2663960Y+779020D02*
X-2597920Y+779020D01*
X-2536960Y+779020D02*
X-2476000Y+779020D01*
X-2389640Y+779020D02*
X-2349000Y+779020D01*
X-2282960Y+779020D02*
X-2222000Y+779020D01*
X-2161040Y+779020D02*
X-2145800Y+779020D01*
X-2100080Y+779020D02*
X-2039120Y+779020D01*
X-1978160Y+779020D02*
X-1922280Y+779020D01*
X-1861320Y+779020D02*
X-1820680Y+779020D01*
X-1754640Y+779020D02*
X-1734320Y+779020D01*
X-1658120Y+779020D02*
X-1612400Y+779020D01*
X-3964440Y+784100D02*
X-3918720Y+784100D01*
X-3776480Y+784100D02*
X-3730760Y+784100D01*
X-3629160Y+784100D02*
X-3583440Y+784100D01*
X-3431040Y+784100D02*
X-3385320Y+784100D01*
X-3339600Y+784100D02*
X-3293880Y+784100D01*
X-3004320Y+784100D02*
X-2958600Y+784100D01*
X-2912880Y+784100D02*
X-2867160Y+784100D01*
X-2770640Y+784100D02*
X-2704600Y+784100D01*
X-2674120Y+784100D02*
X-2597920Y+784100D01*
X-2536960Y+784100D02*
X-2465840Y+784100D01*
X-2430280Y+784100D02*
X-2425200Y+784100D01*
X-2389640Y+784100D02*
X-2349000Y+784100D01*
X-2282960Y+784100D02*
X-2211840Y+784100D01*
X-2171200Y+784100D02*
X-2145800Y+784100D01*
X-2095000Y+784100D02*
X-2028960Y+784100D01*
X-1993400Y+784100D02*
X-1927360Y+784100D01*
X-1861320Y+784100D02*
X-1820680Y+784100D01*
X-1754640Y+784100D02*
X-1724160Y+784100D01*
X-1663200Y+784100D02*
X-1612400Y+784100D01*
X-3964440Y+789180D02*
X-3918720Y+789180D01*
X-3776480Y+789180D02*
X-3730760Y+789180D01*
X-3629160Y+789180D02*
X-3583440Y+789180D01*
X-3425960Y+789180D02*
X-3385320Y+789180D01*
X-3339600Y+789180D02*
X-3293880Y+789180D01*
X-2999240Y+789180D02*
X-2958600Y+789180D01*
X-2912880Y+789180D02*
X-2867160Y+789180D01*
X-2770640Y+789180D02*
X-2597920Y+789180D01*
X-2536960Y+789180D02*
X-2496320Y+789180D01*
X-2491240Y+789180D02*
X-2425200Y+789180D01*
X-2389640Y+789180D02*
X-2349000Y+789180D01*
X-2277880Y+789180D02*
X-2145800Y+789180D01*
X-2089920Y+789180D02*
X-1927360Y+789180D01*
X-1861320Y+789180D02*
X-1820680Y+789180D01*
X-1754640Y+789180D02*
X-1708920Y+789180D01*
X-1673360Y+789180D02*
X-1617480Y+789180D01*
X-3964440Y+794260D02*
X-3918720Y+794260D01*
X-3781560Y+794260D02*
X-3730760Y+794260D01*
X-3629160Y+794260D02*
X-3583440Y+794260D01*
X-3425960Y+794260D02*
X-3380240Y+794260D01*
X-3339600Y+794260D02*
X-3298960Y+794260D01*
X-2999240Y+794260D02*
X-2953520Y+794260D01*
X-2912880Y+794260D02*
X-2872240Y+794260D01*
X-2765560Y+794260D02*
X-2643640Y+794260D01*
X-2638560Y+794260D02*
X-2597920Y+794260D01*
X-2536960Y+794260D02*
X-2496320Y+794260D01*
X-2491240Y+794260D02*
X-2425200Y+794260D01*
X-2389640Y+794260D02*
X-2349000Y+794260D01*
X-2272800Y+794260D02*
X-2145800Y+794260D01*
X-2084840Y+794260D02*
X-1932440Y+794260D01*
X-1861320Y+794260D02*
X-1820680Y+794260D01*
X-1754640Y+794260D02*
X-1617480Y+794260D01*
X-3964440Y+799340D02*
X-3918720Y+799340D01*
X-3781560Y+799340D02*
X-3735840Y+799340D01*
X-3629160Y+799340D02*
X-3583440Y+799340D01*
X-3425960Y+799340D02*
X-3380240Y+799340D01*
X-3344680Y+799340D02*
X-3298960Y+799340D01*
X-2999240Y+799340D02*
X-2953520Y+799340D01*
X-2917960Y+799340D02*
X-2872240Y+799340D01*
X-2760480Y+799340D02*
X-2643640Y+799340D01*
X-2638560Y+799340D02*
X-2597920Y+799340D01*
X-2536960Y+799340D02*
X-2496320Y+799340D01*
X-2486160Y+799340D02*
X-2425200Y+799340D01*
X-2389640Y+799340D02*
X-2349000Y+799340D01*
X-2267720Y+799340D02*
X-2145800Y+799340D01*
X-2079760Y+799340D02*
X-1937520Y+799340D01*
X-1861320Y+799340D02*
X-1820680Y+799340D01*
X-1754640Y+799340D02*
X-1622560Y+799340D01*
X-3964440Y+804420D02*
X-3918720Y+804420D01*
X-3781560Y+804420D02*
X-3735840Y+804420D01*
X-3629160Y+804420D02*
X-3583440Y+804420D01*
X-3420880Y+804420D02*
X-3375160Y+804420D01*
X-3344680Y+804420D02*
X-3304040Y+804420D01*
X-2994160Y+804420D02*
X-2948440Y+804420D01*
X-2917960Y+804420D02*
X-2877320Y+804420D01*
X-2755400Y+804420D02*
X-2648720Y+804420D01*
X-2638560Y+804420D02*
X-2597920Y+804420D01*
X-2536960Y+804420D02*
X-2496320Y+804420D01*
X-2481080Y+804420D02*
X-2425200Y+804420D01*
X-2389640Y+804420D02*
X-2349000Y+804420D01*
X-2257560Y+804420D02*
X-2145800Y+804420D01*
X-2074680Y+804420D02*
X-1947680Y+804420D01*
X-1861320Y+804420D02*
X-1820680Y+804420D01*
X-1754640Y+804420D02*
X-1627640Y+804420D01*
X-3964440Y+809500D02*
X-3918720Y+809500D01*
X-3786640Y+809500D02*
X-3735840Y+809500D01*
X-3629160Y+809500D02*
X-3583440Y+809500D01*
X-3420880Y+809500D02*
X-3375160Y+809500D01*
X-3344680Y+809500D02*
X-3304040Y+809500D01*
X-2994160Y+809500D02*
X-2948440Y+809500D01*
X-2917960Y+809500D02*
X-2877320Y+809500D01*
X-2745240Y+809500D02*
X-2658880Y+809500D01*
X-2638560Y+809500D02*
X-2597920Y+809500D01*
X-2536960Y+809500D02*
X-2496320Y+809500D01*
X-2476000Y+809500D02*
X-2425200Y+809500D01*
X-2389640Y+809500D02*
X-2349000Y+809500D01*
X-2252480Y+809500D02*
X-2145800Y+809500D01*
X-2064520Y+809500D02*
X-1952760Y+809500D01*
X-1861320Y+809500D02*
X-1820680Y+809500D01*
X-1744480Y+809500D02*
X-1632720Y+809500D01*
X-3964440Y+814580D02*
X-3918720Y+814580D01*
X-3786640Y+814580D02*
X-3735840Y+814580D01*
X-3629160Y+814580D02*
X-3583440Y+814580D01*
X-3415800Y+814580D02*
X-3375160Y+814580D01*
X-3349760Y+814580D02*
X-3304040Y+814580D01*
X-2989080Y+814580D02*
X-2948440Y+814580D01*
X-2923040Y+814580D02*
X-2877320Y+814580D01*
X-2735080Y+814580D02*
X-2663960Y+814580D01*
X-2638560Y+814580D02*
X-2597920Y+814580D01*
X-2536960Y+814580D02*
X-2496320Y+814580D01*
X-2470920Y+814580D02*
X-2425200Y+814580D01*
X-2389640Y+814580D02*
X-2349000Y+814580D01*
X-2242320Y+814580D02*
X-2150880Y+814580D01*
X-2054360Y+814580D02*
X-1962920Y+814580D01*
X-1861320Y+814580D02*
X-1820680Y+814580D01*
X-1729240Y+814580D02*
X-1642880Y+814580D01*
X-3964440Y+819660D02*
X-3918720Y+819660D01*
X-3791720Y+819660D02*
X-3740920Y+819660D01*
X-3629160Y+819660D02*
X-3583440Y+819660D01*
X-3415800Y+819660D02*
X-3370080Y+819660D01*
X-3349760Y+819660D02*
X-3309120Y+819660D01*
X-2989080Y+819660D02*
X-2943360Y+819660D01*
X-2923040Y+819660D02*
X-2882400Y+819660D01*
X-2719840Y+819660D02*
X-2679200Y+819660D01*
X-2460760Y+819660D02*
X-2425200Y+819660D01*
X-2222000Y+819660D02*
X-2171200Y+819660D01*
X-2034040Y+819660D02*
X-1983240Y+819660D01*
X-1861320Y+819660D02*
X-1820680Y+819660D01*
X-1714000Y+819660D02*
X-1658120Y+819660D01*
X-3964440Y+824740D02*
X-3918720Y+824740D01*
X-3791720Y+824740D02*
X-3740920Y+824740D01*
X-3629160Y+824740D02*
X-3583440Y+824740D01*
X-3415800Y+824740D02*
X-3370080Y+824740D01*
X-3349760Y+824740D02*
X-3309120Y+824740D01*
X-2989080Y+824740D02*
X-2943360Y+824740D01*
X-2923040Y+824740D02*
X-2882400Y+824740D01*
X-1861320Y+824740D02*
X-1820680Y+824740D01*
X-3964440Y+829820D02*
X-3918720Y+829820D01*
X-3796800Y+829820D02*
X-3740920Y+829820D01*
X-3629160Y+829820D02*
X-3583440Y+829820D01*
X-3410720Y+829820D02*
X-3370080Y+829820D01*
X-3354840Y+829820D02*
X-3309120Y+829820D01*
X-2984000Y+829820D02*
X-2943360Y+829820D01*
X-2928120Y+829820D02*
X-2882400Y+829820D01*
X-1861320Y+829820D02*
X-1820680Y+829820D01*
X-3964440Y+834900D02*
X-3918720Y+834900D01*
X-3801880Y+834900D02*
X-3746000Y+834900D01*
X-3629160Y+834900D02*
X-3583440Y+834900D01*
X-3410720Y+834900D02*
X-3365000Y+834900D01*
X-3354840Y+834900D02*
X-3314200Y+834900D01*
X-2984000Y+834900D02*
X-2938280Y+834900D01*
X-2928120Y+834900D02*
X-2887480Y+834900D01*
X-1861320Y+834900D02*
X-1820680Y+834900D01*
X-3964440Y+839980D02*
X-3918720Y+839980D01*
X-3806960Y+839980D02*
X-3746000Y+839980D01*
X-3629160Y+839980D02*
X-3583440Y+839980D01*
X-3405640Y+839980D02*
X-3365000Y+839980D01*
X-3354840Y+839980D02*
X-3314200Y+839980D01*
X-2978920Y+839980D02*
X-2938280Y+839980D01*
X-2928120Y+839980D02*
X-2887480Y+839980D01*
X-1861320Y+839980D02*
X-1820680Y+839980D01*
X-3964440Y+845060D02*
X-3918720Y+845060D01*
X-3812040Y+845060D02*
X-3751080Y+845060D01*
X-3629160Y+845060D02*
X-3583440Y+845060D01*
X-3405640Y+845060D02*
X-3365000Y+845060D01*
X-3359920Y+845060D02*
X-3314200Y+845060D01*
X-2978920Y+845060D02*
X-2938280Y+845060D01*
X-2933200Y+845060D02*
X-2887480Y+845060D01*
X-1861320Y+845060D02*
X-1820680Y+845060D01*
X-3964440Y+850140D02*
X-3918720Y+850140D01*
X-3822200Y+850140D02*
X-3756160Y+850140D01*
X-3629160Y+850140D02*
X-3583440Y+850140D01*
X-3405640Y+850140D02*
X-3365000Y+850140D01*
X-3359920Y+850140D02*
X-3319280Y+850140D01*
X-2978920Y+850140D02*
X-2938280Y+850140D01*
X-2933200Y+850140D02*
X-2892560Y+850140D01*
X-1861320Y+850140D02*
X-1820680Y+850140D01*
X-3964440Y+855220D02*
X-3918720Y+855220D01*
X-3832360Y+855220D02*
X-3761240Y+855220D01*
X-3629160Y+855220D02*
X-3583440Y+855220D01*
X-3400560Y+855220D02*
X-3319280Y+855220D01*
X-2973840Y+855220D02*
X-2892560Y+855220D01*
X-2404880Y+855220D02*
X-2374400Y+855220D01*
X-1861320Y+855220D02*
X-1820680Y+855220D01*
X-3964440Y+860300D02*
X-3918720Y+860300D01*
X-3852680Y+860300D02*
X-3761240Y+860300D01*
X-3629160Y+860300D02*
X-3583440Y+860300D01*
X-3400560Y+860300D02*
X-3319280Y+860300D01*
X-2973840Y+860300D02*
X-2892560Y+860300D01*
X-2399800Y+860300D02*
X-2369320Y+860300D01*
X-1861320Y+860300D02*
X-1820680Y+860300D01*
X-3964440Y+865380D02*
X-3771400Y+865380D01*
X-3710440Y+865380D02*
X-3502160Y+865380D01*
X-3400560Y+865380D02*
X-3324360Y+865380D01*
X-2973840Y+865380D02*
X-2897640Y+865380D01*
X-2394720Y+865380D02*
X-2364240Y+865380D01*
X-1861320Y+865380D02*
X-1820680Y+865380D01*
X-3964440Y+870460D02*
X-3776480Y+870460D01*
X-3710440Y+870460D02*
X-3502160Y+870460D01*
X-3395480Y+870460D02*
X-3324360Y+870460D01*
X-2968760Y+870460D02*
X-2897640Y+870460D01*
X-2389640Y+870460D02*
X-2359160Y+870460D01*
X-1861320Y+870460D02*
X-1820680Y+870460D01*
X-3964440Y+875540D02*
X-3781560Y+875540D01*
X-3710440Y+875540D02*
X-3502160Y+875540D01*
X-3395480Y+875540D02*
X-3324360Y+875540D01*
X-2968760Y+875540D02*
X-2897640Y+875540D01*
X-2389640Y+875540D02*
X-2354080Y+875540D01*
X-1861320Y+875540D02*
X-1820680Y+875540D01*
X-3964440Y+880620D02*
X-3791720Y+880620D01*
X-3710440Y+880620D02*
X-3502160Y+880620D01*
X-3390400Y+880620D02*
X-3329440Y+880620D01*
X-2963680Y+880620D02*
X-2902720Y+880620D01*
X-2384560Y+880620D02*
X-2349000Y+880620D01*
X-1861320Y+880620D02*
X-1820680Y+880620D01*
X-3964440Y+885700D02*
X-3801880Y+885700D01*
X-3710440Y+885700D02*
X-3502160Y+885700D01*
X-3390400Y+885700D02*
X-3329440Y+885700D01*
X-2963680Y+885700D02*
X-2902720Y+885700D01*
X-2379480Y+885700D02*
X-2343920Y+885700D01*
X-1861320Y+885700D02*
X-1820680Y+885700D01*
X-3964440Y+890780D02*
X-3817120Y+890780D01*
X-3710440Y+890780D02*
X-3502160Y+890780D01*
X-3390400Y+890780D02*
X-3329440Y+890780D01*
X-2963680Y+890780D02*
X-2902720Y+890780D01*
X-2374400Y+890780D02*
X-2338840Y+890780D01*
X-1861320Y+890780D02*
X-1820680Y+890780D01*
X-3964440Y+895860D02*
X-3842520Y+895860D01*
X-3710440Y+895860D02*
X-3502160Y+895860D01*
X-3385320Y+895860D02*
X-3334520Y+895860D01*
X-2958600Y+895860D02*
X-2907800Y+895860D01*
X-2374400Y+895860D02*
X-2333760Y+895860D01*
X-1861320Y+895860D02*
X-1820680Y+895860D01*
X-2369320Y+900940D02*
X-2328680Y+900940D01*
X-1861320Y+900940D02*
X-1820680Y+900940D01*
X-2364240Y+906020D02*
X-2323600Y+906020D01*
X-1861320Y+906020D02*
X-1820680Y+906020D01*
X-2359160Y+911100D02*
X-2318520Y+911100D01*
X-1861320Y+911100D02*
X-1820680Y+911100D01*
M02*
