M48
METRIC,TZ
T01C0.3810
T02C1.0160
T03C1.6510
%
T01
X-15358Y+20640
X-45847Y+47598
X-45980Y+45603
X-45980Y+43608
X-65396Y+45349
X-65081Y+47598
X-12795Y+43554
X-12795Y+28554
X-65295Y+43554
X-67795Y+31054
X-61539Y+31108
X-15295Y+28554
X-45714Y+50391
T02
X-7755Y+11054
X-10295Y+11054
X-7795Y+21054
X-7795Y+18514
X-20175Y+53834
X-20175Y+51294
X-20175Y+48754
X-20175Y+46214
X-20175Y+43674
X-20175Y+41134
X-20175Y+38594
X-20175Y+36054
X-20175Y+33514
X-20175Y+30974
X-20175Y+28434
X-20175Y+25894
X-20175Y+23354
X-20175Y+20814
X-20175Y+18274
X-35415Y+18274
X-35415Y+20814
X-35415Y+23354
X-35415Y+25894
X-35415Y+28434
X-35415Y+30974
X-35415Y+33514
X-35415Y+36054
X-35415Y+38594
X-35415Y+41134
X-35415Y+43674
X-35415Y+46214
X-35415Y+48754
X-35415Y+51294
X-35415Y+53834
X-47795Y+33714
X-47795Y+31174
X-47795Y+28634
X-47795Y+26094
X-47795Y+23554
X-47795Y+21014
X-57795Y+33554
X-57795Y+31014
X-57795Y+28474
X-57795Y+25934
X-57795Y+23394
X-57795Y+20854
X-57795Y+18314
X-7795Y+48554
X-7795Y+46014
X-7795Y+43474
X-47795Y+13554
X-47795Y+11014
X-47795Y+8474
X-47795Y+5934
X-7795Y+36054
X-7795Y+33514
X-7795Y+30974
X-7795Y+28434
T03
X-20175Y+56374
X-35415Y+56374
X-35415Y+15734
X-20175Y+15734
M30
